M48
;Layer_Color=9474304
;FILE_FORMAT=2:5
INCH,LZ
;TYPE=PLATED
T1F00S00C0.01181
T3F00S00C0.03543
T4F00S00C0.03937
T5F00S00C0.05906
T7F00S00C0.13780
%
T01
X0069851Y00095
X0074851
X0079851
Y00145
X0074851
X0069851
Y00195
X0074851
X0079851
X00795Y0025494
X00705
X0097Y002
X01065Y0021
X0116
X0127457Y0040943
X0149543Y0040892
X01395Y0062
X01355
X01395Y0066
Y007
Y0074
Y0078
X01295Y0073
X0126
X0110392Y00655
X01065
X0108804Y0062
X00795Y00594
X00705
X0083555Y0054004
X00685Y0088338
Y0093338
Y0098338
X0055Y0097826
Y0102826
Y0107826
X00756Y0109
X00676Y0122
X0065787Y0140087
X0057836
X0051Y0132187
X0046372Y01475
X0080961Y0147961
X0081Y01515
X0098Y01525
Y01475
X0098024Y0144024
X0111094Y01435
X0120405Y0131626
X013Y0136029
X01296Y01215
X0108076Y0120539
X0091905Y0122
X00984Y0109
X012Y00975
X0150651Y0093
X0150351Y0117
Y0124
X0055Y0082
X0185625Y0077
X019
Y0073
X0194
Y0069
X0198
X0202
X0206
Y0073
X0202
X0198
Y0077
X0202
X0206
Y0081
X021
Y0077
X0214
Y0081
Y0085
Y0088941
X021Y0089
Y0085
X0206
Y0089
Y0093
X021
Y0073
X0194Y0077
X01825Y0103
Y0132
X0182Y00445
X01756Y00395
X01705Y0021
X0186651Y0019
X0219
X02233Y0015
X0219Y0029
X02461Y00151
X03305Y0042
X0331Y00595
X0336
Y00645
X0331
X0326
Y00595
Y00695
X0331
X0336
X03455Y00635
X0358657Y0067
X0363657
X0368657
Y0072
Y0077
Y0082
Y0087
Y0092
Y0097
Y0102
X0363657
X0358657
Y0107
X0363657
X0368657
Y0112
X0363657
X0358657
Y0097
X0363657
Y0092
X0358657
Y0087
X0363657
Y0082
X0358657
Y0077
X0363657
Y0072
X0358657
X0341644Y009325
X0337644
X0333644
X0329644
X0325644
Y009725
X0329644
X0333644
X0337644
X0341644
Y010125
Y010525
Y010925
Y011325
Y011725
X0337644
Y011325
X0333644
Y011725
X0329644
Y011325
X0367Y0141
X0332Y02865
X0328
X0324
X032
Y02905
X0316
Y02945
Y02985
Y03025
X032
Y03065
X0324
Y03105
X0328
Y03065
X0332
Y03105
X0336Y03065
Y03025
X0332
X0328
X0324
X032Y02985
Y02945
X02065Y02855
X02025
Y02815
X02065
X02105
Y02775
X02065
Y02735
X02Y0267
X0196
Y0263
X0192
Y0267
Y0259
Y0255
X0196
X02
Y0259
Y0263
X0196Y0259
X01985Y02815
X0187281Y02825
X0182Y0296
X01565Y028037
Y027537
Y027037
X0156351Y0224
X01845Y0228
X01825Y0214
Y0204
X01905Y01935
X01955
X02005
Y01885
X01955
X01905
Y01835
Y01785
X01955
X02005
Y01835
X01955
X0208Y01825
Y01965
X0161Y0162126
X02315Y02565
X01515Y027037
Y027537
Y028037
X01465
Y027537
Y027037
X013
Y027537
Y028037
X0125
X012
Y027537
X0125
Y027037
X012
X01015Y02555
X0092Y0236
X0115293Y02325
Y02225
Y02125
Y02025
Y01925
Y01875
X01274Y01675
Y0157803
X013Y0156329
X0148573Y01875
Y01975
X0150651Y0204
X0148573Y02075
X0135Y02175
Y02275
X01355Y0244
X01454Y024
X0152851Y0235
X0149651Y0291
X01348Y0301
X01383Y03115
X0096171Y0307
Y0302
Y0297
X0091171
X0086171
Y0302
X0091171
Y0307
X0086171
X00625Y030616
Y030116
X00575
X00525
Y030616
X00575
Y031116
X00625
X00525
X00465Y02555
X00455Y02325
X005Y02275
X0055Y02225
X00685Y0215
X0087Y01995
X0079821Y01815
X0079Y0172
X0051436Y01665
X00525Y018635
X00475
X00425
Y019135
X00475
X00525
Y019635
X00475
X00425
X01034Y0314
X01455Y0346
X01555
X0143043Y0376543
X0162957
X0182992Y0347
Y0342
X0183Y0337
X0188
X0193
Y0342
Y0347
X0188
Y0342
X0184Y03155
X02255Y0364
X0273Y03645
Y0382
X0289Y03595
X0293Y03535
X03135Y03635
X03185
X03235
Y03685
X03185
X03135
Y03735
X03185
X03235
X03285
X03335
X03385
X03435
Y03685
Y03635
X03485
X03535
Y03685
X03485
Y03735
X03535
X03385Y03685
X03335
X03285
Y03635
X03335
X03385
X03365Y03445
Y03395
X03415
Y03345
X03465
Y03395
Y03445
X03415
X03315
T03
X0042Y0025
X0052
X0131Y00265
X0141
X0151
X00966Y00985
X00774
X0022Y01095
Y01195
Y01295
Y01395
X0161Y00265
X0022Y0165
Y0175
Y0185
Y0195
Y022
Y023
Y024
Y025
Y026
Y027
Y0295
Y0305
Y0334
Y0344
X01305Y03605
X01405
X01505
X01605
T04
X00505Y0049
Y0059
X0367Y01575
Y01775
X01066Y035
X00866
T05
X0271Y00475
X0291
X0256Y03335
X0236
X0367Y0335
Y0315
T07
X0019685Y0019685
X0374016Y0019685
X0019685Y0374016
X0374016
M30
