G04*
G04 #@! TF.GenerationSoftware,Altium Limited,Altium Designer,18.1.9 (240)*
G04*
G04 Layer_Physical_Order=2*
G04 Layer_Color=16711680*
%FSLAX25Y25*%
%MOIN*%
G70*
G01*
G75*
%ADD13C,0.01000*%
%ADD19R,0.03700X0.03200*%
%ADD66C,0.02000*%
%ADD71C,0.03000*%
%ADD72C,0.05906*%
%ADD73R,0.05906X0.05906*%
%ADD74R,0.09843X0.09843*%
%ADD75C,0.09843*%
%ADD76R,0.06299X0.07874*%
%ADD77R,0.07874X0.06000*%
%ADD78R,0.05906X0.05906*%
%ADD79C,0.06299*%
%ADD80R,0.05906X0.05906*%
%ADD81C,0.05906*%
%ADD82R,0.33465X0.11811*%
%ADD83R,0.33465X0.11811*%
%ADD84R,0.09843X0.09843*%
%ADD85C,0.17717*%
%ADD86R,0.19685X0.11811*%
%ADD87C,0.02362*%
%ADD88R,0.04724X0.05512*%
%ADD89R,0.05512X0.04724*%
G36*
X156265Y345090D02*
X156209Y345017D01*
X156160Y344938D01*
X156118Y344853D01*
X156082Y344763D01*
X156052Y344666D01*
X156029Y344564D01*
X156013Y344456D01*
X156003Y344341D01*
X156000Y344221D01*
X155000D01*
X154997Y344341D01*
X154987Y344456D01*
X154971Y344564D01*
X154948Y344666D01*
X154918Y344763D01*
X154882Y344853D01*
X154840Y344938D01*
X154791Y345017D01*
X154735Y345090D01*
X154673Y345157D01*
X156327D01*
X156265Y345090D01*
D02*
G37*
G36*
X146265D02*
X146209Y345017D01*
X146160Y344938D01*
X146118Y344853D01*
X146082Y344763D01*
X146052Y344666D01*
X146029Y344564D01*
X146013Y344456D01*
X146003Y344341D01*
X146000Y344221D01*
X145000D01*
X144997Y344341D01*
X144987Y344456D01*
X144971Y344564D01*
X144948Y344666D01*
X144918Y344763D01*
X144882Y344853D01*
X144840Y344938D01*
X144791Y345017D01*
X144735Y345090D01*
X144673Y345157D01*
X146327D01*
X146265Y345090D01*
D02*
G37*
G36*
X15000Y391738D02*
X168500D01*
Y346379D01*
X158076Y335955D01*
X157687Y336274D01*
X157855Y336525D01*
X158049Y337500D01*
Y344096D01*
X158279Y344396D01*
X158599Y345170D01*
X158709Y346000D01*
X158599Y346830D01*
X158279Y347604D01*
X157769Y348269D01*
X157104Y348779D01*
X156330Y349099D01*
X155500Y349209D01*
X154670Y349099D01*
X153896Y348779D01*
X153231Y348269D01*
X152721Y347604D01*
X152401Y346830D01*
X152292Y346000D01*
X152401Y345170D01*
X152721Y344396D01*
X152951Y344096D01*
Y338556D01*
X150444Y336049D01*
X148112D01*
X147855Y336461D01*
X147860Y336549D01*
X148049Y337500D01*
Y344096D01*
X148279Y344396D01*
X148599Y345170D01*
X148708Y346000D01*
X148599Y346830D01*
X148279Y347604D01*
X147769Y348269D01*
X147104Y348779D01*
X146330Y349099D01*
X145500Y349209D01*
X144670Y349099D01*
X143896Y348779D01*
X143231Y348269D01*
X142721Y347604D01*
X142401Y346830D01*
X142291Y346000D01*
X142401Y345170D01*
X142721Y344396D01*
X142951Y344096D01*
Y338556D01*
X142044Y337649D01*
X128600D01*
X127624Y337455D01*
X126798Y336902D01*
X106098Y316202D01*
X105545Y315375D01*
X105351Y314400D01*
Y170738D01*
X88662Y154049D01*
X82904D01*
X82604Y154279D01*
X81830Y154599D01*
X81000Y154709D01*
X80170Y154599D01*
X79396Y154279D01*
X78731Y153769D01*
X78221Y153104D01*
X77901Y152330D01*
X77791Y151500D01*
X77901Y150670D01*
X78221Y149896D01*
X78329Y149756D01*
X78182Y149565D01*
X77861Y148791D01*
X77752Y147961D01*
X77861Y147130D01*
X78182Y146356D01*
X78692Y145692D01*
X79356Y145182D01*
X80130Y144861D01*
X80961Y144752D01*
X81791Y144861D01*
X82565Y145182D01*
X82864Y145412D01*
X88442D01*
X89417Y145606D01*
X90244Y146158D01*
X109012Y164926D01*
X109474Y164735D01*
Y146266D01*
X108826Y145769D01*
X108316Y145104D01*
X107995Y144330D01*
X107886Y143500D01*
X107995Y142670D01*
X108316Y141896D01*
X108826Y141231D01*
X109490Y140721D01*
X110264Y140401D01*
X111094Y140292D01*
X111925Y140401D01*
X112699Y140721D01*
X113363Y141231D01*
X113873Y141896D01*
X113946Y142073D01*
X114640Y142766D01*
X114640Y142766D01*
X115120Y143393D01*
X115423Y144122D01*
X115526Y144905D01*
X115526Y144906D01*
Y180321D01*
X115988Y180512D01*
X117500Y179000D01*
X130724D01*
X130724Y126239D01*
X130262Y126048D01*
X123257Y133053D01*
X123183Y133230D01*
X122673Y133895D01*
X122009Y134405D01*
X121235Y134725D01*
X120405Y134834D01*
X119574Y134725D01*
X118800Y134405D01*
X118136Y133895D01*
X117626Y133230D01*
X117305Y132456D01*
X117196Y131626D01*
X117305Y130796D01*
X117626Y130022D01*
X118136Y129357D01*
X118800Y128847D01*
X118977Y128774D01*
X126413Y121338D01*
X126501Y120670D01*
X126821Y119896D01*
X127331Y119231D01*
X127996Y118721D01*
X128770Y118401D01*
X129600Y118291D01*
X130224Y118374D01*
X130724Y118037D01*
Y110797D01*
X130262Y110606D01*
X99981Y140886D01*
X100025Y141550D01*
X100292Y141755D01*
X100802Y142419D01*
X101123Y143193D01*
X101232Y144024D01*
X101123Y144854D01*
X100802Y145628D01*
X100688Y145777D01*
X100779Y145896D01*
X101099Y146670D01*
X101209Y147500D01*
X101099Y148330D01*
X100779Y149104D01*
X100269Y149769D01*
X99604Y150279D01*
X98830Y150599D01*
X98000Y150708D01*
X97170Y150599D01*
X96396Y150279D01*
X95731Y149769D01*
X95221Y149104D01*
X94901Y148330D01*
X94851Y147956D01*
X92698Y145802D01*
X92145Y144975D01*
X91951Y144000D01*
Y140500D01*
X92145Y139524D01*
X92698Y138698D01*
X107295Y124100D01*
X107107Y123581D01*
X106472Y123318D01*
X105807Y122808D01*
X105297Y122143D01*
X104977Y121370D01*
X104868Y120539D01*
X104977Y119709D01*
X105050Y119532D01*
Y116424D01*
X103723Y115097D01*
X103088D01*
X94757Y123427D01*
X94684Y123604D01*
X94174Y124269D01*
X93510Y124779D01*
X92736Y125099D01*
X91905Y125208D01*
X91075Y125099D01*
X90301Y124779D01*
X89637Y124269D01*
X89127Y123604D01*
X88806Y122830D01*
X88697Y122000D01*
X88806Y121170D01*
X89127Y120396D01*
X89637Y119731D01*
X90301Y119221D01*
X90478Y119148D01*
X101266Y108360D01*
X101266Y108360D01*
X109766Y99860D01*
X109766Y99860D01*
X110393Y99379D01*
X111122Y99077D01*
X111906Y98974D01*
X111906Y98974D01*
X114247D01*
X117148Y96073D01*
X117150Y96068D01*
Y92105D01*
X117125Y92002D01*
X117132Y91957D01*
X117123Y91912D01*
X117150Y91775D01*
Y89900D01*
X117428D01*
X117458Y89414D01*
X117461Y88900D01*
X117470Y88856D01*
Y65962D01*
X98004Y46496D01*
X97443Y45765D01*
X97090Y44914D01*
X96970Y44000D01*
Y20000D01*
X97090Y19086D01*
X97443Y18235D01*
X98004Y17504D01*
X103004Y12504D01*
X103735Y11943D01*
X104586Y11590D01*
X105500Y11470D01*
X166000D01*
Y1963D01*
X15000D01*
X14899Y1942D01*
X12956Y2095D01*
X10962Y2574D01*
X9068Y3359D01*
X7320Y4430D01*
X5761Y5761D01*
X4430Y7320D01*
X3359Y9068D01*
X2574Y10962D01*
X2095Y12956D01*
X1942Y14899D01*
X1963Y15000D01*
Y378701D01*
X1942Y378802D01*
X2095Y380745D01*
X2574Y382738D01*
X3359Y384632D01*
X4430Y386381D01*
X5761Y387940D01*
X7320Y389271D01*
X9068Y390342D01*
X10962Y391127D01*
X12956Y391605D01*
X14899Y391758D01*
X15000Y391738D01*
D02*
G37*
G36*
X81911Y152265D02*
X81983Y152209D01*
X82062Y152160D01*
X82147Y152118D01*
X82237Y152082D01*
X82334Y152052D01*
X82436Y152029D01*
X82544Y152013D01*
X82659Y152003D01*
X82779Y152000D01*
Y151000D01*
X82659Y150997D01*
X82544Y150987D01*
X82436Y150971D01*
X82334Y150948D01*
X82237Y150918D01*
X82147Y150882D01*
X82062Y150840D01*
X81983Y150791D01*
X81911Y150735D01*
X81844Y150673D01*
Y152327D01*
X81911Y152265D01*
D02*
G37*
G36*
X81871Y148725D02*
X81944Y148670D01*
X82023Y148621D01*
X82108Y148578D01*
X82198Y148542D01*
X82294Y148513D01*
X82397Y148490D01*
X82505Y148474D01*
X82619Y148464D01*
X82739Y148461D01*
Y147461D01*
X82619Y147457D01*
X82505Y147448D01*
X82397Y147431D01*
X82294Y147408D01*
X82198Y147379D01*
X82108Y147343D01*
X82023Y147301D01*
X81944Y147251D01*
X81871Y147196D01*
X81804Y147134D01*
Y148787D01*
X81871Y148725D01*
D02*
G37*
G36*
X97988Y146319D02*
X97897Y146316D01*
X97806Y146303D01*
X97716Y146282D01*
X97626Y146252D01*
X97536Y146214D01*
X97447Y146166D01*
X97359Y146110D01*
X97271Y146045D01*
X97183Y145971D01*
X97096Y145889D01*
X96389Y146596D01*
X96471Y146683D01*
X96545Y146771D01*
X96610Y146859D01*
X96666Y146947D01*
X96714Y147036D01*
X96752Y147126D01*
X96782Y147216D01*
X96803Y147306D01*
X96816Y147397D01*
X96819Y147488D01*
X97988Y146319D01*
D02*
G37*
G36*
X98012Y142843D02*
X97921Y142839D01*
X97830Y142827D01*
X97739Y142806D01*
X97649Y142776D01*
X97560Y142737D01*
X97471Y142690D01*
X97382Y142634D01*
X97294Y142569D01*
X97207Y142495D01*
X97119Y142412D01*
X96412Y143119D01*
X96495Y143207D01*
X96569Y143294D01*
X96634Y143382D01*
X96690Y143471D01*
X96737Y143560D01*
X96776Y143649D01*
X96806Y143739D01*
X96827Y143830D01*
X96839Y143921D01*
X96843Y144012D01*
X98012Y142843D01*
D02*
G37*
G36*
X106234Y111914D02*
X105979Y111631D01*
X105781Y111348D01*
X105640Y111066D01*
X105555Y110783D01*
X105527Y110500D01*
X105555Y110217D01*
X105640Y109934D01*
X105781Y109652D01*
X105979Y109369D01*
X106234Y109086D01*
X102698Y109793D01*
X101991Y113328D01*
X102274Y113074D01*
X102557Y112876D01*
X102840Y112734D01*
X103123Y112650D01*
X103405Y112621D01*
X103688Y112650D01*
X103971Y112734D01*
X104254Y112876D01*
X104537Y113074D01*
X104820Y113328D01*
X106234Y111914D01*
D02*
G37*
G36*
X123451Y107944D02*
Y99449D01*
X122951Y99064D01*
X122779Y99104D01*
X122269Y99769D01*
X121604Y100279D01*
X121427Y100352D01*
X117640Y104140D01*
X117013Y104621D01*
X116283Y104923D01*
X115500Y105026D01*
X113159D01*
X107771Y110413D01*
X107750Y110450D01*
X107705Y110500D01*
X107750Y110550D01*
X107771Y110587D01*
X110216Y113031D01*
X110697Y113658D01*
X110999Y114387D01*
X111102Y115171D01*
Y119532D01*
X111118Y119570D01*
X111637Y119758D01*
X123451Y107944D01*
D02*
G37*
G36*
X122004Y96232D02*
X122037Y95780D01*
X122066Y95596D01*
X122103Y95441D01*
X122148Y95314D01*
X122202Y95215D01*
X122264Y95144D01*
X122334Y95102D01*
X122412Y95088D01*
X122068D01*
X122092Y94706D01*
X122121Y94577D01*
X122153Y94480D01*
X122189Y94415D01*
X119811D01*
X119847Y94480D01*
X119879Y94577D01*
X119908Y94706D01*
X119932Y94866D01*
X119952Y95088D01*
X119588D01*
X119666Y95102D01*
X119736Y95144D01*
X119798Y95215D01*
X119852Y95314D01*
X119897Y95441D01*
X119934Y95596D01*
X119963Y95780D01*
X119983Y95992D01*
X120000Y96500D01*
X122000D01*
X122004Y96232D01*
D02*
G37*
G36*
X122774Y91882D02*
X122716Y91792D01*
X122666Y91642D01*
X122622Y91432D01*
X122584Y91162D01*
X122530Y90442D01*
X122500Y88912D01*
X119500D01*
X119497Y89482D01*
X119378Y91432D01*
X119334Y91642D01*
X119284Y91792D01*
X119226Y91882D01*
X119162Y91912D01*
X122838D01*
X122774Y91882D01*
D02*
G37*
G36*
X130003Y74659D02*
X130013Y74545D01*
X130029Y74436D01*
X130052Y74334D01*
X130082Y74237D01*
X130118Y74147D01*
X130160Y74062D01*
X130209Y73983D01*
X130265Y73910D01*
X130327Y73843D01*
X128673D01*
X128735Y73910D01*
X128791Y73983D01*
X128840Y74062D01*
X128882Y74147D01*
X128918Y74237D01*
X128948Y74334D01*
X128971Y74436D01*
X128987Y74545D01*
X128997Y74659D01*
X129000Y74779D01*
X130000D01*
X130003Y74659D01*
D02*
G37*
G36*
X126503D02*
X126513Y74545D01*
X126529Y74436D01*
X126552Y74334D01*
X126582Y74237D01*
X126618Y74147D01*
X126660Y74062D01*
X126709Y73983D01*
X126765Y73910D01*
X126827Y73843D01*
X125173D01*
X125235Y73910D01*
X125291Y73983D01*
X125340Y74062D01*
X125382Y74147D01*
X125418Y74237D01*
X125448Y74334D01*
X125471Y74436D01*
X125487Y74545D01*
X125497Y74659D01*
X125500Y74779D01*
X126500D01*
X126503Y74659D01*
D02*
G37*
G36*
X118974Y56828D02*
Y28253D01*
X114747Y24026D01*
X107508D01*
X107330Y24099D01*
X106500Y24208D01*
X105670Y24099D01*
X104896Y23779D01*
X104530Y23498D01*
X104030Y23745D01*
Y42538D01*
X118512Y57020D01*
X118974Y56828D01*
D02*
G37*
G36*
X137500Y173371D02*
Y94329D01*
X166000Y65829D01*
Y18530D01*
X118745D01*
X118498Y19030D01*
X118779Y19396D01*
X118852Y19573D01*
X124140Y24860D01*
X124620Y25487D01*
X124923Y26217D01*
X125026Y27000D01*
Y56818D01*
X135889Y67682D01*
X136370Y68309D01*
X136673Y69038D01*
X136776Y69821D01*
X136776Y69822D01*
X136776Y173302D01*
X137276Y173546D01*
X137500Y173371D01*
D02*
G37*
G36*
X207102Y16050D02*
X207202Y16039D01*
X207579Y16022D01*
X210118Y16000D01*
Y14000D01*
X207060Y13939D01*
Y16061D01*
X207102Y16050D01*
D02*
G37*
G36*
X380745Y391605D02*
X382738Y391127D01*
X384632Y390342D01*
X386381Y389271D01*
X387940Y387940D01*
X389271Y386381D01*
X390342Y384632D01*
X391127Y382738D01*
X391605Y380745D01*
X391758Y378802D01*
X391738Y378701D01*
Y15000D01*
X391758Y14899D01*
X391605Y12956D01*
X391127Y10962D01*
X390342Y9068D01*
X389271Y7320D01*
X387940Y5761D01*
X386381Y4430D01*
X384632Y3359D01*
X382738Y2574D01*
X380745Y2095D01*
X378802Y1942D01*
X378701Y1963D01*
X168039D01*
Y11470D01*
X206000D01*
X206914Y11590D01*
X207690Y11912D01*
X210159Y11961D01*
X210217Y11974D01*
X222292D01*
X222470Y11901D01*
X223300Y11791D01*
X224130Y11901D01*
X224549Y12074D01*
X245093D01*
X245270Y12001D01*
X246100Y11891D01*
X246930Y12001D01*
X247108Y12074D01*
X330600D01*
X331383Y12177D01*
X332113Y12479D01*
X332740Y12960D01*
X388140Y68360D01*
X388140Y68360D01*
X388620Y68987D01*
X388923Y69717D01*
X389026Y70500D01*
X389026Y70500D01*
X389026Y340200D01*
X389026Y340200D01*
X388923Y340983D01*
X388620Y341713D01*
X388140Y342340D01*
X388140Y342340D01*
X377340Y353140D01*
X376713Y353621D01*
X375983Y353923D01*
X375200Y354026D01*
X296753D01*
X296026Y354753D01*
Y358000D01*
X295923Y358783D01*
X295620Y359513D01*
X295140Y360140D01*
X293640Y361640D01*
X293013Y362121D01*
X292283Y362423D01*
X291500Y362526D01*
X290007D01*
X289830Y362599D01*
X289000Y362709D01*
X288170Y362599D01*
X287396Y362279D01*
X286731Y361769D01*
X286221Y361104D01*
X285901Y360330D01*
X285791Y359500D01*
X285901Y358670D01*
X286221Y357896D01*
X286731Y357231D01*
X287396Y356721D01*
X288170Y356401D01*
X289000Y356291D01*
X289474Y356354D01*
X289974Y355950D01*
Y354507D01*
X289901Y354330D01*
X289791Y353500D01*
X289901Y352670D01*
X290221Y351896D01*
X290731Y351231D01*
X291396Y350721D01*
X291573Y350648D01*
X293360Y348860D01*
X293360Y348860D01*
X293987Y348379D01*
X294717Y348077D01*
X295500Y347974D01*
X373947D01*
X382974Y338947D01*
Y298776D01*
X348268D01*
Y282965D01*
X382974D01*
Y259405D01*
X348268D01*
Y243595D01*
X382974D01*
Y220035D01*
X348268D01*
Y204224D01*
X382974D01*
Y71753D01*
X329347Y18126D01*
X324058D01*
X323867Y18588D01*
X347640Y42360D01*
X347640Y42360D01*
X348120Y42987D01*
X348423Y43717D01*
X348526Y44500D01*
X348526Y44500D01*
Y62493D01*
X348599Y62670D01*
X348709Y63500D01*
X348599Y64330D01*
X348279Y65104D01*
X347769Y65769D01*
X347104Y66279D01*
X346330Y66599D01*
X345500Y66709D01*
X344670Y66599D01*
X343896Y66279D01*
X343231Y65769D01*
X342721Y65104D01*
X342401Y64330D01*
X342291Y63500D01*
X342401Y62670D01*
X342474Y62493D01*
Y45753D01*
X318747Y22026D01*
X220007D01*
X219830Y22099D01*
X219000Y22208D01*
X218170Y22099D01*
X217396Y21779D01*
X216731Y21269D01*
X216221Y20604D01*
X215901Y19830D01*
X215791Y19000D01*
X215854Y18526D01*
X215450Y18026D01*
X210199D01*
X210136Y18039D01*
X207759Y18060D01*
X206914Y18410D01*
X206000Y18530D01*
X168039D01*
Y65829D01*
X168039Y65829D01*
X167884Y66610D01*
X167442Y67271D01*
X139539Y95174D01*
Y173371D01*
X139515Y173495D01*
X139524Y173620D01*
X139438Y173882D01*
X139384Y174152D01*
X139314Y174256D01*
X139275Y174376D01*
X139095Y174584D01*
X138942Y174813D01*
X138837Y174883D01*
X138755Y174978D01*
X138531Y175154D01*
X138230Y175305D01*
X137939Y175475D01*
X137877Y175483D01*
X137820Y175512D01*
X137485Y175536D01*
X137151Y175582D01*
X136776Y175907D01*
Y204250D01*
X136673Y205033D01*
X136370Y205763D01*
X135889Y206390D01*
X134026Y208253D01*
Y240747D01*
X134253Y240974D01*
X134493D01*
X134670Y240901D01*
X135500Y240791D01*
X136330Y240901D01*
X137104Y241221D01*
X137769Y241731D01*
X138279Y242396D01*
X138599Y243170D01*
X138708Y244000D01*
X138599Y244830D01*
X138279Y245604D01*
X137769Y246269D01*
X137104Y246779D01*
X136330Y247099D01*
X135500Y247209D01*
X134670Y247099D01*
X134493Y247026D01*
X133000D01*
X133000Y247026D01*
X132217Y246923D01*
X131487Y246620D01*
X130860Y246140D01*
X128860Y244140D01*
X128379Y243513D01*
X128077Y242783D01*
X127974Y242000D01*
Y207000D01*
X128077Y206217D01*
X128379Y205487D01*
X128860Y204860D01*
X130724Y202997D01*
Y181121D01*
X118263D01*
X117430Y181954D01*
X116768Y182396D01*
X115988Y182551D01*
X115547Y182913D01*
X115526Y182969D01*
X115526Y311247D01*
X131279Y327000D01*
X157000D01*
X157561Y327561D01*
X157683Y327577D01*
X158413Y327880D01*
X159040Y328360D01*
X191653Y360974D01*
X224493D01*
X224670Y360901D01*
X225500Y360791D01*
X226330Y360901D01*
X227104Y361221D01*
X227769Y361731D01*
X228279Y362396D01*
X228599Y363170D01*
X228709Y364000D01*
X228599Y364830D01*
X228279Y365604D01*
X227769Y366269D01*
X227104Y366779D01*
X226330Y367099D01*
X225500Y367209D01*
X224670Y367099D01*
X224493Y367026D01*
X190400D01*
X189617Y366923D01*
X188887Y366620D01*
X188260Y366140D01*
X188260Y366140D01*
X171001Y348880D01*
X170539Y349072D01*
Y391738D01*
X378701D01*
X378802Y391758D01*
X380745Y391605D01*
D02*
G37*
%LPC*%
G36*
X153244Y373819D02*
X152756D01*
X152744Y373819D01*
X143244D01*
Y365538D01*
X143244Y365238D01*
X143238Y365228D01*
X142893Y364951D01*
X142443Y365056D01*
X141793Y365325D01*
X140500Y365495D01*
X139207Y365325D01*
X138002Y364826D01*
X136968Y364032D01*
X136174Y362998D01*
X135675Y361793D01*
X135504Y360500D01*
X135675Y359207D01*
X136174Y358002D01*
X136968Y356968D01*
X138002Y356174D01*
X139207Y355675D01*
X140500Y355504D01*
X141793Y355675D01*
X142998Y356174D01*
X144032Y356968D01*
X144826Y358002D01*
X145229Y358976D01*
X145771D01*
X146174Y358002D01*
X146968Y356968D01*
X148002Y356174D01*
X149207Y355675D01*
X150500Y355504D01*
X151793Y355675D01*
X152998Y356174D01*
X154032Y356968D01*
X154826Y358002D01*
X155229Y358976D01*
X155771D01*
X156174Y358002D01*
X156968Y356968D01*
X158002Y356174D01*
X159207Y355675D01*
X160500Y355504D01*
X161793Y355675D01*
X162998Y356174D01*
X164032Y356968D01*
X164826Y358002D01*
X165325Y359207D01*
X165496Y360500D01*
X165325Y361793D01*
X164826Y362998D01*
X164032Y364032D01*
X162998Y364826D01*
X162874Y364877D01*
X162855Y364976D01*
X162756Y365124D01*
Y373819D01*
X153256D01*
X153244Y373819D01*
D02*
G37*
G36*
X19685Y384908D02*
X17981Y384773D01*
X16319Y384375D01*
X14740Y383720D01*
X13283Y382827D01*
X11983Y381717D01*
X10873Y380418D01*
X9980Y378961D01*
X9326Y377382D01*
X8927Y375720D01*
X8793Y374016D01*
X8927Y372312D01*
X9326Y370650D01*
X9980Y369071D01*
X10873Y367614D01*
X11983Y366314D01*
X13283Y365204D01*
X14740Y364311D01*
X16319Y363657D01*
X17981Y363258D01*
X19685Y363124D01*
X21389Y363258D01*
X23051Y363657D01*
X24630Y364311D01*
X26087Y365204D01*
X27387Y366314D01*
X28497Y367614D01*
X29390Y369071D01*
X30044Y370650D01*
X30443Y372312D01*
X30577Y374016D01*
X30443Y375720D01*
X30044Y377382D01*
X29390Y378961D01*
X28497Y380418D01*
X27387Y381717D01*
X26087Y382827D01*
X24630Y383720D01*
X23051Y384375D01*
X21389Y384773D01*
X19685Y384908D01*
D02*
G37*
G36*
X68843Y367905D02*
X45158D01*
Y352095D01*
X68843D01*
Y367905D01*
D02*
G37*
G36*
X86600Y355194D02*
X85256Y355017D01*
X84003Y354498D01*
X82927Y353673D01*
X82102Y352597D01*
X81583Y351344D01*
X81406Y350000D01*
X81583Y348656D01*
X82102Y347403D01*
X82927Y346327D01*
X84003Y345502D01*
X85256Y344983D01*
X86600Y344806D01*
X87944Y344983D01*
X89197Y345502D01*
X90273Y346327D01*
X91098Y347403D01*
X91617Y348656D01*
X91794Y350000D01*
X91617Y351344D01*
X91098Y352597D01*
X90273Y353673D01*
X89197Y354498D01*
X87944Y355017D01*
X86600Y355194D01*
D02*
G37*
G36*
X68843Y349605D02*
X45158D01*
Y333794D01*
X68843D01*
Y349605D01*
D02*
G37*
G36*
X22000Y338996D02*
X20707Y338825D01*
X19502Y338326D01*
X18468Y337532D01*
X17674Y336498D01*
X17175Y335293D01*
X17005Y334000D01*
X17175Y332707D01*
X17674Y331502D01*
X18468Y330468D01*
X19502Y329674D01*
X20707Y329175D01*
X22000Y329005D01*
X23293Y329175D01*
X24498Y329674D01*
X25532Y330468D01*
X26326Y331502D01*
X26825Y332707D01*
X26996Y334000D01*
X26825Y335293D01*
X26326Y336498D01*
X25532Y337532D01*
X24498Y338326D01*
X23293Y338825D01*
X22000Y338996D01*
D02*
G37*
G36*
X68843Y331405D02*
X45158D01*
Y315595D01*
X68843D01*
Y331405D01*
D02*
G37*
G36*
X26953Y309953D02*
X17047D01*
Y300047D01*
X19936D01*
X20036Y299547D01*
X19502Y299326D01*
X18468Y298532D01*
X17674Y297498D01*
X17175Y296293D01*
X17005Y295000D01*
X17175Y293707D01*
X17674Y292502D01*
X18468Y291468D01*
X19502Y290674D01*
X20707Y290175D01*
X22000Y290004D01*
X23293Y290175D01*
X24498Y290674D01*
X25532Y291468D01*
X26326Y292502D01*
X26825Y293707D01*
X26996Y295000D01*
X26825Y296293D01*
X26326Y297498D01*
X25532Y298532D01*
X24498Y299326D01*
X23964Y299547D01*
X24064Y300047D01*
X26953D01*
Y309953D01*
D02*
G37*
G36*
X22000Y264996D02*
X20707Y264825D01*
X19502Y264326D01*
X18468Y263532D01*
X17674Y262498D01*
X17175Y261293D01*
X17005Y260000D01*
X17175Y258707D01*
X17674Y257502D01*
X18468Y256468D01*
X19502Y255674D01*
X20476Y255271D01*
Y254729D01*
X19502Y254326D01*
X18468Y253532D01*
X17674Y252498D01*
X17175Y251293D01*
X17005Y250000D01*
X17175Y248707D01*
X17674Y247502D01*
X18468Y246468D01*
X19502Y245674D01*
X20476Y245271D01*
Y244729D01*
X19502Y244326D01*
X18468Y243532D01*
X17674Y242498D01*
X17175Y241293D01*
X17005Y240000D01*
X17175Y238707D01*
X17674Y237502D01*
X18468Y236468D01*
X19502Y235674D01*
X20476Y235271D01*
Y234729D01*
X19502Y234326D01*
X18468Y233532D01*
X17674Y232498D01*
X17175Y231293D01*
X17005Y230000D01*
X17175Y228707D01*
X17674Y227502D01*
X18468Y226468D01*
X19502Y225674D01*
X20476Y225271D01*
Y224729D01*
X19502Y224326D01*
X18468Y223532D01*
X17674Y222498D01*
X17175Y221293D01*
X17005Y220000D01*
X17175Y218707D01*
X17674Y217502D01*
X18468Y216468D01*
X19502Y215674D01*
X20707Y215175D01*
X22000Y215004D01*
X23293Y215175D01*
X24498Y215674D01*
X25532Y216468D01*
X26326Y217502D01*
X26825Y218707D01*
X26996Y220000D01*
X26825Y221293D01*
X26326Y222498D01*
X25532Y223532D01*
X24498Y224326D01*
X23524Y224729D01*
Y225271D01*
X24498Y225674D01*
X25532Y226468D01*
X26326Y227502D01*
X26825Y228707D01*
X26996Y230000D01*
X26825Y231293D01*
X26326Y232498D01*
X25532Y233532D01*
X24498Y234326D01*
X23524Y234729D01*
Y235271D01*
X24498Y235674D01*
X25532Y236468D01*
X26326Y237502D01*
X26825Y238707D01*
X26996Y240000D01*
X26825Y241293D01*
X26326Y242498D01*
X25532Y243532D01*
X24498Y244326D01*
X23524Y244729D01*
Y245271D01*
X24498Y245674D01*
X25532Y246468D01*
X26326Y247502D01*
X26825Y248707D01*
X26996Y250000D01*
X26825Y251293D01*
X26326Y252498D01*
X25532Y253532D01*
X24498Y254326D01*
X23524Y254729D01*
Y255271D01*
X24498Y255674D01*
X25532Y256468D01*
X26326Y257502D01*
X26825Y258707D01*
X26996Y260000D01*
X26825Y261293D01*
X26326Y262498D01*
X25532Y263532D01*
X24498Y264326D01*
X23293Y264825D01*
X22000Y264996D01*
D02*
G37*
G36*
X87000Y202709D02*
X86170Y202599D01*
X85396Y202279D01*
X84731Y201769D01*
X84221Y201104D01*
X83901Y200330D01*
X83791Y199500D01*
X83901Y198670D01*
X84221Y197896D01*
X84451Y197596D01*
Y192650D01*
X78018Y186217D01*
X77465Y185390D01*
X77271Y184415D01*
Y183404D01*
X77042Y183104D01*
X76721Y182330D01*
X76612Y181500D01*
X76721Y180670D01*
X77042Y179896D01*
X77552Y179231D01*
X78216Y178721D01*
X78990Y178401D01*
X79821Y178291D01*
X80651Y178401D01*
X81425Y178721D01*
X82089Y179231D01*
X82599Y179896D01*
X82920Y180670D01*
X83029Y181500D01*
X82920Y182330D01*
X82599Y183104D01*
X82389Y183379D01*
X88802Y189792D01*
X89355Y190619D01*
X89549Y191595D01*
Y197596D01*
X89779Y197896D01*
X90099Y198670D01*
X90209Y199500D01*
X90099Y200330D01*
X89779Y201104D01*
X89269Y201769D01*
X88604Y202279D01*
X87830Y202599D01*
X87000Y202709D01*
D02*
G37*
G36*
X22000Y189996D02*
X20707Y189825D01*
X19502Y189326D01*
X18468Y188532D01*
X17674Y187498D01*
X17175Y186293D01*
X17005Y185000D01*
X17175Y183707D01*
X17674Y182502D01*
X18468Y181468D01*
X19502Y180674D01*
X20476Y180271D01*
Y179729D01*
X19502Y179326D01*
X18468Y178532D01*
X17674Y177498D01*
X17175Y176293D01*
X17005Y175000D01*
X17175Y173707D01*
X17674Y172502D01*
X18468Y171468D01*
X19502Y170674D01*
X20476Y170271D01*
Y169729D01*
X19502Y169326D01*
X18468Y168532D01*
X17674Y167498D01*
X17175Y166293D01*
X17005Y165000D01*
X17175Y163707D01*
X17674Y162502D01*
X18468Y161468D01*
X19502Y160674D01*
X20707Y160175D01*
X22000Y160004D01*
X23293Y160175D01*
X24498Y160674D01*
X25532Y161468D01*
X26326Y162502D01*
X26825Y163707D01*
X26996Y165000D01*
X26825Y166293D01*
X26326Y167498D01*
X25532Y168532D01*
X24498Y169326D01*
X23524Y169729D01*
Y170271D01*
X24498Y170674D01*
X25532Y171468D01*
X26326Y172502D01*
X26825Y173707D01*
X26996Y175000D01*
X26825Y176293D01*
X26326Y177498D01*
X25532Y178532D01*
X24498Y179326D01*
X23524Y179729D01*
Y180271D01*
X24498Y180674D01*
X25532Y181468D01*
X26326Y182502D01*
X26825Y183707D01*
X26996Y185000D01*
X26825Y186293D01*
X26326Y187498D01*
X25532Y188532D01*
X24498Y189326D01*
X23293Y189825D01*
X22000Y189996D01*
D02*
G37*
G36*
Y144495D02*
X20707Y144325D01*
X19502Y143826D01*
X18468Y143032D01*
X17674Y141998D01*
X17175Y140793D01*
X17005Y139500D01*
X17175Y138207D01*
X17674Y137002D01*
X18468Y135968D01*
X19502Y135174D01*
X20476Y134771D01*
Y134229D01*
X19502Y133826D01*
X18468Y133032D01*
X17674Y131998D01*
X17175Y130793D01*
X17005Y129500D01*
X17175Y128207D01*
X17674Y127002D01*
X18468Y125968D01*
X19502Y125174D01*
X20476Y124771D01*
Y124229D01*
X19502Y123826D01*
X18468Y123032D01*
X17674Y121998D01*
X17175Y120793D01*
X17005Y119500D01*
X17175Y118207D01*
X17674Y117002D01*
X18468Y115968D01*
X19502Y115174D01*
X20707Y114675D01*
X22000Y114505D01*
X23293Y114675D01*
X24498Y115174D01*
X25532Y115968D01*
X26326Y117002D01*
X26825Y118207D01*
X26996Y119500D01*
X26825Y120793D01*
X26326Y121998D01*
X25532Y123032D01*
X24498Y123826D01*
X23524Y124229D01*
Y124771D01*
X24498Y125174D01*
X25532Y125968D01*
X26326Y127002D01*
X26825Y128207D01*
X26996Y129500D01*
X26825Y130793D01*
X26326Y131998D01*
X25532Y133032D01*
X24498Y133826D01*
X23524Y134229D01*
Y134771D01*
X24498Y135174D01*
X25532Y135968D01*
X26326Y137002D01*
X26825Y138207D01*
X26996Y139500D01*
X26825Y140793D01*
X26326Y141998D01*
X25532Y143032D01*
X24498Y143826D01*
X23293Y144325D01*
X22000Y144495D01*
D02*
G37*
G36*
X82353Y103453D02*
X72447D01*
Y93547D01*
X82353D01*
Y103453D01*
D02*
G37*
G36*
X96600Y103496D02*
X95307Y103325D01*
X94102Y102826D01*
X93068Y102032D01*
X92274Y100998D01*
X91775Y99793D01*
X91605Y98500D01*
X91775Y97207D01*
X92274Y96002D01*
X93068Y94968D01*
X94102Y94174D01*
X95307Y93675D01*
X96600Y93505D01*
X97893Y93675D01*
X99098Y94174D01*
X100132Y94968D01*
X100926Y96002D01*
X101425Y97207D01*
X101595Y98500D01*
X101425Y99793D01*
X100926Y100998D01*
X100132Y102032D01*
X99098Y102826D01*
X97893Y103325D01*
X96600Y103496D01*
D02*
G37*
G36*
X23575Y90627D02*
X20425D01*
X19081Y90450D01*
X19040Y90433D01*
X16063D01*
Y88207D01*
X15927Y88030D01*
X15408Y86777D01*
X15231Y85433D01*
X15408Y84089D01*
X15927Y82836D01*
X16063Y82659D01*
Y80433D01*
X19040D01*
X19081Y80416D01*
X20425Y80239D01*
X23575D01*
X24919Y80416D01*
X24960Y80433D01*
X27937D01*
Y82659D01*
X28073Y82836D01*
X28592Y84089D01*
X28769Y85433D01*
X28592Y86777D01*
X28073Y88030D01*
X27937Y88207D01*
Y90433D01*
X24960D01*
X24919Y90450D01*
X23575Y90627D01*
D02*
G37*
G36*
X27150Y79559D02*
X16850D01*
Y67685D01*
Y55874D01*
Y44063D01*
X27150D01*
Y55874D01*
Y67685D01*
Y79559D01*
D02*
G37*
G36*
X50500Y54194D02*
X49156Y54017D01*
X47903Y53498D01*
X46827Y52673D01*
X46002Y51597D01*
X45483Y50344D01*
X45306Y49000D01*
X45483Y47656D01*
X46002Y46403D01*
X46827Y45327D01*
X47903Y44502D01*
X49156Y43983D01*
X50500Y43806D01*
X51844Y43983D01*
X53097Y44502D01*
X54173Y45327D01*
X54998Y46403D01*
X55517Y47656D01*
X55694Y49000D01*
X55517Y50344D01*
X54998Y51597D01*
X54173Y52673D01*
X53097Y53498D01*
X51844Y54017D01*
X50500Y54194D01*
D02*
G37*
G36*
X23575Y43383D02*
X20425D01*
X19081Y43206D01*
X19040Y43189D01*
X16063D01*
Y40963D01*
X15927Y40786D01*
X15408Y39533D01*
X15231Y38189D01*
X15408Y36845D01*
X15927Y35592D01*
X16063Y35415D01*
Y33189D01*
X19040D01*
X19081Y33172D01*
X20425Y32995D01*
X23575D01*
X24919Y33172D01*
X24960Y33189D01*
X27937D01*
Y35415D01*
X28073Y35592D01*
X28592Y36845D01*
X28769Y38189D01*
X28592Y39533D01*
X28073Y40786D01*
X27937Y40963D01*
Y43189D01*
X24960D01*
X24919Y43206D01*
X23575Y43383D01*
D02*
G37*
G36*
X42000Y29996D02*
X40707Y29825D01*
X39502Y29326D01*
X38468Y28532D01*
X37674Y27498D01*
X37175Y26293D01*
X37005Y25000D01*
X37175Y23707D01*
X37674Y22502D01*
X38468Y21468D01*
X39502Y20674D01*
X40707Y20175D01*
X42000Y20005D01*
X43293Y20175D01*
X44498Y20674D01*
X45532Y21468D01*
X46326Y22502D01*
X46825Y23707D01*
X46995Y25000D01*
X46825Y26293D01*
X46326Y27498D01*
X45532Y28532D01*
X44498Y29326D01*
X43293Y29825D01*
X42000Y29996D01*
D02*
G37*
G36*
X19685Y30577D02*
X17981Y30443D01*
X16319Y30044D01*
X14740Y29390D01*
X13283Y28497D01*
X11983Y27387D01*
X10873Y26087D01*
X9980Y24630D01*
X9326Y23051D01*
X8927Y21389D01*
X8793Y19685D01*
X8927Y17981D01*
X9326Y16319D01*
X9980Y14740D01*
X10873Y13283D01*
X11983Y11983D01*
X13283Y10873D01*
X14740Y9980D01*
X16319Y9326D01*
X17981Y8927D01*
X19685Y8793D01*
X21389Y8927D01*
X23051Y9326D01*
X24630Y9980D01*
X26087Y10873D01*
X27387Y11983D01*
X28497Y13283D01*
X29390Y14740D01*
X30044Y16319D01*
X30443Y17981D01*
X30577Y19685D01*
X30443Y21389D01*
X30044Y23051D01*
X29390Y24630D01*
X28497Y26087D01*
X27387Y27387D01*
X26087Y28497D01*
X24630Y29390D01*
X23051Y30044D01*
X21389Y30443D01*
X19685Y30577D01*
D02*
G37*
%LPD*%
G36*
X158586Y367112D02*
X158568Y367094D01*
X158552Y367063D01*
X158538Y367020D01*
X158527Y366964D01*
X158517Y366896D01*
X158504Y366723D01*
X158500Y366500D01*
X157500D01*
X157499Y366617D01*
X157473Y366964D01*
X157462Y367020D01*
X157448Y367063D01*
X157432Y367094D01*
X157414Y367112D01*
X157394Y367119D01*
X158607D01*
X158586Y367112D01*
D02*
G37*
G36*
X148586D02*
X148568Y367094D01*
X148552Y367063D01*
X148538Y367020D01*
X148527Y366964D01*
X148517Y366896D01*
X148504Y366723D01*
X148500Y366500D01*
X147500D01*
X147499Y366617D01*
X147473Y366964D01*
X147462Y367020D01*
X147448Y367063D01*
X147432Y367094D01*
X147414Y367112D01*
X147394Y367119D01*
X148607D01*
X148586Y367112D01*
D02*
G37*
G36*
X161001Y363888D02*
X161022Y363620D01*
X161035Y363552D01*
X161050Y363496D01*
X161068Y363451D01*
X161089Y363417D01*
X161112Y363395D01*
X161138Y363383D01*
X159862D01*
X159888Y363395D01*
X159911Y363417D01*
X159932Y363451D01*
X159950Y363496D01*
X159965Y363552D01*
X159978Y363620D01*
X159987Y363698D01*
X159999Y363888D01*
X160000Y364000D01*
X161000D01*
X161001Y363888D01*
D02*
G37*
G36*
X151001D02*
X151022Y363620D01*
X151035Y363552D01*
X151050Y363496D01*
X151068Y363451D01*
X151089Y363417D01*
X151112Y363395D01*
X151138Y363383D01*
X149862D01*
X149888Y363395D01*
X149911Y363417D01*
X149932Y363451D01*
X149950Y363496D01*
X149965Y363552D01*
X149978Y363620D01*
X149987Y363698D01*
X149999Y363888D01*
X150000Y364000D01*
X151000D01*
X151001Y363888D01*
D02*
G37*
G36*
X87765Y198590D02*
X87709Y198517D01*
X87660Y198438D01*
X87618Y198353D01*
X87582Y198263D01*
X87552Y198166D01*
X87529Y198064D01*
X87513Y197956D01*
X87503Y197841D01*
X87500Y197721D01*
X86500D01*
X86497Y197841D01*
X86487Y197956D01*
X86471Y198064D01*
X86448Y198166D01*
X86418Y198263D01*
X86382Y198353D01*
X86340Y198438D01*
X86291Y198517D01*
X86235Y198590D01*
X86173Y198656D01*
X87827D01*
X87765Y198590D01*
D02*
G37*
G36*
X80324Y183159D02*
X80334Y183045D01*
X80350Y182936D01*
X80373Y182834D01*
X80402Y182737D01*
X80438Y182647D01*
X80481Y182562D01*
X80530Y182483D01*
X80585Y182411D01*
X80647Y182343D01*
X78994D01*
X79056Y182411D01*
X79111Y182483D01*
X79160Y182562D01*
X79203Y182647D01*
X79239Y182737D01*
X79268Y182834D01*
X79291Y182936D01*
X79307Y183045D01*
X79317Y183159D01*
X79321Y183279D01*
X80321D01*
X80324Y183159D01*
D02*
G37*
%LPC*%
G36*
X146819Y40756D02*
X138094D01*
Y40756D01*
X130181D01*
Y31388D01*
X129707Y31325D01*
X128502Y30826D01*
X127468Y30032D01*
X126674Y28998D01*
X126175Y27793D01*
X126005Y26500D01*
X126175Y25207D01*
X126674Y24002D01*
X127468Y22968D01*
X128502Y22174D01*
X129707Y21675D01*
X131000Y21505D01*
X132293Y21675D01*
X133498Y22174D01*
X134532Y22968D01*
X135326Y24002D01*
X135729Y24976D01*
X136271D01*
X136674Y24002D01*
X137468Y22968D01*
X138502Y22174D01*
X139707Y21675D01*
X141000Y21505D01*
X142293Y21675D01*
X143498Y22174D01*
X144532Y22968D01*
X145326Y24002D01*
X145729Y24976D01*
X146271D01*
X146674Y24002D01*
X147468Y22968D01*
X148502Y22174D01*
X149707Y21675D01*
X151000Y21505D01*
X152293Y21675D01*
X153498Y22174D01*
X154532Y22968D01*
X155326Y24002D01*
X155825Y25207D01*
X155996Y26500D01*
X155825Y27793D01*
X155326Y28998D01*
X154532Y30032D01*
X153498Y30826D01*
X152293Y31325D01*
X151000Y31495D01*
X149707Y31325D01*
X148502Y30826D01*
X147468Y30032D01*
X146674Y28998D01*
X146271Y28024D01*
X145729D01*
X145326Y28998D01*
X144532Y30032D01*
X144279Y30227D01*
X144812Y31025D01*
X144855Y31244D01*
X146819D01*
Y40756D01*
D02*
G37*
%LPD*%
G36*
X143362Y33258D02*
X143277Y33228D01*
X143202Y33177D01*
X143137Y33106D01*
X143082Y33015D01*
X143037Y32904D01*
X143002Y32772D01*
X142977Y32620D01*
X142962Y32448D01*
X142957Y32256D01*
X141957D01*
X141952Y32448D01*
X141937Y32620D01*
X141912Y32772D01*
X141877Y32904D01*
X141832Y33015D01*
X141777Y33106D01*
X141712Y33177D01*
X141637Y33228D01*
X141552Y33258D01*
X141457Y33268D01*
X143457D01*
X143362Y33258D01*
D02*
G37*
G36*
X135448Y33258D02*
X135363Y33228D01*
X135288Y33177D01*
X135223Y33106D01*
X135168Y33015D01*
X135123Y32904D01*
X135088Y32772D01*
X135063Y32620D01*
X135048Y32448D01*
X135043Y32256D01*
X134043D01*
X134038Y32448D01*
X134023Y32620D01*
X133998Y32772D01*
X133963Y32904D01*
X133918Y33015D01*
X133863Y33106D01*
X133798Y33177D01*
X133723Y33228D01*
X133638Y33258D01*
X133543Y33268D01*
X135543D01*
X135448Y33258D01*
D02*
G37*
G36*
X141508Y30348D02*
X141531Y30165D01*
X141569Y29995D01*
X141624Y29838D01*
X141693Y29694D01*
X141778Y29562D01*
X141878Y29443D01*
X141994Y29338D01*
X142126Y29245D01*
X142272Y29165D01*
X139728D01*
X139874Y29245D01*
X140006Y29338D01*
X140122Y29443D01*
X140222Y29562D01*
X140307Y29694D01*
X140376Y29838D01*
X140430Y29995D01*
X140469Y30165D01*
X140492Y30348D01*
X140500Y30543D01*
X141500D01*
X141508Y30348D01*
D02*
G37*
G36*
X134664Y29457D02*
X134525Y29296D01*
X134401Y29105D01*
X134292Y28885D01*
X134198Y28637D01*
X134119Y28358D01*
X134056Y28051D01*
X134007Y27714D01*
X133956Y26954D01*
X133953Y26529D01*
X131029Y29453D01*
X131454Y29456D01*
X132214Y29507D01*
X132551Y29556D01*
X132858Y29620D01*
X133136Y29698D01*
X133386Y29792D01*
X133605Y29901D01*
X133796Y30025D01*
X133957Y30164D01*
X134664Y29457D01*
D02*
G37*
%LPC*%
G36*
X374016Y384908D02*
X372312Y384773D01*
X370650Y384375D01*
X369071Y383720D01*
X367614Y382827D01*
X366314Y381717D01*
X365204Y380418D01*
X364311Y378961D01*
X363657Y377382D01*
X363258Y375720D01*
X363124Y374016D01*
X363258Y372312D01*
X363657Y370650D01*
X364311Y369071D01*
X365204Y367614D01*
X366314Y366314D01*
X367614Y365204D01*
X369071Y364311D01*
X370650Y363657D01*
X372312Y363258D01*
X374016Y363124D01*
X375720Y363258D01*
X377382Y363657D01*
X378961Y364311D01*
X380418Y365204D01*
X381717Y366314D01*
X382827Y367614D01*
X383720Y369071D01*
X384375Y370650D01*
X384773Y372312D01*
X384908Y374016D01*
X384773Y375720D01*
X384375Y377382D01*
X383720Y378961D01*
X382827Y380418D01*
X381717Y381717D01*
X380418Y382827D01*
X378961Y383720D01*
X377382Y384375D01*
X375720Y384773D01*
X374016Y384908D01*
D02*
G37*
G36*
X273000Y385209D02*
X272170Y385099D01*
X271396Y384779D01*
X270731Y384269D01*
X270221Y383604D01*
X269901Y382830D01*
X269791Y382000D01*
X269901Y381170D01*
X269974Y380993D01*
Y365508D01*
X269901Y365330D01*
X269791Y364500D01*
X269901Y363670D01*
X270221Y362896D01*
X270731Y362231D01*
X271396Y361721D01*
X272170Y361401D01*
X273000Y361291D01*
X273830Y361401D01*
X274604Y361721D01*
X275269Y362231D01*
X275779Y362896D01*
X276099Y363670D01*
X276209Y364500D01*
X276099Y365330D01*
X276026Y365508D01*
Y380993D01*
X276099Y381170D01*
X276209Y382000D01*
X276099Y382830D01*
X275779Y383604D01*
X275269Y384269D01*
X274604Y384779D01*
X273830Y385099D01*
X273000Y385209D01*
D02*
G37*
G36*
X242921Y340421D02*
X229079D01*
Y326579D01*
X242921D01*
Y340421D01*
D02*
G37*
G36*
X256000Y340455D02*
X254643Y340321D01*
X253339Y339925D01*
X252136Y339283D01*
X251082Y338418D01*
X250217Y337364D01*
X249575Y336161D01*
X249179Y334857D01*
X249045Y333500D01*
X249179Y332143D01*
X249575Y330838D01*
X250217Y329636D01*
X251082Y328582D01*
X252136Y327717D01*
X253339Y327075D01*
X254643Y326679D01*
X256000Y326545D01*
X257357Y326679D01*
X258662Y327075D01*
X259864Y327717D01*
X260918Y328582D01*
X261783Y329636D01*
X262425Y330838D01*
X262821Y332143D01*
X262955Y333500D01*
X262821Y334857D01*
X262425Y336161D01*
X261783Y337364D01*
X260918Y338418D01*
X259864Y339283D01*
X258662Y339925D01*
X257357Y340321D01*
X256000Y340455D01*
D02*
G37*
G36*
X367000Y321955D02*
X365643Y321821D01*
X364338Y321425D01*
X363136Y320783D01*
X362082Y319918D01*
X361217Y318864D01*
X360575Y317661D01*
X360179Y316357D01*
X360045Y315000D01*
X360179Y313643D01*
X360575Y312338D01*
X361217Y311136D01*
X362082Y310082D01*
X363136Y309217D01*
X364338Y308575D01*
X365643Y308179D01*
X367000Y308045D01*
X368357Y308179D01*
X369661Y308575D01*
X370864Y309217D01*
X371918Y310082D01*
X372783Y311136D01*
X373425Y312338D01*
X373821Y313643D01*
X373955Y315000D01*
X373821Y316357D01*
X373425Y317661D01*
X372783Y318864D01*
X371918Y319918D01*
X370864Y320783D01*
X369661Y321425D01*
X368357Y321821D01*
X367000Y321955D01*
D02*
G37*
G36*
X184000Y318709D02*
X183170Y318599D01*
X182396Y318279D01*
X181731Y317769D01*
X181221Y317104D01*
X180901Y316330D01*
X180791Y315500D01*
X180901Y314670D01*
X180974Y314493D01*
Y312253D01*
X179860Y311140D01*
X179379Y310513D01*
X179077Y309783D01*
X178974Y309000D01*
Y297007D01*
X178901Y296830D01*
X178791Y296000D01*
X178901Y295170D01*
X179221Y294396D01*
X179731Y293731D01*
X180396Y293221D01*
X180573Y293148D01*
X184360Y289360D01*
X184987Y288879D01*
X185717Y288577D01*
X186500Y288474D01*
X218247D01*
X228474Y278247D01*
Y257507D01*
X228401Y257330D01*
X228291Y256500D01*
X228401Y255670D01*
X228721Y254896D01*
X229231Y254231D01*
X229896Y253721D01*
X230670Y253401D01*
X231500Y253291D01*
X232330Y253401D01*
X233104Y253721D01*
X233769Y254231D01*
X234279Y254896D01*
X234599Y255670D01*
X234709Y256500D01*
X234599Y257330D01*
X234526Y257507D01*
Y279500D01*
X234423Y280283D01*
X234120Y281013D01*
X233640Y281640D01*
X221640Y293640D01*
X221013Y294121D01*
X220283Y294423D01*
X219500Y294526D01*
X187753D01*
X185026Y297253D01*
Y307747D01*
X186140Y308860D01*
X186620Y309487D01*
X186923Y310217D01*
X187026Y311000D01*
X187026Y311000D01*
Y314493D01*
X187099Y314670D01*
X187208Y315500D01*
X187099Y316330D01*
X186779Y317104D01*
X186269Y317769D01*
X185604Y318279D01*
X184830Y318599D01*
X184000Y318709D01*
D02*
G37*
G36*
X187281Y285709D02*
X186451Y285599D01*
X185677Y285279D01*
X185012Y284769D01*
X184502Y284104D01*
X184182Y283330D01*
X184073Y282500D01*
X184182Y281670D01*
X184255Y281492D01*
Y231176D01*
X183670Y231099D01*
X182896Y230779D01*
X182231Y230269D01*
X181721Y229604D01*
X181648Y229427D01*
X180360Y228140D01*
X179879Y227513D01*
X179577Y226783D01*
X179474Y226000D01*
Y215007D01*
X179401Y214830D01*
X179291Y214000D01*
X179401Y213170D01*
X179721Y212396D01*
X180231Y211731D01*
X180896Y211221D01*
X181670Y210901D01*
X182500Y210791D01*
X183330Y210901D01*
X183755Y211077D01*
X184255Y210743D01*
Y210034D01*
X181073Y206852D01*
X180896Y206779D01*
X180231Y206269D01*
X179721Y205604D01*
X179401Y204830D01*
X179291Y204000D01*
X179401Y203170D01*
X179721Y202396D01*
X180231Y201731D01*
X180896Y201221D01*
X181670Y200901D01*
X182500Y200792D01*
X183330Y200901D01*
X184104Y201221D01*
X184769Y201731D01*
X185279Y202396D01*
X185352Y202573D01*
X189421Y206641D01*
X189421Y206642D01*
X189902Y207268D01*
X190204Y207998D01*
X190307Y208781D01*
X190307Y208781D01*
Y281492D01*
X190380Y281670D01*
X190490Y282500D01*
X190380Y283330D01*
X190060Y284104D01*
X189550Y284769D01*
X188885Y285279D01*
X188111Y285599D01*
X187281Y285709D01*
D02*
G37*
G36*
X367000Y182694D02*
X365656Y182517D01*
X364403Y181998D01*
X363327Y181173D01*
X362502Y180097D01*
X361983Y178844D01*
X361806Y177500D01*
X361983Y176156D01*
X362502Y174903D01*
X363327Y173827D01*
X364403Y173002D01*
X365656Y172483D01*
X367000Y172306D01*
X368344Y172483D01*
X369597Y173002D01*
X370673Y173827D01*
X371498Y174903D01*
X372017Y176156D01*
X372194Y177500D01*
X372017Y178844D01*
X371498Y180097D01*
X370673Y181173D01*
X369597Y181998D01*
X368344Y182517D01*
X367000Y182694D01*
D02*
G37*
G36*
X182500Y135208D02*
X181670Y135099D01*
X180896Y134779D01*
X180231Y134269D01*
X179721Y133604D01*
X179401Y132830D01*
X179291Y132000D01*
X179401Y131170D01*
X179474Y130992D01*
Y104007D01*
X179401Y103830D01*
X179291Y103000D01*
X179401Y102170D01*
X179721Y101396D01*
X180231Y100731D01*
X180896Y100221D01*
X181670Y99901D01*
X182500Y99791D01*
X183330Y99901D01*
X184104Y100221D01*
X184769Y100731D01*
X185279Y101396D01*
X185599Y102170D01*
X185708Y103000D01*
X185599Y103830D01*
X185526Y104007D01*
Y130992D01*
X185599Y131170D01*
X185708Y132000D01*
X185599Y132830D01*
X185279Y133604D01*
X184769Y134269D01*
X184104Y134779D01*
X183330Y135099D01*
X182500Y135208D01*
D02*
G37*
G36*
X297921Y54421D02*
X284079D01*
Y40579D01*
X297921D01*
Y54421D01*
D02*
G37*
G36*
X271000Y54455D02*
X269643Y54321D01*
X268338Y53925D01*
X267136Y53283D01*
X266082Y52418D01*
X265217Y51364D01*
X264575Y50161D01*
X264179Y48857D01*
X264045Y47500D01*
X264179Y46143D01*
X264575Y44839D01*
X265217Y43636D01*
X266082Y42582D01*
X267136Y41717D01*
X268338Y41075D01*
X269643Y40679D01*
X271000Y40545D01*
X272357Y40679D01*
X273661Y41075D01*
X274864Y41717D01*
X275918Y42582D01*
X276783Y43636D01*
X277425Y44839D01*
X277821Y46143D01*
X277955Y47500D01*
X277821Y48857D01*
X277425Y50161D01*
X276783Y51364D01*
X275918Y52418D01*
X274864Y53283D01*
X273661Y53925D01*
X272357Y54321D01*
X271000Y54455D01*
D02*
G37*
G36*
X161000Y165334D02*
X160170Y165225D01*
X159396Y164905D01*
X158731Y164395D01*
X158221Y163730D01*
X157901Y162956D01*
X157791Y162126D01*
X157901Y161296D01*
X158221Y160522D01*
X158731Y159857D01*
X159396Y159347D01*
X159573Y159274D01*
X172574Y146273D01*
Y40508D01*
X172501Y40330D01*
X172391Y39500D01*
X172501Y38670D01*
X172821Y37896D01*
X173331Y37231D01*
X173996Y36721D01*
X174770Y36401D01*
X175600Y36291D01*
X176430Y36401D01*
X177204Y36721D01*
X177869Y37231D01*
X178379Y37896D01*
X178699Y38670D01*
X178808Y39500D01*
X178699Y40330D01*
X178626Y40508D01*
Y147526D01*
X178626Y147526D01*
X178574Y147918D01*
X178523Y148309D01*
X178220Y149039D01*
X177740Y149666D01*
X163852Y163553D01*
X163779Y163730D01*
X163269Y164395D01*
X162604Y164905D01*
X161830Y165225D01*
X161000Y165334D01*
D02*
G37*
G36*
X330500Y45209D02*
X329670Y45099D01*
X328896Y44779D01*
X328231Y44269D01*
X327721Y43604D01*
X327648Y43427D01*
X316247Y32026D01*
X220007D01*
X219830Y32099D01*
X219000Y32209D01*
X218170Y32099D01*
X217396Y31779D01*
X216731Y31269D01*
X216221Y30604D01*
X215901Y29830D01*
X215791Y29000D01*
X215901Y28170D01*
X216221Y27396D01*
X216731Y26731D01*
X217396Y26221D01*
X218170Y25901D01*
X219000Y25791D01*
X219830Y25901D01*
X220007Y25974D01*
X317500D01*
X318283Y26077D01*
X319013Y26379D01*
X319640Y26860D01*
X331927Y39148D01*
X332104Y39221D01*
X332769Y39731D01*
X333279Y40396D01*
X333599Y41170D01*
X333709Y42000D01*
X333599Y42830D01*
X333279Y43604D01*
X332769Y44269D01*
X332104Y44779D01*
X331330Y45099D01*
X330500Y45209D01*
D02*
G37*
G36*
X374016Y30577D02*
X372312Y30443D01*
X370650Y30044D01*
X369071Y29390D01*
X367614Y28497D01*
X366314Y27387D01*
X365204Y26087D01*
X364311Y24630D01*
X363657Y23051D01*
X363258Y21389D01*
X363124Y19685D01*
X363258Y17981D01*
X363657Y16319D01*
X364311Y14740D01*
X365204Y13283D01*
X366314Y11983D01*
X367614Y10873D01*
X369071Y9980D01*
X370650Y9326D01*
X372312Y8927D01*
X374016Y8793D01*
X375720Y8927D01*
X377382Y9326D01*
X378961Y9980D01*
X380418Y10873D01*
X381717Y11983D01*
X382827Y13283D01*
X383720Y14740D01*
X384375Y16319D01*
X384773Y17981D01*
X384908Y19685D01*
X384773Y21389D01*
X384375Y23051D01*
X383720Y24630D01*
X382827Y26087D01*
X381717Y27387D01*
X380418Y28497D01*
X378961Y29390D01*
X377382Y30044D01*
X375720Y30443D01*
X374016Y30577D01*
D02*
G37*
%LPD*%
D13*
X126000Y73000D02*
Y109000D01*
X94500Y140500D02*
X126000Y109000D01*
X158000Y366500D02*
X160500Y364000D01*
X158000Y366500D02*
Y369457D01*
X160500Y360500D02*
Y364000D01*
X148000Y366500D02*
Y369457D01*
Y366500D02*
X150500Y364000D01*
Y360500D02*
Y364000D01*
X142457Y32000D02*
Y36000D01*
X141000Y30543D02*
X142457Y32000D01*
X141000Y26500D02*
Y30543D01*
X134543Y30043D02*
Y36000D01*
X131000Y26500D02*
X134543Y30043D01*
X131000Y26500D02*
X131000Y26500D01*
X87000Y191595D02*
Y199500D01*
X79821Y184415D02*
X87000Y191595D01*
X79821Y181500D02*
Y184415D01*
X129500Y73000D02*
Y107763D01*
X96100Y141163D02*
X129500Y107763D01*
X109500Y313737D02*
X129263Y333500D01*
X107900Y314400D02*
X128600Y335100D01*
X129263Y333500D02*
X151500D01*
X128600Y335100D02*
X143100D01*
X107900Y169682D02*
Y314400D01*
X89718Y151500D02*
X107900Y169682D01*
X81000Y151500D02*
X89718D01*
X109500Y169019D02*
Y313737D01*
X88442Y147961D02*
X109500Y169019D01*
X80961Y147961D02*
X88442D01*
X155500Y337500D02*
Y346000D01*
X151500Y333500D02*
X155500Y337500D01*
X145500D02*
Y346000D01*
X143100Y335100D02*
X145500Y337500D01*
X96100Y142100D02*
X98024Y144024D01*
X96100Y141163D02*
Y142100D01*
X94500Y140500D02*
Y144000D01*
X98000Y147500D01*
D19*
X170200Y59000D02*
D03*
X163800D02*
D03*
X166300Y352500D02*
D03*
X172700D02*
D03*
X121000Y93500D02*
D03*
X114600D02*
D03*
X172850Y370500D02*
D03*
X166450D02*
D03*
D66*
X103405Y110500D02*
X111906Y102000D01*
X91905Y122000D02*
X103405Y110500D01*
X108076Y115171D01*
Y120539D01*
X120000Y97500D02*
X121000Y96500D01*
X115500Y102000D02*
X120000Y97500D01*
X219000Y29000D02*
X317500D01*
X330500Y42000D01*
X219000Y19000D02*
X320000D01*
X345500Y44500D01*
X206000Y15000D02*
X223300D01*
X223400Y15100D02*
X246100D01*
X223300Y15000D02*
X223400Y15100D01*
X143043Y376543D02*
X148000D01*
X158000D02*
X162957D01*
X127457Y36000D02*
Y40943D01*
X149543Y36000D02*
Y40892D01*
X120405Y131626D02*
X129600Y122431D01*
Y121500D02*
Y122431D01*
X133750Y204250D02*
X133750Y69821D01*
X122000Y58072D02*
X133750Y69821D01*
X122000Y27000D02*
Y58072D01*
X131000Y207000D02*
X133750Y204250D01*
X116000Y21000D02*
X122000Y27000D01*
X190400Y364000D02*
X225500D01*
X156900Y330500D02*
X190400Y364000D01*
X130500Y330500D02*
X156900D01*
X112500Y312500D02*
X130500Y330500D01*
X112500Y312500D02*
X112500Y144905D01*
X111094Y143500D02*
X112500Y144905D01*
X219500Y291500D02*
X231500Y279500D01*
X186500Y291500D02*
X219500D01*
X182000Y296000D02*
X186500Y291500D01*
X133000Y244000D02*
X135500D01*
X131000Y242000D02*
X133000Y244000D01*
X131000Y207000D02*
Y242000D01*
X161000Y162126D02*
X175600Y147526D01*
X106500Y21000D02*
X116000D01*
X231500Y256500D02*
Y279500D01*
X375200Y351000D02*
X386000Y340200D01*
X295500Y351000D02*
X375200D01*
X293000Y353500D02*
X295500Y351000D01*
X386000Y340200D02*
X386000Y70500D01*
X330600Y15100D02*
X386000Y70500D01*
X246100Y15100D02*
X330600D01*
X345500Y44500D02*
Y63500D01*
X182000Y296000D02*
Y309000D01*
X121000Y93500D02*
Y96500D01*
X111906Y102000D02*
X115500D01*
X273000Y364500D02*
Y382000D01*
X293000Y353500D02*
Y358000D01*
X291500Y359500D02*
X293000Y358000D01*
X289000Y359500D02*
X291500D01*
X184000Y311000D02*
Y315500D01*
X182000Y309000D02*
X184000Y311000D01*
X187281Y208781D02*
Y282500D01*
X182500Y226000D02*
X184500Y228000D01*
X182500Y204000D02*
X187281Y208781D01*
X182500Y214000D02*
Y226000D01*
Y103000D02*
Y132000D01*
X175600Y39500D02*
Y147526D01*
D71*
X105500Y15000D02*
X206000D01*
X100500Y20000D02*
X105500Y15000D01*
X121000Y64500D02*
Y93500D01*
X100500Y44000D02*
X121000Y64500D01*
X100500Y20000D02*
Y44000D01*
D72*
X131000Y26500D02*
D03*
X141000D02*
D03*
X151000D02*
D03*
X140500Y360500D02*
D03*
X150500D02*
D03*
X160500D02*
D03*
X22000Y295000D02*
D03*
X42000Y25000D02*
D03*
X22000Y334000D02*
D03*
Y139500D02*
D03*
Y129500D02*
D03*
Y119500D02*
D03*
Y165000D02*
D03*
Y175000D02*
D03*
Y185000D02*
D03*
Y260000D02*
D03*
Y250000D02*
D03*
Y240000D02*
D03*
Y230000D02*
D03*
Y220000D02*
D03*
D73*
X161000Y26500D02*
D03*
X130500Y360500D02*
D03*
X52000Y25000D02*
D03*
D74*
X236000Y333500D02*
D03*
X291000Y47500D02*
D03*
D75*
X256000Y333500D02*
D03*
X271000Y47500D02*
D03*
X367000Y315000D02*
D03*
D76*
X22000Y73622D02*
D03*
Y61811D02*
D03*
Y50000D02*
D03*
D77*
Y38189D02*
D03*
Y85433D02*
D03*
D78*
Y305000D02*
D03*
Y344000D02*
D03*
Y109500D02*
D03*
Y195000D02*
D03*
Y270000D02*
D03*
D79*
X367000Y157500D02*
D03*
Y177500D02*
D03*
X50500Y59000D02*
D03*
Y49000D02*
D03*
X86600Y350000D02*
D03*
X106600D02*
D03*
D80*
X77400Y98500D02*
D03*
D81*
X96600Y98500D02*
D03*
D82*
X367000Y212130D02*
D03*
D83*
Y251500D02*
D03*
Y290870D02*
D03*
D84*
X367000Y335000D02*
D03*
D85*
X19685Y374016D02*
D03*
X374016D02*
D03*
Y19685D02*
D03*
X19685Y19685D02*
D03*
D86*
X57000Y323500D02*
D03*
Y341700D02*
D03*
Y360000D02*
D03*
D87*
X332000Y310500D02*
D03*
X328000D02*
D03*
X324000D02*
D03*
X206000Y69000D02*
D03*
X202000D02*
D03*
X198000D02*
D03*
X194000D02*
D03*
X358657Y102000D02*
D03*
X363657D02*
D03*
X368657D02*
D03*
Y107000D02*
D03*
X363657D02*
D03*
X358657D02*
D03*
X368657Y112000D02*
D03*
X363657D02*
D03*
X358657D02*
D03*
X353500Y363500D02*
D03*
X348500D02*
D03*
X343500D02*
D03*
Y368500D02*
D03*
X348500D02*
D03*
X353500D02*
D03*
Y373500D02*
D03*
X348500D02*
D03*
X343500D02*
D03*
X323500Y363500D02*
D03*
X318500D02*
D03*
X313500D02*
D03*
Y368500D02*
D03*
X318500D02*
D03*
X323500D02*
D03*
Y373500D02*
D03*
X318500D02*
D03*
X313500D02*
D03*
X358657Y97000D02*
D03*
X363657D02*
D03*
X368657D02*
D03*
X358657Y92000D02*
D03*
X363657D02*
D03*
X368657D02*
D03*
Y87000D02*
D03*
X363657D02*
D03*
X358657D02*
D03*
X368657Y67000D02*
D03*
X363657D02*
D03*
X358657D02*
D03*
X200500Y178500D02*
D03*
X195500D02*
D03*
X190500D02*
D03*
X120000Y97500D02*
D03*
X341500Y334500D02*
D03*
X346500Y339500D02*
D03*
X341500D02*
D03*
X336500D02*
D03*
X219000Y19000D02*
D03*
X223300Y15000D02*
D03*
X162957Y376543D02*
D03*
X143043D02*
D03*
X127457Y40943D02*
D03*
X149543Y40892D02*
D03*
X135500Y62000D02*
D03*
X139500D02*
D03*
X115293Y232500D02*
D03*
Y192500D02*
D03*
Y222500D02*
D03*
Y212500D02*
D03*
Y202500D02*
D03*
Y187500D02*
D03*
X135000Y227500D02*
D03*
Y217500D02*
D03*
X87000Y199500D02*
D03*
X79821Y181500D02*
D03*
X46372Y147500D02*
D03*
X55000Y222500D02*
D03*
X50000Y227500D02*
D03*
X45500Y232500D02*
D03*
X68500Y98338D02*
D03*
Y93338D02*
D03*
Y88338D02*
D03*
X55000Y107826D02*
D03*
Y102826D02*
D03*
Y97826D02*
D03*
X62500Y301160D02*
D03*
X57500D02*
D03*
X52500D02*
D03*
Y306160D02*
D03*
X57500D02*
D03*
X62500D02*
D03*
Y311160D02*
D03*
X57500D02*
D03*
X52500D02*
D03*
X96171Y297000D02*
D03*
X91171D02*
D03*
X86171D02*
D03*
Y302000D02*
D03*
X91171D02*
D03*
X96171D02*
D03*
Y307000D02*
D03*
X91171D02*
D03*
X86171D02*
D03*
X52500Y186350D02*
D03*
X47500D02*
D03*
X42500D02*
D03*
Y191350D02*
D03*
X47500D02*
D03*
X52500D02*
D03*
Y196350D02*
D03*
X47500D02*
D03*
X42500D02*
D03*
X79851Y9500D02*
D03*
X74851D02*
D03*
X69851D02*
D03*
Y14500D02*
D03*
X74851D02*
D03*
X79851D02*
D03*
Y19500D02*
D03*
X74851D02*
D03*
X69851D02*
D03*
X182992Y347000D02*
D03*
Y342000D02*
D03*
X193000Y347000D02*
D03*
Y342000D02*
D03*
Y337000D02*
D03*
X183000D02*
D03*
X188000D02*
D03*
Y342000D02*
D03*
Y347000D02*
D03*
X120000Y280370D02*
D03*
X125000D02*
D03*
X130000D02*
D03*
Y275370D02*
D03*
X125000D02*
D03*
X120000D02*
D03*
Y270370D02*
D03*
X125000D02*
D03*
X130000D02*
D03*
X146500Y280370D02*
D03*
X151500D02*
D03*
X156500D02*
D03*
Y275370D02*
D03*
X151500D02*
D03*
X146500D02*
D03*
Y270370D02*
D03*
X151500D02*
D03*
X156500D02*
D03*
X346500Y334500D02*
D03*
Y344500D02*
D03*
X341500D02*
D03*
X336500D02*
D03*
X331500D02*
D03*
X328500Y373500D02*
D03*
X333500D02*
D03*
X338500D02*
D03*
Y368500D02*
D03*
X333500D02*
D03*
X328500D02*
D03*
Y363500D02*
D03*
X333500D02*
D03*
X338500D02*
D03*
X190500Y193500D02*
D03*
X195500D02*
D03*
X200500D02*
D03*
Y188500D02*
D03*
X195500D02*
D03*
X190500D02*
D03*
Y183500D02*
D03*
X195500D02*
D03*
X200500D02*
D03*
X358657Y82000D02*
D03*
X363657D02*
D03*
X368657D02*
D03*
Y77000D02*
D03*
X363657D02*
D03*
X358657D02*
D03*
Y72000D02*
D03*
X363657D02*
D03*
X368657D02*
D03*
X336000Y59500D02*
D03*
X331000D02*
D03*
X326000D02*
D03*
Y64500D02*
D03*
X331000D02*
D03*
X336000D02*
D03*
Y69500D02*
D03*
X331000D02*
D03*
X326000D02*
D03*
X130000Y156329D02*
D03*
X98000Y152500D02*
D03*
X120405Y131626D02*
D03*
X108076Y120539D02*
D03*
X108804Y62000D02*
D03*
X106500Y65500D02*
D03*
X139500Y66000D02*
D03*
Y70000D02*
D03*
Y74000D02*
D03*
Y78000D02*
D03*
X92000Y236000D02*
D03*
X46500Y255500D02*
D03*
X101500D02*
D03*
X79000Y172000D02*
D03*
X65787Y140087D02*
D03*
X55000Y82000D02*
D03*
X83555Y54004D02*
D03*
X110392Y65500D02*
D03*
X97000Y20000D02*
D03*
X70500Y25494D02*
D03*
X79500D02*
D03*
Y59400D02*
D03*
X70500D02*
D03*
X130000Y136029D02*
D03*
X127400Y167500D02*
D03*
Y157803D02*
D03*
X98400Y109000D02*
D03*
X75600D02*
D03*
X67600Y122000D02*
D03*
X51000Y132187D02*
D03*
X57836Y140087D02*
D03*
X51436Y166500D02*
D03*
X68500Y215000D02*
D03*
X103400Y314000D02*
D03*
X192000Y255000D02*
D03*
X200000D02*
D03*
X214000Y88941D02*
D03*
Y77000D02*
D03*
Y81000D02*
D03*
Y85000D02*
D03*
X185625Y77000D02*
D03*
X190000Y73000D02*
D03*
X194000D02*
D03*
X198000D02*
D03*
X202000D02*
D03*
X206000D02*
D03*
X210000D02*
D03*
Y85000D02*
D03*
Y89000D02*
D03*
Y93000D02*
D03*
X206000D02*
D03*
Y89000D02*
D03*
Y85000D02*
D03*
X210000Y81000D02*
D03*
X206000D02*
D03*
X210000Y77000D02*
D03*
X206000D02*
D03*
X202000D02*
D03*
X198000D02*
D03*
X194000D02*
D03*
X190000D02*
D03*
X325644Y93250D02*
D03*
X329644D02*
D03*
X333644D02*
D03*
X337644D02*
D03*
X341644D02*
D03*
Y117250D02*
D03*
X337644D02*
D03*
X333644D02*
D03*
X329644D02*
D03*
Y113250D02*
D03*
X333644D02*
D03*
X337644D02*
D03*
X341644D02*
D03*
Y109250D02*
D03*
Y105250D02*
D03*
Y101250D02*
D03*
Y97250D02*
D03*
X337644D02*
D03*
X333644D02*
D03*
X329644D02*
D03*
X325644D02*
D03*
X332000Y286500D02*
D03*
X328000D02*
D03*
X324000D02*
D03*
X316000Y302500D02*
D03*
X320000Y286500D02*
D03*
Y306500D02*
D03*
Y302500D02*
D03*
X316000Y290500D02*
D03*
Y294500D02*
D03*
Y298500D02*
D03*
X320000D02*
D03*
Y290500D02*
D03*
Y294500D02*
D03*
X324000Y306500D02*
D03*
X328000D02*
D03*
X332000D02*
D03*
X336000D02*
D03*
Y302500D02*
D03*
X332000D02*
D03*
X328000D02*
D03*
X324000D02*
D03*
X129500Y73000D02*
D03*
X148573Y197500D02*
D03*
Y187500D02*
D03*
X150351Y124000D02*
D03*
Y117000D02*
D03*
X150651Y93000D02*
D03*
X161000Y162126D02*
D03*
X126000Y73000D02*
D03*
X148573Y207500D02*
D03*
X145400Y240000D02*
D03*
X138300Y311500D02*
D03*
X134800Y301000D02*
D03*
X152851Y235000D02*
D03*
X156351Y224000D02*
D03*
X149651Y291000D02*
D03*
X150651Y204000D02*
D03*
X170500Y21000D02*
D03*
X186651Y19000D02*
D03*
X182000Y44500D02*
D03*
X367000Y141000D02*
D03*
X198500Y281500D02*
D03*
X202500Y285500D02*
D03*
X206500D02*
D03*
Y273500D02*
D03*
X210500Y277500D02*
D03*
X202500Y281500D02*
D03*
X206500Y277500D02*
D03*
X192000Y263000D02*
D03*
X196000D02*
D03*
X200000Y267000D02*
D03*
X196000D02*
D03*
X192000D02*
D03*
X200000Y263000D02*
D03*
X192000Y259000D02*
D03*
X210500Y281500D02*
D03*
X196000Y259000D02*
D03*
X206500Y281500D02*
D03*
X200000Y259000D02*
D03*
X196000Y255000D02*
D03*
X345500Y63500D02*
D03*
X231500Y256500D02*
D03*
X208000Y196500D02*
D03*
Y182500D02*
D03*
X129600Y121500D02*
D03*
X273000Y382000D02*
D03*
Y364500D02*
D03*
X246100Y15100D02*
D03*
X293000Y353500D02*
D03*
X289000Y359500D02*
D03*
X91905Y122000D02*
D03*
X182000Y296000D02*
D03*
X184000Y315500D02*
D03*
X187281Y282500D02*
D03*
X184500Y228000D02*
D03*
X182500Y204000D02*
D03*
Y214000D02*
D03*
Y132000D02*
D03*
Y103000D02*
D03*
X330500Y42000D02*
D03*
X219000Y29000D02*
D03*
X175600Y39500D02*
D03*
X225500Y364000D02*
D03*
X116000Y21000D02*
D03*
X106500D02*
D03*
X135500Y244000D02*
D03*
X111094Y143500D02*
D03*
X98024Y144024D02*
D03*
X98000Y147500D02*
D03*
X155500Y346000D02*
D03*
X145500D02*
D03*
X80961Y147961D02*
D03*
X81000Y151500D02*
D03*
D88*
X127457Y36000D02*
D03*
X134543D02*
D03*
X149543Y36000D02*
D03*
X142457D02*
D03*
D89*
X148000Y376543D02*
D03*
Y369457D02*
D03*
X158000Y376543D02*
D03*
Y369457D02*
D03*
M02*
