G04*
G04 #@! TF.GenerationSoftware,Altium Limited,Altium Designer,18.1.9 (240)*
G04*
G04 Layer_Color=16711935*
%FSLAX25Y25*%
%MOIN*%
G70*
G01*
G75*
%ADD35R,0.04500X0.04000*%
%ADD51C,0.06706*%
%ADD52R,0.06706X0.06706*%
%ADD53R,0.10642X0.10642*%
%ADD54C,0.10642*%
%ADD55R,0.07099X0.08674*%
%ADD56R,0.08674X0.06800*%
%ADD57R,0.06706X0.06706*%
%ADD58C,0.07099*%
%ADD59R,0.06706X0.06706*%
%ADD60C,0.06706*%
%ADD61R,0.34265X0.12611*%
%ADD62R,0.34265X0.12611*%
%ADD63R,0.10642X0.10642*%
%ADD64C,0.18517*%
%ADD65R,0.20485X0.12611*%
%ADD90R,0.05524X0.06312*%
%ADD91R,0.06312X0.05524*%
D35*
X170200Y59000D02*
D03*
X163800D02*
D03*
X166300Y352500D02*
D03*
X172700D02*
D03*
X121000Y93500D02*
D03*
X114600D02*
D03*
X172850Y370500D02*
D03*
X166450D02*
D03*
D51*
X131000Y26500D02*
D03*
X141000D02*
D03*
X151000D02*
D03*
X140500Y360500D02*
D03*
X150500D02*
D03*
X160500D02*
D03*
X22000Y295000D02*
D03*
X42000Y25000D02*
D03*
X22000Y334000D02*
D03*
Y139500D02*
D03*
Y129500D02*
D03*
Y119500D02*
D03*
Y165000D02*
D03*
Y175000D02*
D03*
Y185000D02*
D03*
Y260000D02*
D03*
Y250000D02*
D03*
Y240000D02*
D03*
Y230000D02*
D03*
Y220000D02*
D03*
D52*
X161000Y26500D02*
D03*
X130500Y360500D02*
D03*
X52000Y25000D02*
D03*
D53*
X236000Y333500D02*
D03*
X291000Y47500D02*
D03*
D54*
X256000Y333500D02*
D03*
X271000Y47500D02*
D03*
X367000Y315000D02*
D03*
D55*
X22000Y73622D02*
D03*
Y61811D02*
D03*
Y50000D02*
D03*
D56*
Y38189D02*
D03*
Y85433D02*
D03*
D57*
Y305000D02*
D03*
Y344000D02*
D03*
Y109500D02*
D03*
Y195000D02*
D03*
Y270000D02*
D03*
D58*
X367000Y157500D02*
D03*
Y177500D02*
D03*
X50500Y59000D02*
D03*
Y49000D02*
D03*
X86600Y350000D02*
D03*
X106600D02*
D03*
D59*
X77400Y98500D02*
D03*
D60*
X96600Y98500D02*
D03*
D61*
X367000Y212130D02*
D03*
D62*
Y251500D02*
D03*
Y290870D02*
D03*
D63*
X367000Y335000D02*
D03*
D64*
X19685Y374016D02*
D03*
X374016D02*
D03*
Y19685D02*
D03*
X19685Y19685D02*
D03*
D65*
X57000Y323500D02*
D03*
Y341700D02*
D03*
Y360000D02*
D03*
D90*
X127457Y36000D02*
D03*
X134543D02*
D03*
X149543Y36000D02*
D03*
X142457D02*
D03*
D91*
X148000Y376543D02*
D03*
Y369457D02*
D03*
X158000Y376543D02*
D03*
Y369457D02*
D03*
M02*
