G04*
G04 #@! TF.GenerationSoftware,Altium Limited,Altium Designer,18.1.9 (240)*
G04*
G04 Layer_Color=32896*
%FSLAX25Y25*%
%MOIN*%
G70*
G01*
G75*
%ADD10C,0.00700*%
%ADD16C,0.00787*%
%ADD18C,0.00800*%
%ADD66C,0.02000*%
D10*
X173000Y56600D02*
Y61500D01*
X161000Y56500D02*
Y61500D01*
Y56500D02*
X164900D01*
X169100D02*
X173000D01*
X161000Y61500D02*
X164950D01*
X169050D02*
X173000D01*
X163500Y350000D02*
Y354900D01*
X175500Y350000D02*
Y355000D01*
X171600D02*
X175500D01*
X163500D02*
X167400D01*
X171550Y350000D02*
X175500D01*
X163500D02*
X167450D01*
X111800Y91000D02*
X115750D01*
X119850D02*
X123800D01*
X111800Y96000D02*
X115700D01*
X119900D02*
X123800D01*
Y91000D02*
Y96000D01*
X111800Y91000D02*
Y95900D01*
X163650Y368000D02*
X167600D01*
X171700D02*
X175650D01*
X163650Y373000D02*
X167550D01*
X171750D02*
X175650D01*
Y368000D02*
Y373000D01*
X163650Y368000D02*
Y372900D01*
D16*
X131000Y33638D02*
Y38362D01*
X146000Y33638D02*
Y38362D01*
X145638Y373000D02*
X150362D01*
X155638D02*
X160362D01*
D18*
X226000Y316039D02*
X265900D01*
X226000D02*
Y345939D01*
X265900D01*
Y316039D02*
Y345939D01*
X261100Y64961D02*
X301000D01*
Y35061D02*
Y64961D01*
X261100Y35061D02*
X301000D01*
X261100D02*
Y64961D01*
X349539Y305100D02*
X379439D01*
Y345000D01*
X349539D02*
X379439D01*
X349539Y305100D02*
Y345000D01*
X381500Y334999D02*
X384166D01*
X381500Y314499D02*
X384166D01*
X382833Y315832D02*
Y313166D01*
X242500Y354500D02*
Y358499D01*
X241167Y357166D01*
X239834Y358499D01*
Y354500D01*
X236502Y358499D02*
X237835D01*
X238501Y357832D01*
Y355166D01*
X237835Y354500D01*
X236502D01*
X235836Y355166D01*
Y357832D01*
X236502Y358499D01*
X234503D02*
X231837D01*
X233170D01*
Y354500D01*
X228504Y358499D02*
X229837D01*
X230504Y357832D01*
Y355166D01*
X229837Y354500D01*
X228504D01*
X227838Y355166D01*
Y357832D01*
X228504Y358499D01*
X226505Y354500D02*
Y358499D01*
X224506D01*
X223839Y357832D01*
Y356499D01*
X224506Y355833D01*
X226505D01*
X225172D02*
X223839Y354500D01*
X220507D02*
Y358499D01*
X222506Y356499D01*
X219841D01*
X271500Y354500D02*
Y358499D01*
X270167Y357166D01*
X268834Y358499D01*
Y354500D01*
X265502Y358499D02*
X266835D01*
X267501Y357832D01*
Y355166D01*
X266835Y354500D01*
X265502D01*
X264836Y355166D01*
Y357832D01*
X265502Y358499D01*
X263503D02*
X260837D01*
X262170D01*
Y354500D01*
X257505Y358499D02*
X258837D01*
X259504Y357832D01*
Y355166D01*
X258837Y354500D01*
X257505D01*
X256838Y355166D01*
Y357832D01*
X257505Y358499D01*
X255505Y354500D02*
Y358499D01*
X253506D01*
X252839Y357832D01*
Y356499D01*
X253506Y355833D01*
X255505D01*
X254172D02*
X252839Y354500D01*
X251506Y357832D02*
X250840Y358499D01*
X249507D01*
X248841Y357832D01*
Y357166D01*
X249507Y356499D01*
X250173D01*
X249507D01*
X248841Y355833D01*
Y355166D01*
X249507Y354500D01*
X250840D01*
X251506Y355166D01*
X278500Y24000D02*
Y27999D01*
X277167Y26666D01*
X275834Y27999D01*
Y24000D01*
X272502Y27999D02*
X273835D01*
X274501Y27332D01*
Y24667D01*
X273835Y24000D01*
X272502D01*
X271835Y24667D01*
Y27332D01*
X272502Y27999D01*
X270503D02*
X267837D01*
X269170D01*
Y24000D01*
X264505Y27999D02*
X265837D01*
X266504Y27332D01*
Y24667D01*
X265837Y24000D01*
X264505D01*
X263838Y24667D01*
Y27332D01*
X264505Y27999D01*
X262505Y24000D02*
Y27999D01*
X260506D01*
X259839Y27332D01*
Y25999D01*
X260506Y25333D01*
X262505D01*
X261172D02*
X259839Y24000D01*
X258506D02*
X257173D01*
X257840D01*
Y27999D01*
X258506Y27332D01*
X306000Y24000D02*
Y27999D01*
X304667Y26666D01*
X303334Y27999D01*
Y24000D01*
X300002Y27999D02*
X301335D01*
X302001Y27332D01*
Y24667D01*
X301335Y24000D01*
X300002D01*
X299336Y24667D01*
Y27332D01*
X300002Y27999D01*
X298003D02*
X295337D01*
X296670D01*
Y24000D01*
X292004Y27999D02*
X293337D01*
X294004Y27332D01*
Y24667D01*
X293337Y24000D01*
X292004D01*
X291338Y24667D01*
Y27332D01*
X292004Y27999D01*
X290005Y24000D02*
Y27999D01*
X288006D01*
X287339Y27332D01*
Y25999D01*
X288006Y25333D01*
X290005D01*
X288672D02*
X287339Y24000D01*
X283341D02*
X286006D01*
X283341Y26666D01*
Y27332D01*
X284007Y27999D01*
X285340D01*
X286006Y27332D01*
X172600Y64600D02*
Y68599D01*
X170601D01*
X169934Y67932D01*
Y66599D01*
X170601Y65933D01*
X172600D01*
X171267D02*
X169934Y64600D01*
X165936D02*
X168601D01*
X165936Y67266D01*
Y67932D01*
X166602Y68599D01*
X167935D01*
X168601Y67932D01*
X164603Y68599D02*
X161937D01*
Y67932D01*
X164603Y65266D01*
Y64600D01*
X175000Y358200D02*
Y362199D01*
X173001D01*
X172334Y361532D01*
Y360199D01*
X173001Y359533D01*
X175000D01*
X173667D02*
X172334Y358200D01*
X168335D02*
X171001D01*
X168335Y360866D01*
Y361532D01*
X169002Y362199D01*
X170335D01*
X171001Y361532D01*
X164337Y362199D02*
X165670Y361532D01*
X167003Y360199D01*
Y358866D01*
X166336Y358200D01*
X165003D01*
X164337Y358866D01*
Y359533D01*
X165003Y360199D01*
X167003D01*
X162334Y385332D02*
X163001Y385999D01*
X164333D01*
X165000Y385332D01*
Y382666D01*
X164333Y382000D01*
X163001D01*
X162334Y382666D01*
X159002Y382000D02*
Y385999D01*
X161001Y383999D01*
X158335D01*
X157003Y385332D02*
X156336Y385999D01*
X155003D01*
X154337Y385332D01*
Y382666D01*
X155003Y382000D01*
X156336D01*
X157003Y382666D01*
Y385332D01*
X148834D02*
X149501Y385999D01*
X150833D01*
X151500Y385332D01*
Y382666D01*
X150833Y382000D01*
X149501D01*
X148834Y382666D01*
X147501Y385332D02*
X146835Y385999D01*
X145502D01*
X144835Y385332D01*
Y384666D01*
X145502Y383999D01*
X146168D01*
X145502D01*
X144835Y383333D01*
Y382666D01*
X145502Y382000D01*
X146835D01*
X147501Y382666D01*
X143503D02*
X142836Y382000D01*
X141503D01*
X140837Y382666D01*
Y385332D01*
X141503Y385999D01*
X142836D01*
X143503Y385332D01*
Y384666D01*
X142836Y383999D01*
X140837D01*
X133834Y46832D02*
X134501Y47499D01*
X135834D01*
X136500Y46832D01*
Y44166D01*
X135834Y43500D01*
X134501D01*
X133834Y44166D01*
X132501Y46832D02*
X131835Y47499D01*
X130502D01*
X129835Y46832D01*
Y46166D01*
X130502Y45499D01*
X131168D01*
X130502D01*
X129835Y44833D01*
Y44166D01*
X130502Y43500D01*
X131835D01*
X132501Y44166D01*
X128503Y46832D02*
X127836Y47499D01*
X126503D01*
X125837Y46832D01*
Y46166D01*
X126503Y45499D01*
X125837Y44833D01*
Y44166D01*
X126503Y43500D01*
X127836D01*
X128503Y44166D01*
Y44833D01*
X127836Y45499D01*
X128503Y46166D01*
Y46832D01*
X127836Y45499D02*
X126503D01*
X149334Y46832D02*
X150001Y47499D01*
X151333D01*
X152000Y46832D01*
Y44166D01*
X151333Y43500D01*
X150001D01*
X149334Y44166D01*
X148001Y46832D02*
X147335Y47499D01*
X146002D01*
X145335Y46832D01*
Y46166D01*
X146002Y45499D01*
X146668D01*
X146002D01*
X145335Y44833D01*
Y44166D01*
X146002Y43500D01*
X147335D01*
X148001Y44166D01*
X144003Y47499D02*
X141337D01*
Y46832D01*
X144003Y44166D01*
Y43500D01*
X175200Y376200D02*
Y380199D01*
X173201D01*
X172534Y379532D01*
Y378199D01*
X173201Y377533D01*
X175200D01*
X173867D02*
X172534Y376200D01*
X169202D02*
Y380199D01*
X171201Y378199D01*
X168535D01*
X123500Y99000D02*
Y102999D01*
X121501D01*
X120834Y102332D01*
Y100999D01*
X121501Y100333D01*
X123500D01*
X122167D02*
X120834Y99000D01*
X119501Y102332D02*
X118835Y102999D01*
X117502D01*
X116835Y102332D01*
Y101666D01*
X117502Y100999D01*
X118168D01*
X117502D01*
X116835Y100333D01*
Y99666D01*
X117502Y99000D01*
X118835D01*
X119501Y99666D01*
X277000Y331000D02*
Y334999D01*
X275001D01*
X274334Y334332D01*
Y332999D01*
X275001Y332333D01*
X277000D01*
X273001Y334332D02*
X272335Y334999D01*
X271002D01*
X270336Y334332D01*
Y333666D01*
X271002Y332999D01*
X270336Y332333D01*
Y331666D01*
X271002Y331000D01*
X272335D01*
X273001Y331666D01*
Y332333D01*
X272335Y332999D01*
X273001Y333666D01*
Y334332D01*
X272335Y332999D02*
X271002D01*
X268200Y68200D02*
Y72199D01*
X266201D01*
X265534Y71532D01*
Y70199D01*
X266201Y69533D01*
X268200D01*
X264201Y72199D02*
X261536D01*
Y71532D01*
X264201Y68866D01*
Y68200D01*
X379000Y348200D02*
Y352199D01*
X377001D01*
X376334Y351532D01*
Y350199D01*
X377001Y349533D01*
X379000D01*
X373002Y348200D02*
Y352199D01*
X375001Y350199D01*
X372336D01*
D66*
X246100Y342200D02*
X248200Y340100D01*
X244000D02*
X246100Y342200D01*
Y333500D02*
Y342200D01*
X278800Y40900D02*
X280900Y38800D01*
X283000Y40900D01*
X280900Y38800D02*
Y47500D01*
X367000Y324900D02*
X375700D01*
X373600Y327000D02*
X375700Y324900D01*
X373600Y322800D02*
X375700Y324900D01*
M02*
