G04*
G04 #@! TF.GenerationSoftware,Altium Limited,Altium Designer,18.1.9 (240)*
G04*
G04 Layer_Color=255*
%FSLAX25Y25*%
%MOIN*%
G70*
G01*
G75*
%ADD19R,0.03700X0.03200*%
%ADD72C,0.05906*%
%ADD73R,0.05906X0.05906*%
%ADD74R,0.09843X0.09843*%
%ADD75C,0.09843*%
%ADD76R,0.06299X0.07874*%
%ADD77R,0.07874X0.06000*%
%ADD78R,0.05906X0.05906*%
%ADD79C,0.06299*%
%ADD80R,0.05906X0.05906*%
%ADD81C,0.05906*%
%ADD82R,0.33465X0.11811*%
%ADD83R,0.33465X0.11811*%
%ADD84R,0.09843X0.09843*%
%ADD85C,0.17717*%
%ADD86R,0.19685X0.11811*%
%ADD88R,0.04724X0.05512*%
%ADD89R,0.05512X0.04724*%
D19*
X170200Y59000D02*
D03*
X163800D02*
D03*
X166300Y352500D02*
D03*
X172700D02*
D03*
X121000Y93500D02*
D03*
X114600D02*
D03*
X172850Y370500D02*
D03*
X166450D02*
D03*
D72*
X131000Y26500D02*
D03*
X141000D02*
D03*
X151000D02*
D03*
X140500Y360500D02*
D03*
X150500D02*
D03*
X160500D02*
D03*
X22000Y295000D02*
D03*
X42000Y25000D02*
D03*
X22000Y334000D02*
D03*
Y139500D02*
D03*
Y129500D02*
D03*
Y119500D02*
D03*
Y165000D02*
D03*
Y175000D02*
D03*
Y185000D02*
D03*
Y260000D02*
D03*
Y250000D02*
D03*
Y240000D02*
D03*
Y230000D02*
D03*
Y220000D02*
D03*
D73*
X161000Y26500D02*
D03*
X130500Y360500D02*
D03*
X52000Y25000D02*
D03*
D74*
X236000Y333500D02*
D03*
X291000Y47500D02*
D03*
D75*
X256000Y333500D02*
D03*
X271000Y47500D02*
D03*
X367000Y315000D02*
D03*
D76*
X22000Y73622D02*
D03*
Y61811D02*
D03*
Y50000D02*
D03*
D77*
Y38189D02*
D03*
Y85433D02*
D03*
D78*
Y305000D02*
D03*
Y344000D02*
D03*
Y109500D02*
D03*
Y195000D02*
D03*
Y270000D02*
D03*
D79*
X367000Y157500D02*
D03*
Y177500D02*
D03*
X50500Y59000D02*
D03*
Y49000D02*
D03*
X86600Y350000D02*
D03*
X106600D02*
D03*
D80*
X77400Y98500D02*
D03*
D81*
X96600Y98500D02*
D03*
D82*
X367000Y212130D02*
D03*
D83*
Y251500D02*
D03*
Y290870D02*
D03*
D84*
X367000Y335000D02*
D03*
D85*
X19685Y374016D02*
D03*
X374016D02*
D03*
Y19685D02*
D03*
X19685Y19685D02*
D03*
D86*
X57000Y323500D02*
D03*
Y341700D02*
D03*
Y360000D02*
D03*
D88*
X127457Y36000D02*
D03*
X134543D02*
D03*
X149543Y36000D02*
D03*
X142457D02*
D03*
D89*
X148000Y376543D02*
D03*
Y369457D02*
D03*
X158000Y376543D02*
D03*
Y369457D02*
D03*
M02*
