G04*
G04 #@! TF.GenerationSoftware,Altium Limited,Altium Designer,18.1.9 (240)*
G04*
G04 Layer_Color=2752767*
%FSLAX25Y25*%
%MOIN*%
G70*
G01*
G75*
%ADD94C,0.00200*%
%ADD95C,0.00267*%
%ADD96C,0.00133*%
D94*
X130200Y25700D02*
Y27300D01*
X131800D01*
Y25700D01*
X130200D01*
X140200D02*
Y27300D01*
X141800D01*
Y25700D01*
X140200D01*
X150200D02*
Y27300D01*
X151800D01*
Y25700D01*
X150200D01*
X160200D02*
Y27300D01*
X161800D01*
Y25700D01*
X160200D01*
X129700Y359700D02*
Y361300D01*
X131300D01*
Y359700D01*
X129700D01*
X139700D02*
Y361300D01*
X141300D01*
Y359700D01*
X139700D01*
X149700D02*
Y361300D01*
X151300D01*
Y359700D01*
X149700D01*
X159700D02*
Y361300D01*
X161300D01*
Y359700D01*
X159700D01*
X22000Y72822D02*
X21200Y74422D01*
X22800D01*
X22000Y72822D01*
Y61011D02*
X21200Y62611D01*
X22800D01*
X22000Y61011D01*
Y49200D02*
X21200Y50800D01*
X22800D01*
X22000Y49200D01*
Y37389D02*
X22400Y37789D01*
X22800D01*
X22400Y38189D01*
X22800Y38589D01*
X22400D01*
X22000Y38989D01*
X21600Y38589D01*
X21200D01*
X21600Y38189D01*
X21200Y37789D01*
X21600D01*
X22000Y37389D01*
Y84633D02*
X22400Y85033D01*
X22800D01*
X22400Y85433D01*
X22800Y85833D01*
X22400D01*
X22000Y86233D01*
X21600Y85833D01*
X21200D01*
X21600Y85433D01*
X21200Y85033D01*
X21600D01*
X22000Y84633D01*
X21200Y294200D02*
Y295800D01*
X22800D01*
Y294200D01*
X21200D01*
Y304200D02*
Y305800D01*
X22800D01*
Y304200D01*
X21200D01*
X366200Y156700D02*
X366600Y157500D01*
X366200Y158300D01*
X367000Y157900D01*
X367800Y158300D01*
X367400Y157500D01*
X367800Y156700D01*
X367000Y157100D01*
X366200Y156700D01*
Y176700D02*
X366600Y177500D01*
X366200Y178300D01*
X367000Y177900D01*
X367800Y178300D01*
X367400Y177500D01*
X367800Y176700D01*
X367000Y177100D01*
X366200Y176700D01*
X77000Y98100D02*
Y97700D01*
X77800D01*
Y98100D01*
X78200D01*
Y98900D01*
X77800D01*
Y99300D01*
X77000D01*
Y98900D01*
X76600D01*
Y98100D01*
X77000D01*
X96200D02*
Y97700D01*
X97000D01*
Y98100D01*
X97400D01*
Y98900D01*
X97000D01*
Y99300D01*
X96200D01*
Y98900D01*
X95800D01*
Y98100D01*
X96200D01*
X366200Y211330D02*
X366600D01*
X367000Y211730D01*
X367400Y211330D01*
X367800D01*
Y211730D01*
X367400Y212130D01*
X367800Y212530D01*
Y212930D01*
X367400D01*
X367000Y212530D01*
X366600Y212930D01*
X366200D01*
Y212530D01*
X366600Y212130D01*
X366200Y211730D01*
Y211330D01*
Y251500D02*
X367000Y252300D01*
X367800Y251500D01*
X367000Y250700D01*
X366200Y251500D01*
Y290870D02*
X367000Y291670D01*
X367800Y290870D01*
X367000Y290070D01*
X366200Y290870D01*
X18885Y373216D02*
Y374816D01*
X20485D01*
Y373216D01*
X18885D01*
X19285Y373616D02*
Y374416D01*
X20085D01*
Y373616D01*
X19285D01*
X373216Y373216D02*
Y374816D01*
X374816D01*
Y373216D01*
X373216D01*
X373616Y373616D02*
Y374416D01*
X374416D01*
Y373616D01*
X373616D01*
X373216Y18885D02*
Y20485D01*
X374816D01*
Y18885D01*
X373216D01*
X373616Y19285D02*
Y20085D01*
X374416D01*
Y19285D01*
X373616D01*
X18885Y18885D02*
Y20485D01*
X20485D01*
Y18885D01*
X18885D01*
X19285Y19285D02*
Y20085D01*
X20085D01*
Y19285D01*
X19285D01*
X51200Y24200D02*
Y25800D01*
X52800D01*
Y24200D01*
X51200D01*
X41200D02*
Y25800D01*
X42800D01*
Y24200D01*
X41200D01*
X21200Y343200D02*
Y344800D01*
X22800D01*
Y343200D01*
X21200D01*
Y333200D02*
Y334800D01*
X22800D01*
Y333200D01*
X21200D01*
X49700Y58200D02*
X50100Y59000D01*
X49700Y59800D01*
X50500Y59400D01*
X51300Y59800D01*
X50900Y59000D01*
X51300Y58200D01*
X50500Y58600D01*
X49700Y58200D01*
Y48200D02*
X50100Y49000D01*
X49700Y49800D01*
X50500Y49400D01*
X51300Y49800D01*
X50900Y49000D01*
X51300Y48200D01*
X50500Y48600D01*
X49700Y48200D01*
X85800Y349200D02*
X86200Y350000D01*
X85800Y350800D01*
X86600Y350400D01*
X87400Y350800D01*
X87000Y350000D01*
X87400Y349200D01*
X86600Y349600D01*
X85800Y349200D01*
X105800D02*
X106200Y350000D01*
X105800Y350800D01*
X106600Y350400D01*
X107400Y350800D01*
X107000Y350000D01*
X107400Y349200D01*
X106600Y349600D01*
X105800Y349200D01*
X21200Y138700D02*
Y140300D01*
X22800D01*
Y138700D01*
X21200D01*
Y128700D02*
Y130300D01*
X22800D01*
Y128700D01*
X21200D01*
Y118700D02*
Y120300D01*
X22800D01*
Y118700D01*
X21200D01*
Y108700D02*
Y110300D01*
X22800D01*
Y108700D01*
X21200D01*
Y164200D02*
Y165800D01*
X22800D01*
Y164200D01*
X21200D01*
Y174200D02*
Y175800D01*
X22800D01*
Y174200D01*
X21200D01*
Y184200D02*
Y185800D01*
X22800D01*
Y184200D01*
X21200D01*
Y194200D02*
Y195800D01*
X22800D01*
Y194200D01*
X21200D01*
Y269200D02*
Y270800D01*
X22800D01*
Y269200D01*
X21200D01*
Y259200D02*
Y260800D01*
X22800D01*
Y259200D01*
X21200D01*
Y249200D02*
Y250800D01*
X22800D01*
Y249200D01*
X21200D01*
Y239200D02*
Y240800D01*
X22800D01*
Y239200D01*
X21200D01*
Y229200D02*
Y230800D01*
X22800D01*
Y229200D01*
X21200D01*
Y219200D02*
Y220800D01*
X22800D01*
Y219200D01*
X21200D01*
X332000Y309700D02*
X331200Y311300D01*
X332800D01*
X332000Y309700D01*
Y310100D02*
X331600Y310900D01*
X332400D01*
X332000Y310100D01*
X328000Y309700D02*
X327200Y311300D01*
X328800D01*
X328000Y309700D01*
Y310100D02*
X327600Y310900D01*
X328400D01*
X328000Y310100D01*
X324000Y309700D02*
X323200Y311300D01*
X324800D01*
X324000Y309700D01*
Y310100D02*
X323600Y310900D01*
X324400D01*
X324000Y310100D01*
X206000Y68200D02*
X205200Y69800D01*
X206800D01*
X206000Y68200D01*
Y68600D02*
X205600Y69400D01*
X206400D01*
X206000Y68600D01*
X202000Y68200D02*
X201200Y69800D01*
X202800D01*
X202000Y68200D01*
Y68600D02*
X201600Y69400D01*
X202400D01*
X202000Y68600D01*
X198000Y68200D02*
X197200Y69800D01*
X198800D01*
X198000Y68200D01*
Y68600D02*
X197600Y69400D01*
X198400D01*
X198000Y68600D01*
X194000Y68200D02*
X193200Y69800D01*
X194800D01*
X194000Y68200D01*
Y68600D02*
X193600Y69400D01*
X194400D01*
X194000Y68600D01*
X358657Y101200D02*
X357857Y102800D01*
X359457D01*
X358657Y101200D01*
Y101600D02*
X358257Y102400D01*
X359057D01*
X358657Y101600D01*
X363657Y101200D02*
X362857Y102800D01*
X364457D01*
X363657Y101200D01*
Y101600D02*
X363257Y102400D01*
X364057D01*
X363657Y101600D01*
X368657Y101200D02*
X367857Y102800D01*
X369457D01*
X368657Y101200D01*
Y101600D02*
X368257Y102400D01*
X369057D01*
X368657Y101600D01*
Y106200D02*
X367857Y107800D01*
X369457D01*
X368657Y106200D01*
Y106600D02*
X368257Y107400D01*
X369057D01*
X368657Y106600D01*
X363657Y106200D02*
X362857Y107800D01*
X364457D01*
X363657Y106200D01*
Y106600D02*
X363257Y107400D01*
X364057D01*
X363657Y106600D01*
X358657Y106200D02*
X357857Y107800D01*
X359457D01*
X358657Y106200D01*
Y106600D02*
X358257Y107400D01*
X359057D01*
X358657Y106600D01*
X368657Y111200D02*
X367857Y112800D01*
X369457D01*
X368657Y111200D01*
Y111600D02*
X368257Y112400D01*
X369057D01*
X368657Y111600D01*
X363657Y111200D02*
X362857Y112800D01*
X364457D01*
X363657Y111200D01*
Y111600D02*
X363257Y112400D01*
X364057D01*
X363657Y111600D01*
X358657Y111200D02*
X357857Y112800D01*
X359457D01*
X358657Y111200D01*
Y111600D02*
X358257Y112400D01*
X359057D01*
X358657Y111600D01*
X353500Y362700D02*
X352700Y364300D01*
X354300D01*
X353500Y362700D01*
Y363100D02*
X353100Y363900D01*
X353900D01*
X353500Y363100D01*
X348500Y362700D02*
X347700Y364300D01*
X349300D01*
X348500Y362700D01*
Y363100D02*
X348100Y363900D01*
X348900D01*
X348500Y363100D01*
X343500Y362700D02*
X342700Y364300D01*
X344300D01*
X343500Y362700D01*
Y363100D02*
X343100Y363900D01*
X343900D01*
X343500Y363100D01*
Y367700D02*
X342700Y369300D01*
X344300D01*
X343500Y367700D01*
Y368100D02*
X343100Y368900D01*
X343900D01*
X343500Y368100D01*
X348500Y367700D02*
X347700Y369300D01*
X349300D01*
X348500Y367700D01*
Y368100D02*
X348100Y368900D01*
X348900D01*
X348500Y368100D01*
X353500Y367700D02*
X352700Y369300D01*
X354300D01*
X353500Y367700D01*
Y368100D02*
X353100Y368900D01*
X353900D01*
X353500Y368100D01*
Y372700D02*
X352700Y374300D01*
X354300D01*
X353500Y372700D01*
Y373100D02*
X353100Y373900D01*
X353900D01*
X353500Y373100D01*
X348500Y372700D02*
X347700Y374300D01*
X349300D01*
X348500Y372700D01*
Y373100D02*
X348100Y373900D01*
X348900D01*
X348500Y373100D01*
X343500Y372700D02*
X342700Y374300D01*
X344300D01*
X343500Y372700D01*
Y373100D02*
X343100Y373900D01*
X343900D01*
X343500Y373100D01*
X323500Y362700D02*
X322700Y364300D01*
X324300D01*
X323500Y362700D01*
Y363100D02*
X323100Y363900D01*
X323900D01*
X323500Y363100D01*
X318500Y362700D02*
X317700Y364300D01*
X319300D01*
X318500Y362700D01*
Y363100D02*
X318100Y363900D01*
X318900D01*
X318500Y363100D01*
X313500Y362700D02*
X312700Y364300D01*
X314300D01*
X313500Y362700D01*
Y363100D02*
X313100Y363900D01*
X313900D01*
X313500Y363100D01*
Y367700D02*
X312700Y369300D01*
X314300D01*
X313500Y367700D01*
Y368100D02*
X313100Y368900D01*
X313900D01*
X313500Y368100D01*
X318500Y367700D02*
X317700Y369300D01*
X319300D01*
X318500Y367700D01*
Y368100D02*
X318100Y368900D01*
X318900D01*
X318500Y368100D01*
X323500Y367700D02*
X322700Y369300D01*
X324300D01*
X323500Y367700D01*
Y368100D02*
X323100Y368900D01*
X323900D01*
X323500Y368100D01*
Y372700D02*
X322700Y374300D01*
X324300D01*
X323500Y372700D01*
Y373100D02*
X323100Y373900D01*
X323900D01*
X323500Y373100D01*
X318500Y372700D02*
X317700Y374300D01*
X319300D01*
X318500Y372700D01*
Y373100D02*
X318100Y373900D01*
X318900D01*
X318500Y373100D01*
X313500Y372700D02*
X312700Y374300D01*
X314300D01*
X313500Y372700D01*
Y373100D02*
X313100Y373900D01*
X313900D01*
X313500Y373100D01*
X358657Y96200D02*
X357857Y97800D01*
X359457D01*
X358657Y96200D01*
Y96600D02*
X358257Y97400D01*
X359057D01*
X358657Y96600D01*
X363657Y96200D02*
X362857Y97800D01*
X364457D01*
X363657Y96200D01*
Y96600D02*
X363257Y97400D01*
X364057D01*
X363657Y96600D01*
X368657Y96200D02*
X367857Y97800D01*
X369457D01*
X368657Y96200D01*
Y96600D02*
X368257Y97400D01*
X369057D01*
X368657Y96600D01*
X358657Y91200D02*
X357857Y92800D01*
X359457D01*
X358657Y91200D01*
Y91600D02*
X358257Y92400D01*
X359057D01*
X358657Y91600D01*
X363657Y91200D02*
X362857Y92800D01*
X364457D01*
X363657Y91200D01*
Y91600D02*
X363257Y92400D01*
X364057D01*
X363657Y91600D01*
X368657Y91200D02*
X367857Y92800D01*
X369457D01*
X368657Y91200D01*
Y91600D02*
X368257Y92400D01*
X369057D01*
X368657Y91600D01*
Y86200D02*
X367857Y87800D01*
X369457D01*
X368657Y86200D01*
Y86600D02*
X368257Y87400D01*
X369057D01*
X368657Y86600D01*
X363657Y86200D02*
X362857Y87800D01*
X364457D01*
X363657Y86200D01*
Y86600D02*
X363257Y87400D01*
X364057D01*
X363657Y86600D01*
X358657Y86200D02*
X357857Y87800D01*
X359457D01*
X358657Y86200D01*
Y86600D02*
X358257Y87400D01*
X359057D01*
X358657Y86600D01*
X368657Y66200D02*
X367857Y67800D01*
X369457D01*
X368657Y66200D01*
Y66600D02*
X368257Y67400D01*
X369057D01*
X368657Y66600D01*
X363657Y66200D02*
X362857Y67800D01*
X364457D01*
X363657Y66200D01*
Y66600D02*
X363257Y67400D01*
X364057D01*
X363657Y66600D01*
X358657Y66200D02*
X357857Y67800D01*
X359457D01*
X358657Y66200D01*
Y66600D02*
X358257Y67400D01*
X359057D01*
X358657Y66600D01*
X200500Y177700D02*
X199700Y179300D01*
X201300D01*
X200500Y177700D01*
Y178100D02*
X200100Y178900D01*
X200900D01*
X200500Y178100D01*
X195500Y177700D02*
X194700Y179300D01*
X196300D01*
X195500Y177700D01*
Y178100D02*
X195100Y178900D01*
X195900D01*
X195500Y178100D01*
X190500Y177700D02*
X189700Y179300D01*
X191300D01*
X190500Y177700D01*
Y178100D02*
X190100Y178900D01*
X190900D01*
X190500Y178100D01*
X120000Y96700D02*
X119200Y98300D01*
X120800D01*
X120000Y96700D01*
Y97100D02*
X119600Y97900D01*
X120400D01*
X120000Y97100D01*
X341500Y333700D02*
X340700Y335300D01*
X342300D01*
X341500Y333700D01*
Y334100D02*
X341100Y334900D01*
X341900D01*
X341500Y334100D01*
X346500Y338700D02*
X345700Y340300D01*
X347300D01*
X346500Y338700D01*
Y339100D02*
X346100Y339900D01*
X346900D01*
X346500Y339100D01*
X341500Y338700D02*
X340700Y340300D01*
X342300D01*
X341500Y338700D01*
Y339100D02*
X341100Y339900D01*
X341900D01*
X341500Y339100D01*
X336500Y338700D02*
X335700Y340300D01*
X337300D01*
X336500Y338700D01*
Y339100D02*
X336100Y339900D01*
X336900D01*
X336500Y339100D01*
X219000Y18200D02*
X218200Y19800D01*
X219800D01*
X219000Y18200D01*
Y18600D02*
X218600Y19400D01*
X219400D01*
X219000Y18600D01*
X223300Y14200D02*
X222500Y15800D01*
X224100D01*
X223300Y14200D01*
Y14600D02*
X222900Y15400D01*
X223700D01*
X223300Y14600D01*
X162957Y375743D02*
X162157Y377343D01*
X163757D01*
X162957Y375743D01*
Y376143D02*
X162557Y376943D01*
X163357D01*
X162957Y376143D01*
X143043Y375743D02*
X142243Y377343D01*
X143843D01*
X143043Y375743D01*
Y376143D02*
X142643Y376943D01*
X143443D01*
X143043Y376143D01*
X127457Y40143D02*
X126657Y41743D01*
X128257D01*
X127457Y40143D01*
Y40543D02*
X127057Y41343D01*
X127857D01*
X127457Y40543D01*
X149543Y40092D02*
X148743Y41692D01*
X150343D01*
X149543Y40092D01*
Y40492D02*
X149143Y41292D01*
X149943D01*
X149543Y40492D01*
X135500Y61200D02*
X134700Y62800D01*
X136300D01*
X135500Y61200D01*
Y61600D02*
X135100Y62400D01*
X135900D01*
X135500Y61600D01*
X139500Y61200D02*
X138700Y62800D01*
X140300D01*
X139500Y61200D01*
Y61600D02*
X139100Y62400D01*
X139900D01*
X139500Y61600D01*
X115293Y231700D02*
X114493Y233300D01*
X116093D01*
X115293Y231700D01*
Y232100D02*
X114893Y232900D01*
X115693D01*
X115293Y232100D01*
Y191700D02*
X114493Y193300D01*
X116093D01*
X115293Y191700D01*
Y192100D02*
X114893Y192900D01*
X115693D01*
X115293Y192100D01*
Y221700D02*
X114493Y223300D01*
X116093D01*
X115293Y221700D01*
Y222100D02*
X114893Y222900D01*
X115693D01*
X115293Y222100D01*
Y211700D02*
X114493Y213300D01*
X116093D01*
X115293Y211700D01*
Y212100D02*
X114893Y212900D01*
X115693D01*
X115293Y212100D01*
Y201700D02*
X114493Y203300D01*
X116093D01*
X115293Y201700D01*
Y202100D02*
X114893Y202900D01*
X115693D01*
X115293Y202100D01*
Y186700D02*
X114493Y188300D01*
X116093D01*
X115293Y186700D01*
Y187100D02*
X114893Y187900D01*
X115693D01*
X115293Y187100D01*
X135000Y226700D02*
X134200Y228300D01*
X135800D01*
X135000Y226700D01*
Y227100D02*
X134600Y227900D01*
X135400D01*
X135000Y227100D01*
Y216700D02*
X134200Y218300D01*
X135800D01*
X135000Y216700D01*
Y217100D02*
X134600Y217900D01*
X135400D01*
X135000Y217100D01*
X87000Y198700D02*
X86200Y200300D01*
X87800D01*
X87000Y198700D01*
Y199100D02*
X86600Y199900D01*
X87400D01*
X87000Y199100D01*
X79821Y180700D02*
X79021Y182300D01*
X80620D01*
X79821Y180700D01*
Y181100D02*
X79421Y181900D01*
X80221D01*
X79821Y181100D01*
X46372Y146700D02*
X45572Y148300D01*
X47172D01*
X46372Y146700D01*
Y147100D02*
X45972Y147900D01*
X46772D01*
X46372Y147100D01*
X55000Y221700D02*
X54200Y223300D01*
X55800D01*
X55000Y221700D01*
Y222100D02*
X54600Y222900D01*
X55400D01*
X55000Y222100D01*
X50000Y226700D02*
X49200Y228300D01*
X50800D01*
X50000Y226700D01*
Y227100D02*
X49600Y227900D01*
X50400D01*
X50000Y227100D01*
X45500Y231700D02*
X44700Y233300D01*
X46300D01*
X45500Y231700D01*
Y232100D02*
X45100Y232900D01*
X45900D01*
X45500Y232100D01*
X68500Y97538D02*
X67700Y99138D01*
X69300D01*
X68500Y97538D01*
Y97938D02*
X68100Y98738D01*
X68900D01*
X68500Y97938D01*
Y92538D02*
X67700Y94138D01*
X69300D01*
X68500Y92538D01*
Y92938D02*
X68100Y93738D01*
X68900D01*
X68500Y92938D01*
Y87538D02*
X67700Y89138D01*
X69300D01*
X68500Y87538D01*
Y87938D02*
X68100Y88738D01*
X68900D01*
X68500Y87938D01*
X55000Y107026D02*
X54200Y108626D01*
X55800D01*
X55000Y107026D01*
Y107426D02*
X54600Y108226D01*
X55400D01*
X55000Y107426D01*
Y102026D02*
X54200Y103626D01*
X55800D01*
X55000Y102026D01*
Y102426D02*
X54600Y103226D01*
X55400D01*
X55000Y102426D01*
Y97026D02*
X54200Y98626D01*
X55800D01*
X55000Y97026D01*
Y97426D02*
X54600Y98226D01*
X55400D01*
X55000Y97426D01*
X62500Y300360D02*
X61700Y301960D01*
X63300D01*
X62500Y300360D01*
Y300760D02*
X62100Y301560D01*
X62900D01*
X62500Y300760D01*
X57500Y300360D02*
X56700Y301960D01*
X58300D01*
X57500Y300360D01*
Y300760D02*
X57100Y301560D01*
X57900D01*
X57500Y300760D01*
X52500Y300360D02*
X51700Y301960D01*
X53300D01*
X52500Y300360D01*
Y300760D02*
X52100Y301560D01*
X52900D01*
X52500Y300760D01*
Y305360D02*
X51700Y306960D01*
X53300D01*
X52500Y305360D01*
Y305760D02*
X52100Y306560D01*
X52900D01*
X52500Y305760D01*
X57500Y305360D02*
X56700Y306960D01*
X58300D01*
X57500Y305360D01*
Y305760D02*
X57100Y306560D01*
X57900D01*
X57500Y305760D01*
X62500Y305360D02*
X61700Y306960D01*
X63300D01*
X62500Y305360D01*
Y305760D02*
X62100Y306560D01*
X62900D01*
X62500Y305760D01*
Y310360D02*
X61700Y311960D01*
X63300D01*
X62500Y310360D01*
Y310760D02*
X62100Y311560D01*
X62900D01*
X62500Y310760D01*
X57500Y310360D02*
X56700Y311960D01*
X58300D01*
X57500Y310360D01*
Y310760D02*
X57100Y311560D01*
X57900D01*
X57500Y310760D01*
X52500Y310360D02*
X51700Y311960D01*
X53300D01*
X52500Y310360D01*
Y310760D02*
X52100Y311560D01*
X52900D01*
X52500Y310760D01*
X96171Y296200D02*
X95371Y297800D01*
X96971D01*
X96171Y296200D01*
Y296600D02*
X95771Y297400D01*
X96571D01*
X96171Y296600D01*
X91171Y296200D02*
X90371Y297800D01*
X91971D01*
X91171Y296200D01*
Y296600D02*
X90771Y297400D01*
X91571D01*
X91171Y296600D01*
X86171Y296200D02*
X85371Y297800D01*
X86971D01*
X86171Y296200D01*
Y296600D02*
X85771Y297400D01*
X86571D01*
X86171Y296600D01*
Y301200D02*
X85371Y302800D01*
X86971D01*
X86171Y301200D01*
Y301600D02*
X85771Y302400D01*
X86571D01*
X86171Y301600D01*
X91171Y301200D02*
X90371Y302800D01*
X91971D01*
X91171Y301200D01*
Y301600D02*
X90771Y302400D01*
X91571D01*
X91171Y301600D01*
X96171Y301200D02*
X95371Y302800D01*
X96971D01*
X96171Y301200D01*
Y301600D02*
X95771Y302400D01*
X96571D01*
X96171Y301600D01*
Y306200D02*
X95371Y307800D01*
X96971D01*
X96171Y306200D01*
Y306600D02*
X95771Y307400D01*
X96571D01*
X96171Y306600D01*
X91171Y306200D02*
X90371Y307800D01*
X91971D01*
X91171Y306200D01*
Y306600D02*
X90771Y307400D01*
X91571D01*
X91171Y306600D01*
X86171Y306200D02*
X85371Y307800D01*
X86971D01*
X86171Y306200D01*
Y306600D02*
X85771Y307400D01*
X86571D01*
X86171Y306600D01*
X52500Y185550D02*
X51700Y187150D01*
X53300D01*
X52500Y185550D01*
Y185950D02*
X52100Y186750D01*
X52900D01*
X52500Y185950D01*
X47500Y185550D02*
X46700Y187150D01*
X48300D01*
X47500Y185550D01*
Y185950D02*
X47100Y186750D01*
X47900D01*
X47500Y185950D01*
X42500Y185550D02*
X41700Y187150D01*
X43300D01*
X42500Y185550D01*
Y185950D02*
X42100Y186750D01*
X42900D01*
X42500Y185950D01*
Y190550D02*
X41700Y192150D01*
X43300D01*
X42500Y190550D01*
Y190950D02*
X42100Y191750D01*
X42900D01*
X42500Y190950D01*
X47500Y190550D02*
X46700Y192150D01*
X48300D01*
X47500Y190550D01*
Y190950D02*
X47100Y191750D01*
X47900D01*
X47500Y190950D01*
X52500Y190550D02*
X51700Y192150D01*
X53300D01*
X52500Y190550D01*
Y190950D02*
X52100Y191750D01*
X52900D01*
X52500Y190950D01*
Y195550D02*
X51700Y197150D01*
X53300D01*
X52500Y195550D01*
Y195950D02*
X52100Y196750D01*
X52900D01*
X52500Y195950D01*
X47500Y195550D02*
X46700Y197150D01*
X48300D01*
X47500Y195550D01*
Y195950D02*
X47100Y196750D01*
X47900D01*
X47500Y195950D01*
X42500Y195550D02*
X41700Y197150D01*
X43300D01*
X42500Y195550D01*
Y195950D02*
X42100Y196750D01*
X42900D01*
X42500Y195950D01*
X79851Y8700D02*
X79051Y10300D01*
X80651D01*
X79851Y8700D01*
Y9100D02*
X79451Y9900D01*
X80251D01*
X79851Y9100D01*
X74851Y8700D02*
X74051Y10300D01*
X75651D01*
X74851Y8700D01*
Y9100D02*
X74451Y9900D01*
X75251D01*
X74851Y9100D01*
X69851Y8700D02*
X69051Y10300D01*
X70651D01*
X69851Y8700D01*
Y9100D02*
X69451Y9900D01*
X70251D01*
X69851Y9100D01*
Y13700D02*
X69051Y15300D01*
X70651D01*
X69851Y13700D01*
Y14100D02*
X69451Y14900D01*
X70251D01*
X69851Y14100D01*
X74851Y13700D02*
X74051Y15300D01*
X75651D01*
X74851Y13700D01*
Y14100D02*
X74451Y14900D01*
X75251D01*
X74851Y14100D01*
X79851Y13700D02*
X79051Y15300D01*
X80651D01*
X79851Y13700D01*
Y14100D02*
X79451Y14900D01*
X80251D01*
X79851Y14100D01*
Y18700D02*
X79051Y20300D01*
X80651D01*
X79851Y18700D01*
Y19100D02*
X79451Y19900D01*
X80251D01*
X79851Y19100D01*
X74851Y18700D02*
X74051Y20300D01*
X75651D01*
X74851Y18700D01*
Y19100D02*
X74451Y19900D01*
X75251D01*
X74851Y19100D01*
X69851Y18700D02*
X69051Y20300D01*
X70651D01*
X69851Y18700D01*
Y19100D02*
X69451Y19900D01*
X70251D01*
X69851Y19100D01*
X182992Y346200D02*
X182193Y347800D01*
X183792D01*
X182992Y346200D01*
Y346600D02*
X182592Y347400D01*
X183393D01*
X182992Y346600D01*
Y341200D02*
X182193Y342800D01*
X183792D01*
X182992Y341200D01*
Y341600D02*
X182592Y342400D01*
X183393D01*
X182992Y341600D01*
X193000Y346200D02*
X192200Y347800D01*
X193800D01*
X193000Y346200D01*
Y346600D02*
X192600Y347400D01*
X193400D01*
X193000Y346600D01*
Y341200D02*
X192200Y342800D01*
X193800D01*
X193000Y341200D01*
Y341600D02*
X192600Y342400D01*
X193400D01*
X193000Y341600D01*
Y336200D02*
X192200Y337800D01*
X193800D01*
X193000Y336200D01*
Y336600D02*
X192600Y337400D01*
X193400D01*
X193000Y336600D01*
X183000Y336200D02*
X182200Y337800D01*
X183800D01*
X183000Y336200D01*
Y336600D02*
X182600Y337400D01*
X183400D01*
X183000Y336600D01*
X188000Y336200D02*
X187200Y337800D01*
X188800D01*
X188000Y336200D01*
Y336600D02*
X187600Y337400D01*
X188400D01*
X188000Y336600D01*
Y341200D02*
X187200Y342800D01*
X188800D01*
X188000Y341200D01*
Y341600D02*
X187600Y342400D01*
X188400D01*
X188000Y341600D01*
Y346200D02*
X187200Y347800D01*
X188800D01*
X188000Y346200D01*
Y346600D02*
X187600Y347400D01*
X188400D01*
X188000Y346600D01*
X120000Y279570D02*
X119200Y281170D01*
X120800D01*
X120000Y279570D01*
Y279970D02*
X119600Y280770D01*
X120400D01*
X120000Y279970D01*
X125000Y279570D02*
X124200Y281170D01*
X125800D01*
X125000Y279570D01*
Y279970D02*
X124600Y280770D01*
X125400D01*
X125000Y279970D01*
X130000Y279570D02*
X129200Y281170D01*
X130800D01*
X130000Y279570D01*
Y279970D02*
X129600Y280770D01*
X130400D01*
X130000Y279970D01*
Y274570D02*
X129200Y276170D01*
X130800D01*
X130000Y274570D01*
Y274970D02*
X129600Y275770D01*
X130400D01*
X130000Y274970D01*
X125000Y274570D02*
X124200Y276170D01*
X125800D01*
X125000Y274570D01*
Y274970D02*
X124600Y275770D01*
X125400D01*
X125000Y274970D01*
X120000Y274570D02*
X119200Y276170D01*
X120800D01*
X120000Y274570D01*
Y274970D02*
X119600Y275770D01*
X120400D01*
X120000Y274970D01*
Y269570D02*
X119200Y271170D01*
X120800D01*
X120000Y269570D01*
Y269970D02*
X119600Y270770D01*
X120400D01*
X120000Y269970D01*
X125000Y269570D02*
X124200Y271170D01*
X125800D01*
X125000Y269570D01*
Y269970D02*
X124600Y270770D01*
X125400D01*
X125000Y269970D01*
X130000Y269570D02*
X129200Y271170D01*
X130800D01*
X130000Y269570D01*
Y269970D02*
X129600Y270770D01*
X130400D01*
X130000Y269970D01*
X146500Y279570D02*
X145700Y281170D01*
X147300D01*
X146500Y279570D01*
Y279970D02*
X146100Y280770D01*
X146900D01*
X146500Y279970D01*
X151500Y279570D02*
X150700Y281170D01*
X152300D01*
X151500Y279570D01*
Y279970D02*
X151100Y280770D01*
X151900D01*
X151500Y279970D01*
X156500Y279570D02*
X155700Y281170D01*
X157300D01*
X156500Y279570D01*
Y279970D02*
X156100Y280770D01*
X156900D01*
X156500Y279970D01*
Y274570D02*
X155700Y276170D01*
X157300D01*
X156500Y274570D01*
Y274970D02*
X156100Y275770D01*
X156900D01*
X156500Y274970D01*
X151500Y274570D02*
X150700Y276170D01*
X152300D01*
X151500Y274570D01*
Y274970D02*
X151100Y275770D01*
X151900D01*
X151500Y274970D01*
X146500Y274570D02*
X145700Y276170D01*
X147300D01*
X146500Y274570D01*
Y274970D02*
X146100Y275770D01*
X146900D01*
X146500Y274970D01*
Y269570D02*
X145700Y271170D01*
X147300D01*
X146500Y269570D01*
Y269970D02*
X146100Y270770D01*
X146900D01*
X146500Y269970D01*
X151500Y269570D02*
X150700Y271170D01*
X152300D01*
X151500Y269570D01*
Y269970D02*
X151100Y270770D01*
X151900D01*
X151500Y269970D01*
X156500Y269570D02*
X155700Y271170D01*
X157300D01*
X156500Y269570D01*
Y269970D02*
X156100Y270770D01*
X156900D01*
X156500Y269970D01*
X346500Y333700D02*
X345700Y335300D01*
X347300D01*
X346500Y333700D01*
Y334100D02*
X346100Y334900D01*
X346900D01*
X346500Y334100D01*
Y343700D02*
X345700Y345300D01*
X347300D01*
X346500Y343700D01*
Y344100D02*
X346100Y344900D01*
X346900D01*
X346500Y344100D01*
X341500Y343700D02*
X340700Y345300D01*
X342300D01*
X341500Y343700D01*
Y344100D02*
X341100Y344900D01*
X341900D01*
X341500Y344100D01*
X336500Y343700D02*
X335700Y345300D01*
X337300D01*
X336500Y343700D01*
Y344100D02*
X336100Y344900D01*
X336900D01*
X336500Y344100D01*
X331500Y343700D02*
X330700Y345300D01*
X332300D01*
X331500Y343700D01*
Y344100D02*
X331100Y344900D01*
X331900D01*
X331500Y344100D01*
X328500Y372700D02*
X327700Y374300D01*
X329300D01*
X328500Y372700D01*
Y373100D02*
X328100Y373900D01*
X328900D01*
X328500Y373100D01*
X333500Y372700D02*
X332700Y374300D01*
X334300D01*
X333500Y372700D01*
Y373100D02*
X333100Y373900D01*
X333900D01*
X333500Y373100D01*
X338500Y372700D02*
X337700Y374300D01*
X339300D01*
X338500Y372700D01*
Y373100D02*
X338100Y373900D01*
X338900D01*
X338500Y373100D01*
Y367700D02*
X337700Y369300D01*
X339300D01*
X338500Y367700D01*
Y368100D02*
X338100Y368900D01*
X338900D01*
X338500Y368100D01*
X333500Y367700D02*
X332700Y369300D01*
X334300D01*
X333500Y367700D01*
Y368100D02*
X333100Y368900D01*
X333900D01*
X333500Y368100D01*
X328500Y367700D02*
X327700Y369300D01*
X329300D01*
X328500Y367700D01*
Y368100D02*
X328100Y368900D01*
X328900D01*
X328500Y368100D01*
Y362700D02*
X327700Y364300D01*
X329300D01*
X328500Y362700D01*
Y363100D02*
X328100Y363900D01*
X328900D01*
X328500Y363100D01*
X333500Y362700D02*
X332700Y364300D01*
X334300D01*
X333500Y362700D01*
Y363100D02*
X333100Y363900D01*
X333900D01*
X333500Y363100D01*
X338500Y362700D02*
X337700Y364300D01*
X339300D01*
X338500Y362700D01*
Y363100D02*
X338100Y363900D01*
X338900D01*
X338500Y363100D01*
X190500Y192700D02*
X189700Y194300D01*
X191300D01*
X190500Y192700D01*
Y193100D02*
X190100Y193900D01*
X190900D01*
X190500Y193100D01*
X195500Y192700D02*
X194700Y194300D01*
X196300D01*
X195500Y192700D01*
Y193100D02*
X195100Y193900D01*
X195900D01*
X195500Y193100D01*
X200500Y192700D02*
X199700Y194300D01*
X201300D01*
X200500Y192700D01*
Y193100D02*
X200100Y193900D01*
X200900D01*
X200500Y193100D01*
Y187700D02*
X199700Y189300D01*
X201300D01*
X200500Y187700D01*
Y188100D02*
X200100Y188900D01*
X200900D01*
X200500Y188100D01*
X195500Y187700D02*
X194700Y189300D01*
X196300D01*
X195500Y187700D01*
Y188100D02*
X195100Y188900D01*
X195900D01*
X195500Y188100D01*
X190500Y187700D02*
X189700Y189300D01*
X191300D01*
X190500Y187700D01*
Y188100D02*
X190100Y188900D01*
X190900D01*
X190500Y188100D01*
Y182700D02*
X189700Y184300D01*
X191300D01*
X190500Y182700D01*
Y183100D02*
X190100Y183900D01*
X190900D01*
X190500Y183100D01*
X195500Y182700D02*
X194700Y184300D01*
X196300D01*
X195500Y182700D01*
Y183100D02*
X195100Y183900D01*
X195900D01*
X195500Y183100D01*
X200500Y182700D02*
X199700Y184300D01*
X201300D01*
X200500Y182700D01*
Y183100D02*
X200100Y183900D01*
X200900D01*
X200500Y183100D01*
X358657Y81200D02*
X357857Y82800D01*
X359457D01*
X358657Y81200D01*
Y81600D02*
X358257Y82400D01*
X359057D01*
X358657Y81600D01*
X363657Y81200D02*
X362857Y82800D01*
X364457D01*
X363657Y81200D01*
Y81600D02*
X363257Y82400D01*
X364057D01*
X363657Y81600D01*
X368657Y81200D02*
X367857Y82800D01*
X369457D01*
X368657Y81200D01*
Y81600D02*
X368257Y82400D01*
X369057D01*
X368657Y81600D01*
Y76200D02*
X367857Y77800D01*
X369457D01*
X368657Y76200D01*
Y76600D02*
X368257Y77400D01*
X369057D01*
X368657Y76600D01*
X363657Y76200D02*
X362857Y77800D01*
X364457D01*
X363657Y76200D01*
Y76600D02*
X363257Y77400D01*
X364057D01*
X363657Y76600D01*
X358657Y76200D02*
X357857Y77800D01*
X359457D01*
X358657Y76200D01*
Y76600D02*
X358257Y77400D01*
X359057D01*
X358657Y76600D01*
Y71200D02*
X357857Y72800D01*
X359457D01*
X358657Y71200D01*
Y71600D02*
X358257Y72400D01*
X359057D01*
X358657Y71600D01*
X363657Y71200D02*
X362857Y72800D01*
X364457D01*
X363657Y71200D01*
Y71600D02*
X363257Y72400D01*
X364057D01*
X363657Y71600D01*
X368657Y71200D02*
X367857Y72800D01*
X369457D01*
X368657Y71200D01*
Y71600D02*
X368257Y72400D01*
X369057D01*
X368657Y71600D01*
X336000Y58700D02*
X335200Y60300D01*
X336800D01*
X336000Y58700D01*
Y59100D02*
X335600Y59900D01*
X336400D01*
X336000Y59100D01*
X331000Y58700D02*
X330200Y60300D01*
X331800D01*
X331000Y58700D01*
Y59100D02*
X330600Y59900D01*
X331400D01*
X331000Y59100D01*
X326000Y58700D02*
X325200Y60300D01*
X326800D01*
X326000Y58700D01*
Y59100D02*
X325600Y59900D01*
X326400D01*
X326000Y59100D01*
Y63700D02*
X325200Y65300D01*
X326800D01*
X326000Y63700D01*
Y64100D02*
X325600Y64900D01*
X326400D01*
X326000Y64100D01*
X331000Y63700D02*
X330200Y65300D01*
X331800D01*
X331000Y63700D01*
Y64100D02*
X330600Y64900D01*
X331400D01*
X331000Y64100D01*
X336000Y63700D02*
X335200Y65300D01*
X336800D01*
X336000Y63700D01*
Y64100D02*
X335600Y64900D01*
X336400D01*
X336000Y64100D01*
Y68700D02*
X335200Y70300D01*
X336800D01*
X336000Y68700D01*
Y69100D02*
X335600Y69900D01*
X336400D01*
X336000Y69100D01*
X331000Y68700D02*
X330200Y70300D01*
X331800D01*
X331000Y68700D01*
Y69100D02*
X330600Y69900D01*
X331400D01*
X331000Y69100D01*
X326000Y68700D02*
X325200Y70300D01*
X326800D01*
X326000Y68700D01*
Y69100D02*
X325600Y69900D01*
X326400D01*
X326000Y69100D01*
X130000Y155529D02*
X129200Y157129D01*
X130800D01*
X130000Y155529D01*
Y155929D02*
X129600Y156729D01*
X130400D01*
X130000Y155929D01*
X98000Y151700D02*
X97200Y153300D01*
X98800D01*
X98000Y151700D01*
Y152100D02*
X97600Y152900D01*
X98400D01*
X98000Y152100D01*
X120405Y130826D02*
X119605Y132426D01*
X121205D01*
X120405Y130826D01*
Y131226D02*
X120005Y132026D01*
X120805D01*
X120405Y131226D01*
X108076Y119739D02*
X107276Y121339D01*
X108876D01*
X108076Y119739D01*
Y120139D02*
X107676Y120939D01*
X108476D01*
X108076Y120139D01*
X108804Y61200D02*
X108004Y62800D01*
X109604D01*
X108804Y61200D01*
Y61600D02*
X108404Y62400D01*
X109204D01*
X108804Y61600D01*
X106500Y64700D02*
X105700Y66300D01*
X107300D01*
X106500Y64700D01*
Y65100D02*
X106100Y65900D01*
X106900D01*
X106500Y65100D01*
X139500Y65200D02*
X138700Y66800D01*
X140300D01*
X139500Y65200D01*
Y65600D02*
X139100Y66400D01*
X139900D01*
X139500Y65600D01*
Y69200D02*
X138700Y70800D01*
X140300D01*
X139500Y69200D01*
Y69600D02*
X139100Y70400D01*
X139900D01*
X139500Y69600D01*
Y73200D02*
X138700Y74800D01*
X140300D01*
X139500Y73200D01*
Y73600D02*
X139100Y74400D01*
X139900D01*
X139500Y73600D01*
Y77200D02*
X138700Y78800D01*
X140300D01*
X139500Y77200D01*
Y77600D02*
X139100Y78400D01*
X139900D01*
X139500Y77600D01*
X92000Y235200D02*
X91200Y236800D01*
X92800D01*
X92000Y235200D01*
Y235600D02*
X91600Y236400D01*
X92400D01*
X92000Y235600D01*
X46500Y254700D02*
X45700Y256300D01*
X47300D01*
X46500Y254700D01*
Y255100D02*
X46100Y255900D01*
X46900D01*
X46500Y255100D01*
X101500Y254700D02*
X100700Y256300D01*
X102300D01*
X101500Y254700D01*
Y255100D02*
X101100Y255900D01*
X101900D01*
X101500Y255100D01*
X79000Y171200D02*
X78200Y172800D01*
X79800D01*
X79000Y171200D01*
Y171600D02*
X78600Y172400D01*
X79400D01*
X79000Y171600D01*
X65787Y139287D02*
X64987Y140887D01*
X66587D01*
X65787Y139287D01*
Y139687D02*
X65387Y140487D01*
X66187D01*
X65787Y139687D01*
X55000Y81200D02*
X54200Y82800D01*
X55800D01*
X55000Y81200D01*
Y81600D02*
X54600Y82400D01*
X55400D01*
X55000Y81600D01*
X83555Y53204D02*
X82755Y54804D01*
X84355D01*
X83555Y53204D01*
Y53604D02*
X83155Y54404D01*
X83955D01*
X83555Y53604D01*
X110392Y64700D02*
X109592Y66300D01*
X111192D01*
X110392Y64700D01*
Y65100D02*
X109992Y65900D01*
X110792D01*
X110392Y65100D01*
X97000Y19200D02*
X96200Y20800D01*
X97800D01*
X97000Y19200D01*
Y19600D02*
X96600Y20400D01*
X97400D01*
X97000Y19600D01*
X70500Y24694D02*
X69700Y26294D01*
X71300D01*
X70500Y24694D01*
Y25094D02*
X70100Y25894D01*
X70900D01*
X70500Y25094D01*
X79500Y24694D02*
X78700Y26294D01*
X80300D01*
X79500Y24694D01*
Y25094D02*
X79100Y25894D01*
X79900D01*
X79500Y25094D01*
Y58600D02*
X78700Y60200D01*
X80300D01*
X79500Y58600D01*
Y59000D02*
X79100Y59800D01*
X79900D01*
X79500Y59000D01*
X70500Y58600D02*
X69700Y60200D01*
X71300D01*
X70500Y58600D01*
Y59000D02*
X70100Y59800D01*
X70900D01*
X70500Y59000D01*
X130000Y135229D02*
X129200Y136829D01*
X130800D01*
X130000Y135229D01*
Y135629D02*
X129600Y136429D01*
X130400D01*
X130000Y135629D01*
X127400Y166700D02*
X126600Y168300D01*
X128200D01*
X127400Y166700D01*
Y167100D02*
X127000Y167900D01*
X127800D01*
X127400Y167100D01*
Y157003D02*
X126600Y158603D01*
X128200D01*
X127400Y157003D01*
Y157403D02*
X127000Y158203D01*
X127800D01*
X127400Y157403D01*
X98400Y108200D02*
X97600Y109800D01*
X99200D01*
X98400Y108200D01*
Y108600D02*
X98000Y109400D01*
X98800D01*
X98400Y108600D01*
X75600Y108200D02*
X74800Y109800D01*
X76400D01*
X75600Y108200D01*
Y108600D02*
X75200Y109400D01*
X76000D01*
X75600Y108600D01*
X67600Y121200D02*
X66800Y122800D01*
X68400D01*
X67600Y121200D01*
Y121600D02*
X67200Y122400D01*
X68000D01*
X67600Y121600D01*
X51000Y131387D02*
X50200Y132987D01*
X51800D01*
X51000Y131387D01*
Y131787D02*
X50600Y132587D01*
X51400D01*
X51000Y131787D01*
X57836Y139287D02*
X57036Y140887D01*
X58636D01*
X57836Y139287D01*
Y139687D02*
X57436Y140487D01*
X58236D01*
X57836Y139687D01*
X51436Y165700D02*
X50636Y167300D01*
X52236D01*
X51436Y165700D01*
Y166100D02*
X51036Y166900D01*
X51836D01*
X51436Y166100D01*
X68500Y214200D02*
X67700Y215800D01*
X69300D01*
X68500Y214200D01*
Y214600D02*
X68100Y215400D01*
X68900D01*
X68500Y214600D01*
X103400Y313200D02*
X102600Y314800D01*
X104200D01*
X103400Y313200D01*
Y313600D02*
X103000Y314400D01*
X103800D01*
X103400Y313600D01*
X192000Y254200D02*
X191200Y255800D01*
X192800D01*
X192000Y254200D01*
Y254600D02*
X191600Y255400D01*
X192400D01*
X192000Y254600D01*
X200000Y254200D02*
X199200Y255800D01*
X200800D01*
X200000Y254200D01*
Y254600D02*
X199600Y255400D01*
X200400D01*
X200000Y254600D01*
X214000Y88141D02*
X213200Y89741D01*
X214800D01*
X214000Y88141D01*
Y88541D02*
X213600Y89341D01*
X214400D01*
X214000Y88541D01*
Y76200D02*
X213200Y77800D01*
X214800D01*
X214000Y76200D01*
Y76600D02*
X213600Y77400D01*
X214400D01*
X214000Y76600D01*
Y80200D02*
X213200Y81800D01*
X214800D01*
X214000Y80200D01*
Y80600D02*
X213600Y81400D01*
X214400D01*
X214000Y80600D01*
Y84200D02*
X213200Y85800D01*
X214800D01*
X214000Y84200D01*
Y84600D02*
X213600Y85400D01*
X214400D01*
X214000Y84600D01*
X185625Y76200D02*
X184825Y77800D01*
X186425D01*
X185625Y76200D01*
Y76600D02*
X185225Y77400D01*
X186025D01*
X185625Y76600D01*
X190000Y72200D02*
X189200Y73800D01*
X190800D01*
X190000Y72200D01*
Y72600D02*
X189600Y73400D01*
X190400D01*
X190000Y72600D01*
X194000Y72200D02*
X193200Y73800D01*
X194800D01*
X194000Y72200D01*
Y72600D02*
X193600Y73400D01*
X194400D01*
X194000Y72600D01*
X198000Y72200D02*
X197200Y73800D01*
X198800D01*
X198000Y72200D01*
Y72600D02*
X197600Y73400D01*
X198400D01*
X198000Y72600D01*
X202000Y72200D02*
X201200Y73800D01*
X202800D01*
X202000Y72200D01*
Y72600D02*
X201600Y73400D01*
X202400D01*
X202000Y72600D01*
X206000Y72200D02*
X205200Y73800D01*
X206800D01*
X206000Y72200D01*
Y72600D02*
X205600Y73400D01*
X206400D01*
X206000Y72600D01*
X210000Y72200D02*
X209200Y73800D01*
X210800D01*
X210000Y72200D01*
Y72600D02*
X209600Y73400D01*
X210400D01*
X210000Y72600D01*
Y84200D02*
X209200Y85800D01*
X210800D01*
X210000Y84200D01*
Y84600D02*
X209600Y85400D01*
X210400D01*
X210000Y84600D01*
Y88200D02*
X209200Y89800D01*
X210800D01*
X210000Y88200D01*
Y88600D02*
X209600Y89400D01*
X210400D01*
X210000Y88600D01*
Y92200D02*
X209200Y93800D01*
X210800D01*
X210000Y92200D01*
Y92600D02*
X209600Y93400D01*
X210400D01*
X210000Y92600D01*
X206000Y92200D02*
X205200Y93800D01*
X206800D01*
X206000Y92200D01*
Y92600D02*
X205600Y93400D01*
X206400D01*
X206000Y92600D01*
Y88200D02*
X205200Y89800D01*
X206800D01*
X206000Y88200D01*
Y88600D02*
X205600Y89400D01*
X206400D01*
X206000Y88600D01*
Y84200D02*
X205200Y85800D01*
X206800D01*
X206000Y84200D01*
Y84600D02*
X205600Y85400D01*
X206400D01*
X206000Y84600D01*
X210000Y80200D02*
X209200Y81800D01*
X210800D01*
X210000Y80200D01*
Y80600D02*
X209600Y81400D01*
X210400D01*
X210000Y80600D01*
X206000Y80200D02*
X205200Y81800D01*
X206800D01*
X206000Y80200D01*
Y80600D02*
X205600Y81400D01*
X206400D01*
X206000Y80600D01*
X210000Y76200D02*
X209200Y77800D01*
X210800D01*
X210000Y76200D01*
Y76600D02*
X209600Y77400D01*
X210400D01*
X210000Y76600D01*
X206000Y76200D02*
X205200Y77800D01*
X206800D01*
X206000Y76200D01*
Y76600D02*
X205600Y77400D01*
X206400D01*
X206000Y76600D01*
X202000Y76200D02*
X201200Y77800D01*
X202800D01*
X202000Y76200D01*
Y76600D02*
X201600Y77400D01*
X202400D01*
X202000Y76600D01*
X198000Y76200D02*
X197200Y77800D01*
X198800D01*
X198000Y76200D01*
Y76600D02*
X197600Y77400D01*
X198400D01*
X198000Y76600D01*
X194000Y76200D02*
X193200Y77800D01*
X194800D01*
X194000Y76200D01*
Y76600D02*
X193600Y77400D01*
X194400D01*
X194000Y76600D01*
X190000Y76200D02*
X189200Y77800D01*
X190800D01*
X190000Y76200D01*
Y76600D02*
X189600Y77400D01*
X190400D01*
X190000Y76600D01*
X325644Y92450D02*
X324844Y94050D01*
X326444D01*
X325644Y92450D01*
Y92850D02*
X325244Y93650D01*
X326044D01*
X325644Y92850D01*
X329644Y92450D02*
X328844Y94050D01*
X330444D01*
X329644Y92450D01*
Y92850D02*
X329244Y93650D01*
X330044D01*
X329644Y92850D01*
X333644Y92450D02*
X332844Y94050D01*
X334444D01*
X333644Y92450D01*
Y92850D02*
X333244Y93650D01*
X334044D01*
X333644Y92850D01*
X337644Y92450D02*
X336844Y94050D01*
X338444D01*
X337644Y92450D01*
Y92850D02*
X337244Y93650D01*
X338044D01*
X337644Y92850D01*
X341644Y92450D02*
X340844Y94050D01*
X342444D01*
X341644Y92450D01*
Y92850D02*
X341244Y93650D01*
X342044D01*
X341644Y92850D01*
Y116450D02*
X340844Y118050D01*
X342444D01*
X341644Y116450D01*
Y116850D02*
X341244Y117650D01*
X342044D01*
X341644Y116850D01*
X337644Y116450D02*
X336844Y118050D01*
X338444D01*
X337644Y116450D01*
Y116850D02*
X337244Y117650D01*
X338044D01*
X337644Y116850D01*
X333644Y116450D02*
X332844Y118050D01*
X334444D01*
X333644Y116450D01*
Y116850D02*
X333244Y117650D01*
X334044D01*
X333644Y116850D01*
X329644Y116450D02*
X328844Y118050D01*
X330444D01*
X329644Y116450D01*
Y116850D02*
X329244Y117650D01*
X330044D01*
X329644Y116850D01*
Y112450D02*
X328844Y114050D01*
X330444D01*
X329644Y112450D01*
Y112850D02*
X329244Y113650D01*
X330044D01*
X329644Y112850D01*
X333644Y112450D02*
X332844Y114050D01*
X334444D01*
X333644Y112450D01*
Y112850D02*
X333244Y113650D01*
X334044D01*
X333644Y112850D01*
X337644Y112450D02*
X336844Y114050D01*
X338444D01*
X337644Y112450D01*
Y112850D02*
X337244Y113650D01*
X338044D01*
X337644Y112850D01*
X341644Y112450D02*
X340844Y114050D01*
X342444D01*
X341644Y112450D01*
Y112850D02*
X341244Y113650D01*
X342044D01*
X341644Y112850D01*
Y108450D02*
X340844Y110050D01*
X342444D01*
X341644Y108450D01*
Y108850D02*
X341244Y109650D01*
X342044D01*
X341644Y108850D01*
Y104450D02*
X340844Y106050D01*
X342444D01*
X341644Y104450D01*
Y104850D02*
X341244Y105650D01*
X342044D01*
X341644Y104850D01*
Y100450D02*
X340844Y102050D01*
X342444D01*
X341644Y100450D01*
Y100850D02*
X341244Y101650D01*
X342044D01*
X341644Y100850D01*
Y96450D02*
X340844Y98050D01*
X342444D01*
X341644Y96450D01*
Y96850D02*
X341244Y97650D01*
X342044D01*
X341644Y96850D01*
X337644Y96450D02*
X336844Y98050D01*
X338444D01*
X337644Y96450D01*
Y96850D02*
X337244Y97650D01*
X338044D01*
X337644Y96850D01*
X333644Y96450D02*
X332844Y98050D01*
X334444D01*
X333644Y96450D01*
Y96850D02*
X333244Y97650D01*
X334044D01*
X333644Y96850D01*
X329644Y96450D02*
X328844Y98050D01*
X330444D01*
X329644Y96450D01*
Y96850D02*
X329244Y97650D01*
X330044D01*
X329644Y96850D01*
X325644Y96450D02*
X324844Y98050D01*
X326444D01*
X325644Y96450D01*
Y96850D02*
X325244Y97650D01*
X326044D01*
X325644Y96850D01*
X332000Y285700D02*
X331200Y287300D01*
X332800D01*
X332000Y285700D01*
Y286100D02*
X331600Y286900D01*
X332400D01*
X332000Y286100D01*
X328000Y285700D02*
X327200Y287300D01*
X328800D01*
X328000Y285700D01*
Y286100D02*
X327600Y286900D01*
X328400D01*
X328000Y286100D01*
X324000Y285700D02*
X323200Y287300D01*
X324800D01*
X324000Y285700D01*
Y286100D02*
X323600Y286900D01*
X324400D01*
X324000Y286100D01*
X316000Y301700D02*
X315200Y303300D01*
X316800D01*
X316000Y301700D01*
Y302100D02*
X315600Y302900D01*
X316400D01*
X316000Y302100D01*
X320000Y285700D02*
X319200Y287300D01*
X320800D01*
X320000Y285700D01*
Y286100D02*
X319600Y286900D01*
X320400D01*
X320000Y286100D01*
Y305700D02*
X319200Y307300D01*
X320800D01*
X320000Y305700D01*
Y306100D02*
X319600Y306900D01*
X320400D01*
X320000Y306100D01*
Y301700D02*
X319200Y303300D01*
X320800D01*
X320000Y301700D01*
Y302100D02*
X319600Y302900D01*
X320400D01*
X320000Y302100D01*
X316000Y289700D02*
X315200Y291300D01*
X316800D01*
X316000Y289700D01*
Y290100D02*
X315600Y290900D01*
X316400D01*
X316000Y290100D01*
Y293700D02*
X315200Y295300D01*
X316800D01*
X316000Y293700D01*
Y294100D02*
X315600Y294900D01*
X316400D01*
X316000Y294100D01*
Y297700D02*
X315200Y299300D01*
X316800D01*
X316000Y297700D01*
Y298100D02*
X315600Y298900D01*
X316400D01*
X316000Y298100D01*
X320000Y297700D02*
X319200Y299300D01*
X320800D01*
X320000Y297700D01*
Y298100D02*
X319600Y298900D01*
X320400D01*
X320000Y298100D01*
Y289700D02*
X319200Y291300D01*
X320800D01*
X320000Y289700D01*
Y290100D02*
X319600Y290900D01*
X320400D01*
X320000Y290100D01*
Y293700D02*
X319200Y295300D01*
X320800D01*
X320000Y293700D01*
Y294100D02*
X319600Y294900D01*
X320400D01*
X320000Y294100D01*
X324000Y305700D02*
X323200Y307300D01*
X324800D01*
X324000Y305700D01*
Y306100D02*
X323600Y306900D01*
X324400D01*
X324000Y306100D01*
X328000Y305700D02*
X327200Y307300D01*
X328800D01*
X328000Y305700D01*
Y306100D02*
X327600Y306900D01*
X328400D01*
X328000Y306100D01*
X332000Y305700D02*
X331200Y307300D01*
X332800D01*
X332000Y305700D01*
Y306100D02*
X331600Y306900D01*
X332400D01*
X332000Y306100D01*
X336000Y305700D02*
X335200Y307300D01*
X336800D01*
X336000Y305700D01*
Y306100D02*
X335600Y306900D01*
X336400D01*
X336000Y306100D01*
Y301700D02*
X335200Y303300D01*
X336800D01*
X336000Y301700D01*
Y302100D02*
X335600Y302900D01*
X336400D01*
X336000Y302100D01*
X332000Y301700D02*
X331200Y303300D01*
X332800D01*
X332000Y301700D01*
Y302100D02*
X331600Y302900D01*
X332400D01*
X332000Y302100D01*
X328000Y301700D02*
X327200Y303300D01*
X328800D01*
X328000Y301700D01*
Y302100D02*
X327600Y302900D01*
X328400D01*
X328000Y302100D01*
X324000Y301700D02*
X323200Y303300D01*
X324800D01*
X324000Y301700D01*
Y302100D02*
X323600Y302900D01*
X324400D01*
X324000Y302100D01*
X129500Y72200D02*
X128700Y73800D01*
X130300D01*
X129500Y72200D01*
Y72600D02*
X129100Y73400D01*
X129900D01*
X129500Y72600D01*
X148573Y196700D02*
X147773Y198300D01*
X149373D01*
X148573Y196700D01*
Y197100D02*
X148173Y197900D01*
X148973D01*
X148573Y197100D01*
Y186700D02*
X147773Y188300D01*
X149373D01*
X148573Y186700D01*
Y187100D02*
X148173Y187900D01*
X148973D01*
X148573Y187100D01*
X150351Y123200D02*
X149551Y124800D01*
X151151D01*
X150351Y123200D01*
Y123600D02*
X149951Y124400D01*
X150751D01*
X150351Y123600D01*
Y116200D02*
X149551Y117800D01*
X151151D01*
X150351Y116200D01*
Y116600D02*
X149951Y117400D01*
X150751D01*
X150351Y116600D01*
X150651Y92200D02*
X149851Y93800D01*
X151451D01*
X150651Y92200D01*
Y92600D02*
X150251Y93400D01*
X151051D01*
X150651Y92600D01*
X161000Y161326D02*
X160200Y162926D01*
X161800D01*
X161000Y161326D01*
Y161726D02*
X160600Y162526D01*
X161400D01*
X161000Y161726D01*
X126000Y72200D02*
X125200Y73800D01*
X126800D01*
X126000Y72200D01*
Y72600D02*
X125600Y73400D01*
X126400D01*
X126000Y72600D01*
X148573Y206700D02*
X147773Y208300D01*
X149373D01*
X148573Y206700D01*
Y207100D02*
X148173Y207900D01*
X148973D01*
X148573Y207100D01*
X145400Y239200D02*
X144600Y240800D01*
X146200D01*
X145400Y239200D01*
Y239600D02*
X145000Y240400D01*
X145800D01*
X145400Y239600D01*
X138300Y310700D02*
X137500Y312300D01*
X139100D01*
X138300Y310700D01*
Y311100D02*
X137900Y311900D01*
X138700D01*
X138300Y311100D01*
X134800Y300200D02*
X134000Y301800D01*
X135600D01*
X134800Y300200D01*
Y300600D02*
X134400Y301400D01*
X135200D01*
X134800Y300600D01*
X152851Y234200D02*
X152051Y235800D01*
X153651D01*
X152851Y234200D01*
Y234600D02*
X152451Y235400D01*
X153251D01*
X152851Y234600D01*
X156351Y223200D02*
X155551Y224800D01*
X157151D01*
X156351Y223200D01*
Y223600D02*
X155951Y224400D01*
X156751D01*
X156351Y223600D01*
X149651Y290200D02*
X148851Y291800D01*
X150451D01*
X149651Y290200D01*
Y290600D02*
X149251Y291400D01*
X150051D01*
X149651Y290600D01*
X150651Y203200D02*
X149851Y204800D01*
X151451D01*
X150651Y203200D01*
Y203600D02*
X150251Y204400D01*
X151051D01*
X150651Y203600D01*
X170500Y20200D02*
X169700Y21800D01*
X171300D01*
X170500Y20200D01*
Y20600D02*
X170100Y21400D01*
X170900D01*
X170500Y20600D01*
X186651Y18200D02*
X185851Y19800D01*
X187451D01*
X186651Y18200D01*
Y18600D02*
X186251Y19400D01*
X187051D01*
X186651Y18600D01*
X182000Y43700D02*
X181200Y45300D01*
X182800D01*
X182000Y43700D01*
Y44100D02*
X181600Y44900D01*
X182400D01*
X182000Y44100D01*
X367000Y140200D02*
X366200Y141800D01*
X367800D01*
X367000Y140200D01*
Y140600D02*
X366600Y141400D01*
X367400D01*
X367000Y140600D01*
X198500Y280700D02*
X197700Y282300D01*
X199300D01*
X198500Y280700D01*
Y281100D02*
X198100Y281900D01*
X198900D01*
X198500Y281100D01*
X202500Y284700D02*
X201700Y286300D01*
X203300D01*
X202500Y284700D01*
Y285100D02*
X202100Y285900D01*
X202900D01*
X202500Y285100D01*
X206500Y284700D02*
X205700Y286300D01*
X207300D01*
X206500Y284700D01*
Y285100D02*
X206100Y285900D01*
X206900D01*
X206500Y285100D01*
Y272700D02*
X205700Y274300D01*
X207300D01*
X206500Y272700D01*
Y273100D02*
X206100Y273900D01*
X206900D01*
X206500Y273100D01*
X210500Y276700D02*
X209700Y278300D01*
X211300D01*
X210500Y276700D01*
Y277100D02*
X210100Y277900D01*
X210900D01*
X210500Y277100D01*
X202500Y280700D02*
X201700Y282300D01*
X203300D01*
X202500Y280700D01*
Y281100D02*
X202100Y281900D01*
X202900D01*
X202500Y281100D01*
X206500Y276700D02*
X205700Y278300D01*
X207300D01*
X206500Y276700D01*
Y277100D02*
X206100Y277900D01*
X206900D01*
X206500Y277100D01*
X192000Y262200D02*
X191200Y263800D01*
X192800D01*
X192000Y262200D01*
Y262600D02*
X191600Y263400D01*
X192400D01*
X192000Y262600D01*
X196000Y262200D02*
X195200Y263800D01*
X196800D01*
X196000Y262200D01*
Y262600D02*
X195600Y263400D01*
X196400D01*
X196000Y262600D01*
X200000Y266200D02*
X199200Y267800D01*
X200800D01*
X200000Y266200D01*
Y266600D02*
X199600Y267400D01*
X200400D01*
X200000Y266600D01*
X196000Y266200D02*
X195200Y267800D01*
X196800D01*
X196000Y266200D01*
Y266600D02*
X195600Y267400D01*
X196400D01*
X196000Y266600D01*
X192000Y266200D02*
X191200Y267800D01*
X192800D01*
X192000Y266200D01*
Y266600D02*
X191600Y267400D01*
X192400D01*
X192000Y266600D01*
X200000Y262200D02*
X199200Y263800D01*
X200800D01*
X200000Y262200D01*
Y262600D02*
X199600Y263400D01*
X200400D01*
X200000Y262600D01*
X192000Y258200D02*
X191200Y259800D01*
X192800D01*
X192000Y258200D01*
Y258600D02*
X191600Y259400D01*
X192400D01*
X192000Y258600D01*
X210500Y280700D02*
X209700Y282300D01*
X211300D01*
X210500Y280700D01*
Y281100D02*
X210100Y281900D01*
X210900D01*
X210500Y281100D01*
X196000Y258200D02*
X195200Y259800D01*
X196800D01*
X196000Y258200D01*
Y258600D02*
X195600Y259400D01*
X196400D01*
X196000Y258600D01*
X206500Y280700D02*
X205700Y282300D01*
X207300D01*
X206500Y280700D01*
Y281100D02*
X206100Y281900D01*
X206900D01*
X206500Y281100D01*
X200000Y258200D02*
X199200Y259800D01*
X200800D01*
X200000Y258200D01*
Y258600D02*
X199600Y259400D01*
X200400D01*
X200000Y258600D01*
X196000Y254200D02*
X195200Y255800D01*
X196800D01*
X196000Y254200D01*
Y254600D02*
X195600Y255400D01*
X196400D01*
X196000Y254600D01*
X345500Y62700D02*
X344700Y64300D01*
X346300D01*
X345500Y62700D01*
Y63100D02*
X345100Y63900D01*
X345900D01*
X345500Y63100D01*
X231500Y255700D02*
X230700Y257300D01*
X232300D01*
X231500Y255700D01*
Y256100D02*
X231100Y256900D01*
X231900D01*
X231500Y256100D01*
X208000Y195700D02*
X207200Y197300D01*
X208800D01*
X208000Y195700D01*
Y196100D02*
X207600Y196900D01*
X208400D01*
X208000Y196100D01*
Y181700D02*
X207200Y183300D01*
X208800D01*
X208000Y181700D01*
Y182100D02*
X207600Y182900D01*
X208400D01*
X208000Y182100D01*
X129600Y120700D02*
X128800Y122300D01*
X130400D01*
X129600Y120700D01*
Y121100D02*
X129200Y121900D01*
X130000D01*
X129600Y121100D01*
X273000Y381200D02*
X272200Y382800D01*
X273800D01*
X273000Y381200D01*
Y381600D02*
X272600Y382400D01*
X273400D01*
X273000Y381600D01*
Y363700D02*
X272200Y365300D01*
X273800D01*
X273000Y363700D01*
Y364100D02*
X272600Y364900D01*
X273400D01*
X273000Y364100D01*
X246100Y14300D02*
X245300Y15900D01*
X246900D01*
X246100Y14300D01*
Y14700D02*
X245700Y15500D01*
X246500D01*
X246100Y14700D01*
X293000Y352700D02*
X292200Y354300D01*
X293800D01*
X293000Y352700D01*
Y353100D02*
X292600Y353900D01*
X293400D01*
X293000Y353100D01*
X289000Y358700D02*
X288200Y360300D01*
X289800D01*
X289000Y358700D01*
Y359100D02*
X288600Y359900D01*
X289400D01*
X289000Y359100D01*
X91905Y121200D02*
X91106Y122800D01*
X92706D01*
X91905Y121200D01*
Y121600D02*
X91505Y122400D01*
X92305D01*
X91905Y121600D01*
X182000Y295200D02*
X181200Y296800D01*
X182800D01*
X182000Y295200D01*
Y295600D02*
X181600Y296400D01*
X182400D01*
X182000Y295600D01*
X184000Y314700D02*
X183200Y316300D01*
X184800D01*
X184000Y314700D01*
Y315100D02*
X183600Y315900D01*
X184400D01*
X184000Y315100D01*
X187281Y281700D02*
X186481Y283300D01*
X188081D01*
X187281Y281700D01*
Y282100D02*
X186881Y282900D01*
X187681D01*
X187281Y282100D01*
X184500Y227200D02*
X183700Y228800D01*
X185300D01*
X184500Y227200D01*
Y227600D02*
X184100Y228400D01*
X184900D01*
X184500Y227600D01*
X182500Y203200D02*
X181700Y204800D01*
X183300D01*
X182500Y203200D01*
Y203600D02*
X182100Y204400D01*
X182900D01*
X182500Y203600D01*
Y213200D02*
X181700Y214800D01*
X183300D01*
X182500Y213200D01*
Y213600D02*
X182100Y214400D01*
X182900D01*
X182500Y213600D01*
Y131200D02*
X181700Y132800D01*
X183300D01*
X182500Y131200D01*
Y131600D02*
X182100Y132400D01*
X182900D01*
X182500Y131600D01*
Y102200D02*
X181700Y103800D01*
X183300D01*
X182500Y102200D01*
Y102600D02*
X182100Y103400D01*
X182900D01*
X182500Y102600D01*
X330500Y41200D02*
X329700Y42800D01*
X331300D01*
X330500Y41200D01*
Y41600D02*
X330100Y42400D01*
X330900D01*
X330500Y41600D01*
X219000Y28200D02*
X218200Y29800D01*
X219800D01*
X219000Y28200D01*
Y28600D02*
X218600Y29400D01*
X219400D01*
X219000Y28600D01*
X175600Y38700D02*
X174800Y40300D01*
X176400D01*
X175600Y38700D01*
Y39100D02*
X175200Y39900D01*
X176000D01*
X175600Y39100D01*
X225500Y363200D02*
X224700Y364800D01*
X226300D01*
X225500Y363200D01*
Y363600D02*
X225100Y364400D01*
X225900D01*
X225500Y363600D01*
X116000Y20200D02*
X115200Y21800D01*
X116800D01*
X116000Y20200D01*
Y20600D02*
X115600Y21400D01*
X116400D01*
X116000Y20600D01*
X106500Y20200D02*
X105700Y21800D01*
X107300D01*
X106500Y20200D01*
Y20600D02*
X106100Y21400D01*
X106900D01*
X106500Y20600D01*
X135500Y243200D02*
X134700Y244800D01*
X136300D01*
X135500Y243200D01*
Y243600D02*
X135100Y244400D01*
X135900D01*
X135500Y243600D01*
X111094Y142700D02*
X110294Y144300D01*
X111895D01*
X111094Y142700D01*
Y143100D02*
X110695Y143900D01*
X111495D01*
X111094Y143100D01*
X98024Y143224D02*
X97224Y144824D01*
X98824D01*
X98024Y143224D01*
Y143624D02*
X97624Y144424D01*
X98424D01*
X98024Y143624D01*
X98000Y146700D02*
X97200Y148300D01*
X98800D01*
X98000Y146700D01*
Y147100D02*
X97600Y147900D01*
X98400D01*
X98000Y147100D01*
X155500Y345200D02*
X154700Y346800D01*
X156300D01*
X155500Y345200D01*
Y345600D02*
X155100Y346400D01*
X155900D01*
X155500Y345600D01*
X145500Y345200D02*
X144700Y346800D01*
X146300D01*
X145500Y345200D01*
Y345600D02*
X145100Y346400D01*
X145900D01*
X145500Y345600D01*
X80961Y147161D02*
X80161Y148761D01*
X81761D01*
X80961Y147161D01*
Y147561D02*
X80561Y148361D01*
X81361D01*
X80961Y147561D01*
X81000Y150700D02*
X80200Y152300D01*
X81800D01*
X81000Y150700D01*
Y151100D02*
X80600Y151900D01*
X81400D01*
X81000Y151100D01*
D95*
X236800Y333500D02*
G03*
X236800Y333500I-800J0D01*
G01*
X256800D02*
G03*
X256800Y333500I-800J0D01*
G01*
X291800Y47500D02*
G03*
X291800Y47500I-800J0D01*
G01*
X271800D02*
G03*
X271800Y47500I-800J0D01*
G01*
X367800Y315000D02*
G03*
X367800Y315000I-800J0D01*
G01*
Y335000D02*
G03*
X367800Y335000I-800J0D01*
G01*
X57800Y323500D02*
G03*
X57800Y323500I-800J0D01*
G01*
Y341700D02*
G03*
X57800Y341700I-800J0D01*
G01*
Y360000D02*
G03*
X57800Y360000I-800J0D01*
G01*
D96*
X57400Y323500D02*
G03*
X57400Y323500I-400J0D01*
G01*
Y341700D02*
G03*
X57400Y341700I-400J0D01*
G01*
Y360000D02*
G03*
X57400Y360000I-400J0D01*
G01*
M02*
