G04*
G04 #@! TF.GenerationSoftware,Altium Limited,Altium Designer,18.1.9 (240)*
G04*
G04 Layer_Color=16711935*
%FSLAX25Y25*%
%MOIN*%
G70*
G01*
G75*
%ADD37O,0.15367X0.15367*%
%ADD38R,0.12611X0.26391*%
%ADD39C,0.06706*%
%ADD40R,0.06706X0.06706*%
%ADD41R,0.06706X0.06706*%
%ADD42R,0.07099X0.07099*%
%ADD43C,0.07099*%
%ADD44C,0.08674*%
%ADD45C,0.05524*%
%ADD46R,0.06706X0.06706*%
%ADD47C,0.06706*%
%ADD48R,0.07099X0.08674*%
%ADD49R,0.12611X0.20485*%
D37*
X374016Y374016D02*
D03*
X19685Y374016D02*
D03*
X374016Y19685D02*
D03*
X19685D02*
D03*
D38*
X236000Y355500D02*
D03*
X263559D02*
D03*
X291118D02*
D03*
D39*
X213000Y345000D02*
D03*
X150500D02*
D03*
X81000D02*
D03*
X91000D02*
D03*
X101000D02*
D03*
X111000D02*
D03*
X121000D02*
D03*
X38500Y294200D02*
D03*
Y284200D02*
D03*
Y274200D02*
D03*
X305500Y263200D02*
D03*
X218500D02*
D03*
X206500Y40151D02*
D03*
X196500D02*
D03*
X186500D02*
D03*
X44000Y104000D02*
D03*
X351500Y43500D02*
D03*
X38500Y213600D02*
D03*
Y203600D02*
D03*
Y193600D02*
D03*
Y183600D02*
D03*
Y173600D02*
D03*
X264000Y40151D02*
D03*
X254000D02*
D03*
X244000D02*
D03*
D40*
X203000Y345000D02*
D03*
X160500D02*
D03*
X131000D02*
D03*
X315500Y263200D02*
D03*
X228500D02*
D03*
X216500Y40151D02*
D03*
X234000D02*
D03*
D41*
X38500Y304200D02*
D03*
X44000Y114000D02*
D03*
X351500Y53500D02*
D03*
X38500Y223600D02*
D03*
D42*
X361333Y246400D02*
D03*
X267667D02*
D03*
X361667Y208500D02*
D03*
X220833Y246400D02*
D03*
X314500D02*
D03*
X221167Y208500D02*
D03*
X268000D02*
D03*
X314833D02*
D03*
D43*
X351333Y246400D02*
D03*
X341333D02*
D03*
X257667D02*
D03*
X247667D02*
D03*
X351667Y208500D02*
D03*
X341667D02*
D03*
X77500Y58500D02*
D03*
Y48500D02*
D03*
X320500Y78500D02*
D03*
X300500D02*
D03*
X325500Y343000D02*
D03*
Y363000D02*
D03*
X200833Y246400D02*
D03*
X210833D02*
D03*
X294500D02*
D03*
X304500D02*
D03*
X201167Y208500D02*
D03*
X211167D02*
D03*
X248000D02*
D03*
X258000D02*
D03*
X294833D02*
D03*
X304833D02*
D03*
D44*
X164333Y330563D02*
D03*
Y288437D02*
D03*
X182500Y330563D02*
D03*
Y288437D02*
D03*
X146167Y330563D02*
D03*
Y288437D02*
D03*
X128000Y330563D02*
D03*
Y288437D02*
D03*
D45*
X86900Y149500D02*
D03*
X66900D02*
D03*
X106193D02*
D03*
X126193D02*
D03*
D46*
X86900Y130000D02*
D03*
D47*
X106100Y130000D02*
D03*
D48*
X50200Y52189D02*
D03*
Y64000D02*
D03*
Y75811D02*
D03*
D49*
X296300Y36500D02*
D03*
X314500D02*
D03*
X332800D02*
D03*
M02*
