G04*
G04 #@! TF.GenerationSoftware,Altium Limited,Altium Designer,18.1.9 (240)*
G04*
G04 Layer_Color=8388736*
%FSLAX25Y25*%
%MOIN*%
G70*
G01*
G75*
%ADD28O,0.09453X0.03162*%
%ADD29R,0.10249X0.13792*%
%ADD30R,0.10249X0.04737*%
%ADD31R,0.04500X0.04000*%
%ADD32R,0.04000X0.04500*%
%ADD33O,0.03162X0.09461*%
%ADD34R,0.07887X0.08674*%
%ADD35O,0.01981X0.07887*%
%ADD36O,0.07887X0.01981*%
%ADD37O,0.15367X0.15367*%
%ADD38R,0.12611X0.26391*%
%ADD39C,0.06706*%
%ADD40R,0.06706X0.06706*%
%ADD41R,0.06706X0.06706*%
%ADD42R,0.07099X0.07099*%
%ADD43C,0.07099*%
%ADD44C,0.08674*%
%ADD45C,0.05524*%
%ADD46R,0.06706X0.06706*%
%ADD47C,0.06706*%
%ADD48R,0.07099X0.08674*%
%ADD49R,0.12611X0.20485*%
D28*
X211173Y128000D02*
D03*
Y123000D02*
D03*
X182827D02*
D03*
Y128000D02*
D03*
Y168000D02*
D03*
Y163000D02*
D03*
Y158000D02*
D03*
Y153000D02*
D03*
Y148000D02*
D03*
Y143000D02*
D03*
Y138000D02*
D03*
Y133000D02*
D03*
X211173D02*
D03*
Y138000D02*
D03*
Y143000D02*
D03*
Y148000D02*
D03*
Y153000D02*
D03*
Y158000D02*
D03*
Y163000D02*
D03*
Y168000D02*
D03*
D29*
X139917Y67055D02*
D03*
D30*
X117083Y58000D02*
D03*
Y67055D02*
D03*
Y76110D02*
D03*
D31*
X134900Y94500D02*
D03*
X128500D02*
D03*
X143500D02*
D03*
X149900D02*
D03*
X253600Y326000D02*
D03*
X260000D02*
D03*
X244000D02*
D03*
X237600D02*
D03*
X158200Y278000D02*
D03*
X151800D02*
D03*
X294333Y176000D02*
D03*
X287933D02*
D03*
X261500D02*
D03*
X255100D02*
D03*
X256500Y134000D02*
D03*
X250100D02*
D03*
X272900D02*
D03*
X266500D02*
D03*
X289333D02*
D03*
X282933D02*
D03*
X305733D02*
D03*
X299333D02*
D03*
X312850Y116001D02*
D03*
X306450D02*
D03*
X322167Y134000D02*
D03*
X315767D02*
D03*
X338567D02*
D03*
X332167D02*
D03*
X355000D02*
D03*
X348600D02*
D03*
X371400D02*
D03*
X365000D02*
D03*
X322333Y116000D02*
D03*
X328733D02*
D03*
X86600Y193500D02*
D03*
X93000D02*
D03*
X55200Y203500D02*
D03*
X48800D02*
D03*
X55200Y193600D02*
D03*
X48800D02*
D03*
X107173Y216500D02*
D03*
X100773D02*
D03*
X144000Y201827D02*
D03*
X150400D02*
D03*
X147300Y192500D02*
D03*
X153700D02*
D03*
X107173Y165500D02*
D03*
X100773D02*
D03*
X99700Y116000D02*
D03*
X93300D02*
D03*
X320767Y176000D02*
D03*
X327167D02*
D03*
X353600Y175673D02*
D03*
X360000D02*
D03*
X195800Y303500D02*
D03*
X202200D02*
D03*
X277667Y260700D02*
D03*
X271267D02*
D03*
X353267Y259800D02*
D03*
X359667D02*
D03*
X246400Y292700D02*
D03*
X240000D02*
D03*
X335567D02*
D03*
X329167D02*
D03*
D32*
X140500Y271400D02*
D03*
Y265000D02*
D03*
X99000Y260900D02*
D03*
Y254500D02*
D03*
X117083Y38100D02*
D03*
Y44500D02*
D03*
Y29500D02*
D03*
Y23100D02*
D03*
X105500Y67055D02*
D03*
Y73455D02*
D03*
Y58000D02*
D03*
Y51600D02*
D03*
X97000Y58000D02*
D03*
Y51600D02*
D03*
Y67055D02*
D03*
Y73455D02*
D03*
X228500Y276200D02*
D03*
Y282600D02*
D03*
X218500D02*
D03*
Y276200D02*
D03*
X315500D02*
D03*
Y282600D02*
D03*
X305500D02*
D03*
Y276200D02*
D03*
X243500Y149000D02*
D03*
Y142600D02*
D03*
X276333Y149000D02*
D03*
Y142600D02*
D03*
X342000Y149000D02*
D03*
Y142600D02*
D03*
X309167Y149000D02*
D03*
Y142600D02*
D03*
X88500Y275500D02*
D03*
Y281900D02*
D03*
X99000Y275500D02*
D03*
Y281900D02*
D03*
X88500Y260900D02*
D03*
Y254500D02*
D03*
X93000Y180173D02*
D03*
Y186573D02*
D03*
X87000Y180500D02*
D03*
Y174100D02*
D03*
X81000D02*
D03*
Y180500D02*
D03*
X152500Y150300D02*
D03*
Y156700D02*
D03*
X146055D02*
D03*
Y150300D02*
D03*
X139555Y156700D02*
D03*
Y150300D02*
D03*
X264000Y56000D02*
D03*
Y62400D02*
D03*
X254000Y56000D02*
D03*
Y62400D02*
D03*
X196500Y56000D02*
D03*
Y62400D02*
D03*
X186500Y56000D02*
D03*
Y62400D02*
D03*
X213000Y103100D02*
D03*
Y109500D02*
D03*
X220500Y168000D02*
D03*
Y161600D02*
D03*
D33*
X162500Y264949D02*
D03*
X157500D02*
D03*
X152500D02*
D03*
X147500D02*
D03*
X162500Y246051D02*
D03*
X157500D02*
D03*
X152500D02*
D03*
X147500D02*
D03*
X255000Y282098D02*
D03*
X250000D02*
D03*
X245000D02*
D03*
X240000D02*
D03*
X255000Y263200D02*
D03*
X250000D02*
D03*
X245000D02*
D03*
X240000D02*
D03*
X329167D02*
D03*
X334167D02*
D03*
X339167D02*
D03*
X344167D02*
D03*
X329167Y282098D02*
D03*
X334167D02*
D03*
X339167D02*
D03*
X344167D02*
D03*
X266500Y162898D02*
D03*
X261500D02*
D03*
X256500D02*
D03*
X251500D02*
D03*
X266500Y144000D02*
D03*
X261500D02*
D03*
X256500D02*
D03*
X251500D02*
D03*
X299333Y162898D02*
D03*
X294333D02*
D03*
X289333D02*
D03*
X284333D02*
D03*
X299333Y144000D02*
D03*
X294333D02*
D03*
X289333D02*
D03*
X284333D02*
D03*
X332167Y162898D02*
D03*
X327167D02*
D03*
X322167D02*
D03*
X317167D02*
D03*
X332167Y144000D02*
D03*
X327167D02*
D03*
X322167D02*
D03*
X317167D02*
D03*
X365000Y162898D02*
D03*
X360000D02*
D03*
X355000D02*
D03*
X350000D02*
D03*
X365000Y144000D02*
D03*
X360000D02*
D03*
X355000D02*
D03*
X350000D02*
D03*
D34*
X342000Y189248D02*
D03*
Y173500D02*
D03*
X309167Y189248D02*
D03*
Y173500D02*
D03*
X276333Y189248D02*
D03*
Y173500D02*
D03*
X68500Y174100D02*
D03*
Y201659D02*
D03*
X242000Y162500D02*
D03*
Y178248D02*
D03*
D35*
X107173Y175055D02*
D03*
X109142D02*
D03*
X111110D02*
D03*
X113079D02*
D03*
X115047D02*
D03*
X117016D02*
D03*
X118984D02*
D03*
X120953D02*
D03*
X122921D02*
D03*
X124890D02*
D03*
X126858D02*
D03*
X128827D02*
D03*
Y206945D02*
D03*
X126858D02*
D03*
X124890D02*
D03*
X122921D02*
D03*
X120953D02*
D03*
X118984D02*
D03*
X117016D02*
D03*
X115047D02*
D03*
X113079D02*
D03*
X111110D02*
D03*
X109142D02*
D03*
X107173D02*
D03*
D36*
X133945Y180173D02*
D03*
Y182142D02*
D03*
Y184110D02*
D03*
Y186079D02*
D03*
Y188047D02*
D03*
Y190016D02*
D03*
Y191984D02*
D03*
Y193953D02*
D03*
Y195921D02*
D03*
Y197890D02*
D03*
Y199858D02*
D03*
Y201827D02*
D03*
X102055D02*
D03*
Y199858D02*
D03*
Y197890D02*
D03*
Y195921D02*
D03*
Y193953D02*
D03*
Y191984D02*
D03*
Y190016D02*
D03*
Y188047D02*
D03*
Y186079D02*
D03*
Y184110D02*
D03*
Y182142D02*
D03*
Y180173D02*
D03*
D37*
X374016Y374016D02*
D03*
X19685Y374016D02*
D03*
X374016Y19685D02*
D03*
X19685D02*
D03*
D38*
X236000Y355500D02*
D03*
X263559D02*
D03*
X291118D02*
D03*
D39*
X213000Y345000D02*
D03*
X150500D02*
D03*
X81000D02*
D03*
X91000D02*
D03*
X101000D02*
D03*
X111000D02*
D03*
X121000D02*
D03*
X38500Y294200D02*
D03*
Y284200D02*
D03*
Y274200D02*
D03*
X305500Y263200D02*
D03*
X218500D02*
D03*
X206500Y40151D02*
D03*
X196500D02*
D03*
X186500D02*
D03*
X44000Y104000D02*
D03*
X351500Y43500D02*
D03*
X38500Y213600D02*
D03*
Y203600D02*
D03*
Y193600D02*
D03*
Y183600D02*
D03*
Y173600D02*
D03*
X264000Y40151D02*
D03*
X254000D02*
D03*
X244000D02*
D03*
D40*
X203000Y345000D02*
D03*
X160500D02*
D03*
X131000D02*
D03*
X315500Y263200D02*
D03*
X228500D02*
D03*
X216500Y40151D02*
D03*
X234000D02*
D03*
D41*
X38500Y304200D02*
D03*
X44000Y114000D02*
D03*
X351500Y53500D02*
D03*
X38500Y223600D02*
D03*
D42*
X361333Y246400D02*
D03*
X267667D02*
D03*
X361667Y208500D02*
D03*
X220833Y246400D02*
D03*
X314500D02*
D03*
X221167Y208500D02*
D03*
X268000D02*
D03*
X314833D02*
D03*
D43*
X351333Y246400D02*
D03*
X341333D02*
D03*
X257667D02*
D03*
X247667D02*
D03*
X351667Y208500D02*
D03*
X341667D02*
D03*
X77500Y58500D02*
D03*
Y48500D02*
D03*
X320500Y78500D02*
D03*
X300500D02*
D03*
X325500Y343000D02*
D03*
Y363000D02*
D03*
X200833Y246400D02*
D03*
X210833D02*
D03*
X294500D02*
D03*
X304500D02*
D03*
X201167Y208500D02*
D03*
X211167D02*
D03*
X248000D02*
D03*
X258000D02*
D03*
X294833D02*
D03*
X304833D02*
D03*
D44*
X164333Y330563D02*
D03*
Y288437D02*
D03*
X182500Y330563D02*
D03*
Y288437D02*
D03*
X146167Y330563D02*
D03*
Y288437D02*
D03*
X128000Y330563D02*
D03*
Y288437D02*
D03*
D45*
X86900Y149500D02*
D03*
X66900D02*
D03*
X106193D02*
D03*
X126193D02*
D03*
D46*
X86900Y130000D02*
D03*
D47*
X106100Y130000D02*
D03*
D48*
X50200Y52189D02*
D03*
Y64000D02*
D03*
Y75811D02*
D03*
D49*
X296300Y36500D02*
D03*
X314500D02*
D03*
X332800D02*
D03*
M02*
