M48
;Layer_Color=9474304
;FILE_FORMAT=2:5
INCH,LZ
;TYPE=PLATED
T1F00S00C0.01000
T2F00S00C0.01181
T3F00S00C0.01600
T4F00S00C0.01800
T5F00S00C0.02756
T7F00S00C0.03543
T8F00S00C0.03937
T9F00S00C0.04724
T11F00S00C0.13780
%
T01
X02135Y0304
X0255Y0274367
X0344167Y02742
T02
X0055256Y0019
Y00225
Y0026
X0059
Y00225
Y0019
X0062744
Y00225
Y0026
X0086756Y0025267
Y0028767
Y0032267
X00905
Y0028767
Y0025267
X0094244
Y0028767
Y0032267
X0097Y00475
X01055
X01096Y00231
X0142423Y0025267
Y0028767
Y0032267
X0146167
Y0028767
Y0025267
X0149911
Y0028767
Y0032267
X01825Y0056
X01925
X025
X026
X0372756Y00905
Y0094
Y00975
X03765
Y0094
Y00905
X0380244
Y0094
Y00975
X0375Y0134
X0376756Y01615
Y0165
Y01685
X03805
Y0165
Y01615
X0384244
Y0165
Y01685
Y01795
Y0183
Y01865
X03805
Y0183
Y01795
X0376756
Y0183
Y01865
X0365Y01385
X0342
X0342167Y0134
X0332167Y0138667
X0309167Y0138
X0309333Y0134
X0299333Y01385
X0276333Y0138
X02765Y0134
X02665Y01385
X02435Y0138
X0243244Y012
Y01165
Y0113
X02395
Y01165
Y012
X0235756
Y01165
Y0113
X0213Y01145
X0217Y0123
Y0133
Y0143
Y0153
Y0163
X02235Y01616
X0213Y0095
X0227256Y0084
Y00805
Y0077
X0231
Y00805
Y0084
X0234744
Y00805
Y0077
X0342756Y008
Y00835
Y0087
X03465
Y00835
Y008
X0350244
Y00835
Y0087
X0328733Y0111267
X0193Y0111
Y01145
Y0118
X0189256
Y01145
Y0111
X0185512
Y01145
Y0118
X0177Y0123
Y0128
Y0138
Y0148
Y0158
Y0168
X0182756Y01765
Y018
Y01835
X01865
Y018
Y01765
X0190244
Y018
Y01835
X01583Y01925
X014Y019
Y0187
X0128Y0190016
Y0193
X0127487Y0199794
X0109203Y0200268
X0108Y0193
Y0190016
X00866Y01906
X0088Y0186573
X0077Y01805
X0078756Y0207119
Y0210619
X00825
Y0207119
X0086244
Y0210619
X00685Y0208
X00965Y01655
X012Y0166
X0127632Y013625
Y013275
Y012925
X0131376
Y013275
Y013625
X013512
Y013275
Y012925
X0139555Y014561
X0146055Y0145555
X0150756Y01185
Y0115
Y01115
X01545
Y0115
Y01185
X0158244
Y0115
Y01115
X0155Y00945
X0160506Y0087
Y00835
Y008
X016425
Y00835
Y0087
X0167994
Y00835
Y008
X01805Y00725
X01785Y00705
X01665Y00585
X016425Y005625
X011039Y007611
X01055Y0078
X0097
X0083684Y0084
Y00875
Y0091
X007994
Y00875
Y0084
X0076197
Y00875
Y0091
X01504Y0206
X0041244Y0137
Y01335
Y013
X00375
Y01335
Y0137
X0033756
Y01335
Y013
X0051256Y02425
Y0246
Y02495
X0055
Y0246
Y02425
X0053544Y03295
Y0333
Y03365
X00498
Y0333
Y03295
X0046056
Y0333
Y03365
X00605Y032
Y03165
Y0313
X0064244
Y03165
Y032
X0067988
Y03165
Y0313
X0068244Y0302
Y02985
Y0295
X00645
Y02985
Y0302
X0060756
Y02985
Y0295
X00885Y02865
X0099
X0093959Y0313
Y03165
Y032
X0090215
Y03165
Y0313
X0086471
Y03165
Y032
X0133256Y03135
Y031
Y03065
X0137
Y031
Y03135
X0140744
Y031
Y03065
X0171256
Y031
Y03135
X0175
Y031
Y03065
X0178744
Y031
Y03135
X01895Y03035
X0198256Y0315
Y03185
Y0322
X0202
Y03185
Y0315
X0205744
Y03185
Y0322
X0178744Y03455
Y0349
Y03525
X0175
Y0349
Y03455
X0171256
Y0349
Y03525
X01625Y0272
X01405Y0276
X0126244Y0252
Y02485
Y0245
X01225
Y02485
Y0252
X0118756
Y02485
Y0245
X0099Y02495
X00885
X0058744
Y0246
Y02425
X0078756Y0214119
X00825
X0086244
X0097Y02165
X0120782Y022
X0145226Y0221
Y02175
Y0214
X014897
Y02175
Y0221
X0152714
Y02175
Y0214
X0168756Y02215
Y0225
Y02285
X01725
Y0225
Y02215
X0176244
Y0225
Y02285
X01525Y0238
X0233833Y02862
Y02897
X0245Y0289
X0252756Y03075
Y0311
Y03145
X02565
Y0311
Y03075
X0260244
Y0311
Y03145
X02325Y0326
X0302756Y03155
Y0312
Y03085
X03065
Y0312
Y03155
X0310244
Y0312
Y03085
X0334167Y02882
X0353267Y0264233
X0277667Y0256167
X0347256Y03465
Y035
Y03535
X0351
Y035
Y03465
X0354744
Y035
Y03535
X03765Y03085
Y0305
Y03015
X0380244
Y0305
Y03085
X0383988
Y0305
Y03015
X0383744Y02785
Y0275
Y02715
X038
Y0275
Y02785
X0376256
Y0275
Y02715
X0376756Y02465
Y0243
Y02395
X03805
Y0243
Y02465
X0384244
Y0243
Y02395
X0053544Y0369
Y03725
Y0376
X00498
Y03725
Y0369
X0046056
Y03725
Y0376
T03
X0369Y0193
X0355Y0169
X03355Y01805
X0322167Y0169
X0303Y01805
X0289333Y0168833
X02695Y01805
X02565Y0168833
T04
X027Y0326
T05
X00669Y01495
X00869
X0106193
X0126193
T07
X01865Y0040151
X01965
X02065
X02165
X0234
X0244
X0254
X0264
X03515Y00435
Y00535
X01061Y013
X00869
X0044Y0114
Y0104
X00385Y01736
Y01836
Y01936
Y02036
Y02136
Y02236
Y02742
Y02842
Y02942
Y03042
X0081Y0345
X0091
X0101
X0111
X0121
X0131
X01505
X01605
X0203
X0213
X02185Y02632
X02285
X03055
X03155
T08
X00775Y00485
X03005Y00785
X03205
X0314833Y02085
X0304833
X0294833
X0268
X0258
X0248
X0221167
X0341667
X0351667
X0361667
X0211167
X0201167
X00775Y00585
X0200833Y02464
X0210833
X0220833
X0247667
X0257667
X0267667
X02945
X03045
X03145
X0341333
X0351333
X0361333
X03255Y0343
Y0363
T09
X0128Y0288437
X0146167
X0164333
X01825
Y0330563
X0164333
X0146167
X0128
T11
X0019685Y0019685
X0374016
Y0374016
X0019685Y0374016
M30
