M48
;Layer_Color=9474304
;FILE_FORMAT=2:5
INCH,LZ
;TYPE=PLATED
T2F00S00C0.03150
T6F00S00C0.05906
%
G90
G05
T02
G00X0023575Y0038189
M15
G01X0020425
M16
G00X0022Y0049606
M15
G01Y0050394
M16
G00X0022Y0061417
M15
G01Y0062205
M16
G00X0022Y0073228
M15
G01Y0074016
M16
G00X0023575Y0085433
M15
G01X0020425
M16
T06
G00X0356173Y019663
M15
G01X0377827
M16
G00X0356173Y0236
M15
G01X0377827
M16
G00X0356173Y027537
M15
G01X0377827
M16
G00X0054047Y03235
M15
G01X0059953
M16
G00X0054047Y03417
M15
G01X0059953
M16
G00X0054047Y036
M15
G01X0059953
M16
M17
M30
