G04*
G04 #@! TF.GenerationSoftware,Altium Limited,Altium Designer,18.1.9 (240)*
G04*
G04 Layer_Color=16711935*
%FSLAX25Y25*%
%MOIN*%
G70*
G01*
G75*
%ADD14C,0.00700*%
D14*
X378701Y0D02*
G03*
X393701Y15000I0J15000D01*
G01*
Y378701D02*
G03*
X378701Y393701I-15000J0D01*
G01*
X15000D02*
G03*
X0Y378701I0J-15000D01*
G01*
Y15000D02*
G03*
X15000Y0I15000J0D01*
G01*
X15750Y320000D02*
X24250D01*
Y314000D02*
Y320000D01*
X15750Y314000D02*
X24250D01*
X15750D02*
Y320000D01*
Y265500D02*
X24250D01*
Y259500D02*
Y265500D01*
X15750Y259500D02*
X24250D01*
X15750D02*
Y265500D01*
X11000Y309450D02*
X24500D01*
Y269950D02*
Y309450D01*
X11000Y269950D02*
X24500D01*
X11000D02*
Y309450D01*
X16000Y164500D02*
X24500D01*
Y158500D02*
Y164500D01*
X16000Y158500D02*
X24500D01*
X16000D02*
Y164500D01*
Y239000D02*
X24500D01*
Y233000D02*
Y239000D01*
X16000Y233000D02*
X24500D01*
X16000D02*
Y239000D01*
X10500Y229375D02*
X24500D01*
Y168625D02*
Y229375D01*
X10500Y168625D02*
X24500D01*
X10500D02*
Y229375D01*
X17000Y95000D02*
X25500D01*
Y89000D02*
Y95000D01*
X17000Y89000D02*
X25500D01*
X17000D02*
Y95000D01*
Y128500D02*
X25500D01*
Y122500D02*
Y128500D01*
X17000Y122500D02*
X25500D01*
X17000D02*
Y128500D01*
X10500Y119125D02*
X25500D01*
Y97875D02*
Y119125D01*
X10500Y97875D02*
X25500D01*
X10500D02*
Y119125D01*
X172000Y22000D02*
X178000D01*
Y13500D02*
Y22000D01*
X172000Y13500D02*
X178000D01*
X172000D02*
Y22000D01*
X181750D02*
X221250D01*
Y9500D02*
Y22000D01*
X181750Y9500D02*
X221250D01*
X181750D02*
Y22000D01*
X272500D02*
X278500D01*
Y13500D02*
Y22000D01*
X272500Y13500D02*
X278500D01*
X272500D02*
Y22000D01*
X229250D02*
X268750D01*
Y9500D02*
Y22000D01*
X229250Y9500D02*
X268750D01*
X229250D02*
Y22000D01*
X366000Y42000D02*
X374500D01*
Y36000D02*
Y42000D01*
X366000Y36000D02*
X374500D01*
X366000D02*
Y42000D01*
Y76500D02*
X374500D01*
Y70500D02*
Y76500D01*
X366000Y70500D02*
X374500D01*
X366000D02*
Y76500D01*
Y67000D02*
X380000D01*
Y45750D02*
Y67000D01*
X366000Y45750D02*
X380000D01*
X366000D02*
Y67000D01*
X346375Y293700D02*
X354375D01*
Y289700D02*
Y293700D01*
X346375Y289700D02*
X354375D01*
X346375D02*
Y293700D01*
X343000Y311750D02*
X354375D01*
X354375Y311750D01*
Y295500D02*
Y311750D01*
X354375Y295500D02*
X354375Y295500D01*
X343000Y295500D02*
X354375D01*
X343000D02*
Y311750D01*
X346375Y336000D02*
X354375D01*
Y332000D02*
Y336000D01*
X346375Y332000D02*
X354375D01*
X346375D02*
Y336000D01*
X343000Y330500D02*
X354375D01*
X354375Y330500D01*
Y313750D02*
Y330500D01*
Y313750D02*
X354375Y313750D01*
X343000D02*
X354375D01*
X343000D02*
Y330500D01*
X217000Y323500D02*
X232000D01*
X232000Y323500D01*
Y307125D02*
Y323500D01*
X232000Y307125D02*
X232000Y307125D01*
X217000Y307125D02*
X232000D01*
X217000Y307125D02*
X217000Y307125D01*
X217000Y307125D02*
Y323500D01*
X219000Y372000D02*
X225000D01*
Y363500D02*
Y372000D01*
X219000Y363500D02*
X225000D01*
X219000D02*
Y372000D01*
X194500Y377000D02*
X215750D01*
Y363500D02*
Y377000D01*
X194500Y363500D02*
X215750D01*
X194500D02*
Y377000D01*
X184500Y372000D02*
X190500D01*
Y363500D02*
Y372000D01*
X184500Y363500D02*
X190500D01*
X184500D02*
Y372000D01*
X170500D02*
X176500D01*
Y363500D02*
Y372000D01*
X170500Y363500D02*
X176500D01*
X170500D02*
Y372000D01*
X144750Y377000D02*
X166000D01*
Y363500D02*
Y377000D01*
X144750Y363500D02*
X166000D01*
X144750D02*
Y377000D01*
X75750D02*
X136500D01*
Y363500D02*
Y377000D01*
X75750Y363500D02*
X136500D01*
X75750D02*
Y377000D01*
X65500Y371750D02*
X71500D01*
Y363250D02*
Y371750D01*
X65500Y363250D02*
X71500D01*
X65500D02*
Y371750D01*
X393701Y15000D02*
Y378701D01*
X15000Y0D02*
X378701D01*
X15000Y393701D02*
X378701D01*
X0Y15000D02*
Y378701D01*
M02*
