G04*
G04 #@! TF.GenerationSoftware,Altium Limited,Altium Designer,18.1.9 (240)*
G04*
G04 Layer_Physical_Order=2*
G04 Layer_Color=16711680*
%FSLAX25Y25*%
%MOIN*%
G70*
G01*
G75*
%ADD10C,0.01000*%
%ADD17C,0.00600*%
%ADD50C,0.02000*%
%ADD51C,0.04000*%
%ADD52C,0.02500*%
%ADD53C,0.03000*%
%ADD54C,0.12500*%
%ADD55O,0.14567X0.14567*%
%ADD56R,0.11811X0.25591*%
%ADD57C,0.05906*%
%ADD58R,0.05906X0.05906*%
%ADD59R,0.05906X0.05906*%
%ADD60R,0.06299X0.06299*%
%ADD61C,0.06299*%
%ADD62C,0.07874*%
%ADD63C,0.04724*%
%ADD64R,0.05906X0.05906*%
%ADD65C,0.05906*%
%ADD66R,0.06299X0.07874*%
%ADD67R,0.11811X0.19685*%
%ADD68C,0.02362*%
%ADD69C,0.04000*%
%ADD70C,0.02500*%
%ADD71C,0.03000*%
%ADD72C,0.25000*%
%ADD73C,0.06000*%
%ADD74C,0.07000*%
G36*
X15000Y391738D02*
X190415D01*
X190731Y391377D01*
X190763Y379762D01*
X190805Y379555D01*
X190799Y379345D01*
X190902Y379072D01*
X190960Y378787D01*
X191078Y378612D01*
X191153Y378415D01*
X191352Y378203D01*
X191500Y377984D01*
Y374860D01*
X191000Y374449D01*
X190500Y374549D01*
X184500D01*
X183525Y374355D01*
X182698Y373802D01*
X182145Y372975D01*
X181951Y372000D01*
Y363500D01*
X182145Y362525D01*
X182698Y361698D01*
X183525Y361145D01*
X184500Y360951D01*
X190359D01*
X190597Y360814D01*
X190817Y360504D01*
X191026Y286131D01*
X163724Y258828D01*
X163171Y258001D01*
X162977Y257026D01*
Y233167D01*
X162939Y232882D01*
X162894Y232772D01*
X162719Y232545D01*
X162198Y232023D01*
X161645Y231196D01*
X161451Y230221D01*
X161451Y173196D01*
X160989Y173005D01*
X143670Y190324D01*
X143586Y190961D01*
X143215Y191856D01*
X142625Y192625D01*
X141856Y193215D01*
X140961Y193586D01*
X140000Y193713D01*
X139039Y193586D01*
X138144Y193215D01*
X137375Y192625D01*
X136785Y191856D01*
X136414Y190961D01*
X136287Y190000D01*
X136414Y189039D01*
X136637Y188500D01*
X136414Y187961D01*
X136287Y187000D01*
X136414Y186039D01*
X136785Y185144D01*
X137375Y184375D01*
X138144Y183785D01*
X139039Y183414D01*
X139676Y183330D01*
X145220Y177786D01*
X145029Y177324D01*
X135670D01*
X127073Y185921D01*
X127307Y186394D01*
X128000Y186303D01*
X128961Y186429D01*
X129856Y186800D01*
X130625Y187390D01*
X131215Y188159D01*
X131586Y189055D01*
X131713Y190016D01*
X131586Y190977D01*
X131366Y191508D01*
X131586Y192039D01*
X131713Y193000D01*
X131586Y193961D01*
X131215Y194856D01*
X130625Y195625D01*
X129856Y196215D01*
X128961Y196586D01*
X128324Y196670D01*
X117024Y207970D01*
Y218146D01*
X117524Y218245D01*
X117566Y218144D01*
X118156Y217375D01*
X118925Y216785D01*
X119821Y216414D01*
X120782Y216287D01*
X121743Y216414D01*
X122638Y216785D01*
X123148Y217176D01*
X134500D01*
X135231Y217272D01*
X135912Y217554D01*
X136497Y218003D01*
X152824Y234330D01*
X153461Y234414D01*
X154356Y234785D01*
X155125Y235375D01*
X155715Y236144D01*
X156086Y237039D01*
X156213Y238000D01*
X156086Y238961D01*
X155715Y239856D01*
X155125Y240625D01*
X154356Y241215D01*
X153461Y241586D01*
X152500Y241713D01*
X151539Y241586D01*
X150644Y241215D01*
X149875Y240625D01*
X149285Y239856D01*
X148914Y238961D01*
X148830Y238324D01*
X133330Y222824D01*
X123148D01*
X122638Y223215D01*
X121743Y223586D01*
X120782Y223713D01*
X119821Y223586D01*
X118925Y223215D01*
X118156Y222625D01*
X117566Y221856D01*
X117524Y221755D01*
X117024Y221854D01*
Y227997D01*
X116928Y228728D01*
X116646Y229409D01*
X116197Y229994D01*
X101824Y244367D01*
Y247134D01*
X102215Y247644D01*
X102586Y248539D01*
X102713Y249500D01*
X102586Y250461D01*
X102215Y251356D01*
X101625Y252125D01*
X100856Y252715D01*
X99961Y253086D01*
X99000Y253213D01*
X98039Y253086D01*
X97144Y252715D01*
X96375Y252125D01*
X95785Y251356D01*
X95414Y250461D01*
X95287Y249500D01*
X95414Y248539D01*
X95785Y247644D01*
X96176Y247134D01*
Y246021D01*
X93473D01*
X91755Y247739D01*
X92086Y248539D01*
X92213Y249500D01*
X92086Y250461D01*
X91715Y251356D01*
X91125Y252125D01*
X90356Y252715D01*
X89461Y253086D01*
X88500Y253213D01*
X87539Y253086D01*
X86644Y252715D01*
X85875Y252125D01*
X85285Y251356D01*
X84914Y250461D01*
X84787Y249500D01*
X84914Y248539D01*
X85285Y247644D01*
X85676Y247134D01*
Y247000D01*
X85772Y246269D01*
X86054Y245588D01*
X86503Y245003D01*
X90306Y241200D01*
X90891Y240751D01*
X91572Y240469D01*
X92303Y240373D01*
X96133D01*
X110176Y226330D01*
Y205016D01*
X110272Y204285D01*
X110554Y203604D01*
X111003Y203019D01*
X124245Y189777D01*
X124226Y189475D01*
X123714Y189280D01*
X117997Y194997D01*
X117412Y195446D01*
X116731Y195728D01*
X116000Y195824D01*
X110366D01*
X109856Y196215D01*
X108961Y196586D01*
X108000Y196713D01*
X107039Y196586D01*
X106144Y196215D01*
X105375Y195625D01*
X104785Y194856D01*
X104414Y193961D01*
X104287Y193000D01*
X104414Y192039D01*
X104634Y191508D01*
X104414Y190977D01*
X104287Y190016D01*
X104414Y189055D01*
X104785Y188159D01*
X105375Y187390D01*
X106144Y186800D01*
X107039Y186429D01*
X108000Y186303D01*
X108961Y186429D01*
X109856Y186800D01*
X110366Y187192D01*
X114767D01*
X130656Y171303D01*
X131241Y170854D01*
X131922Y170572D01*
X132653Y170476D01*
X149136D01*
X156676Y162936D01*
Y127303D01*
X156772Y126572D01*
X157054Y125891D01*
X157503Y125306D01*
X179757Y103052D01*
Y76115D01*
X179539Y76086D01*
X178644Y75715D01*
X177875Y75125D01*
X177285Y74356D01*
X177228Y74221D01*
X176779Y73772D01*
X176644Y73715D01*
X175875Y73125D01*
X175285Y72356D01*
X175228Y72221D01*
X164779Y61772D01*
X164644Y61715D01*
X163875Y61125D01*
X163285Y60356D01*
X163228Y60221D01*
X162529Y59522D01*
X162394Y59465D01*
X161625Y58875D01*
X161035Y58106D01*
X160664Y57211D01*
X160537Y56250D01*
X160664Y55289D01*
X161035Y54394D01*
X161625Y53625D01*
X162394Y53035D01*
X163289Y52664D01*
X164250Y52537D01*
X165211Y52664D01*
X166106Y53035D01*
X166875Y53625D01*
X167465Y54394D01*
X167522Y54529D01*
X168221Y55228D01*
X168356Y55285D01*
X169125Y55875D01*
X169715Y56644D01*
X169772Y56779D01*
X179295Y66303D01*
X179757Y66111D01*
Y58472D01*
X179285Y57856D01*
X178914Y56961D01*
X178787Y56000D01*
X178914Y55039D01*
X179285Y54144D01*
X179875Y53375D01*
X180644Y52785D01*
X181539Y52414D01*
X182500Y52287D01*
X183461Y52414D01*
X184356Y52785D01*
X185125Y53375D01*
X185715Y54144D01*
X186086Y55039D01*
X186213Y56000D01*
X186086Y56961D01*
X185715Y57856D01*
X185405Y58261D01*
Y98448D01*
X185867Y98639D01*
X189676Y94830D01*
Y58366D01*
X189285Y57856D01*
X188914Y56961D01*
X188787Y56000D01*
X188914Y55039D01*
X189285Y54144D01*
X189875Y53375D01*
X190644Y52785D01*
X191539Y52414D01*
X192500Y52287D01*
X193461Y52414D01*
X194356Y52785D01*
X195125Y53375D01*
X195715Y54144D01*
X196086Y55039D01*
X196213Y56000D01*
X196086Y56961D01*
X195715Y57856D01*
X195324Y58366D01*
Y94676D01*
X242830D01*
X247176Y90330D01*
Y58366D01*
X246785Y57856D01*
X246414Y56961D01*
X246287Y56000D01*
X246414Y55039D01*
X246785Y54144D01*
X247375Y53375D01*
X248144Y52785D01*
X249039Y52414D01*
X250000Y52287D01*
X250961Y52414D01*
X251856Y52785D01*
X252625Y53375D01*
X253215Y54144D01*
X253586Y55039D01*
X253713Y56000D01*
X253586Y56961D01*
X253215Y57856D01*
X252824Y58366D01*
Y85726D01*
X253286Y85917D01*
X257176Y82027D01*
Y58366D01*
X256785Y57856D01*
X256414Y56961D01*
X256287Y56000D01*
X256414Y55039D01*
X256785Y54144D01*
X257375Y53375D01*
X258144Y52785D01*
X259039Y52414D01*
X260000Y52287D01*
X260961Y52414D01*
X261856Y52785D01*
X262625Y53375D01*
X263215Y54144D01*
X263586Y55039D01*
X263713Y56000D01*
X263586Y56961D01*
X263215Y57856D01*
X262824Y58366D01*
Y83197D01*
X262728Y83928D01*
X262563Y84327D01*
X262446Y84609D01*
X261997Y85194D01*
X246494Y100697D01*
X245909Y101146D01*
X245228Y101428D01*
X244497Y101524D01*
X194364D01*
X191899Y103989D01*
X192090Y104451D01*
X314000D01*
X314976Y104645D01*
X315802Y105198D01*
X326556Y115951D01*
X391738D01*
Y15000D01*
X391758Y14899D01*
X391605Y12956D01*
X391127Y10962D01*
X390342Y9068D01*
X389271Y7320D01*
X387940Y5761D01*
X386381Y4430D01*
X384632Y3359D01*
X382738Y2574D01*
X380745Y2095D01*
X378802Y1942D01*
X378701Y1963D01*
X15000D01*
X14899Y1942D01*
X12956Y2095D01*
X10962Y2574D01*
X9068Y3359D01*
X7320Y4430D01*
X5761Y5761D01*
X4430Y7320D01*
X3359Y9068D01*
X2574Y10962D01*
X2095Y12956D01*
X1942Y14899D01*
X1963Y15000D01*
Y378701D01*
X1942Y378802D01*
X2095Y380745D01*
X2574Y382738D01*
X3359Y384632D01*
X4430Y386381D01*
X5761Y387940D01*
X7320Y389271D01*
X9068Y390342D01*
X10962Y391127D01*
X12956Y391605D01*
X14899Y391758D01*
X15000Y391738D01*
D02*
G37*
G36*
X253451Y370795D02*
X253645Y369820D01*
X254198Y368993D01*
X255025Y368440D01*
X255154Y368415D01*
Y342585D01*
X255025Y342560D01*
X254198Y342007D01*
X253645Y341180D01*
X253451Y340205D01*
Y335000D01*
X253645Y334025D01*
X254198Y333198D01*
X256000Y331395D01*
Y330809D01*
X263809Y323000D01*
X265254D01*
X265500Y322951D01*
X266668D01*
X266791Y322791D01*
X267731Y322069D01*
X268825Y321616D01*
X270000Y321461D01*
X275500D01*
X276675Y321616D01*
X277769Y322069D01*
X278709Y322791D01*
X278870Y322951D01*
X309000Y322951D01*
X309246Y323000D01*
X311000D01*
X317500Y329500D01*
Y330395D01*
X318302Y331198D01*
X318855Y332025D01*
X319049Y333000D01*
Y344777D01*
X332722Y358451D01*
X343902D01*
X347809Y358451D01*
X355944D01*
X362951Y351444D01*
X362951Y340041D01*
X362954Y340028D01*
Y275038D01*
X362951Y275025D01*
Y265556D01*
X353720Y256325D01*
X353654Y256226D01*
X353562Y256151D01*
X353380Y255815D01*
X353167Y255498D01*
X353133Y255361D01*
X353088Y255277D01*
X353070Y255108D01*
X353049Y255023D01*
X351333Y255192D01*
X349618Y255023D01*
X347969Y254523D01*
X346449Y253711D01*
X346192Y253500D01*
X343422D01*
X343422Y253500D01*
X343422Y253500D01*
X337216D01*
X337208Y253502D01*
X320150D01*
X320142Y253500D01*
X309641D01*
X309385Y253711D01*
X307865Y254523D01*
X306215Y255023D01*
X304500Y255192D01*
X302785Y255023D01*
X301135Y254523D01*
X299615Y253711D01*
X299361Y253502D01*
X298625D01*
X298618Y253500D01*
X290383D01*
X290375Y253502D01*
X273316D01*
X273309Y253500D01*
X262808D01*
X262551Y253711D01*
X261031Y254523D01*
X259382Y255023D01*
X257667Y255192D01*
X255951Y255023D01*
X254302Y254523D01*
X252782Y253711D01*
X252527Y253502D01*
X251792D01*
X251784Y253500D01*
X243549D01*
X243542Y253502D01*
X226483D01*
X226475Y253500D01*
X215975D01*
X215718Y253711D01*
X214198Y254523D01*
X212549Y255023D01*
X210833Y255192D01*
X209118Y255023D01*
X207469Y254523D01*
X205949Y253711D01*
X205694Y253502D01*
X204959D01*
X204951Y253500D01*
X200229D01*
X198120Y251391D01*
X197984Y251335D01*
X196804Y250429D01*
X195898Y249249D01*
X195842Y249114D01*
X193761Y247032D01*
Y242470D01*
X193749Y242426D01*
X193760Y242343D01*
X193743Y242260D01*
Y234628D01*
X193690Y234499D01*
X193139Y232203D01*
X192954Y229850D01*
X193139Y227496D01*
X193690Y225200D01*
X193743Y225071D01*
Y220909D01*
X193761Y220822D01*
Y220239D01*
X193905Y220095D01*
X193937Y219933D01*
X194490Y219106D01*
X198399Y215198D01*
X199225Y214645D01*
X200201Y214451D01*
X202974D01*
X203000Y214388D01*
Y213449D01*
X205900Y210548D01*
X205662Y209975D01*
X205468Y208500D01*
X205518Y208122D01*
X206821Y206909D01*
X208699Y205407D01*
X210649Y204081D01*
X212576Y202987D01*
X212642Y202996D01*
X214016Y203565D01*
X215017Y204333D01*
X215517Y204103D01*
Y202850D01*
X226816D01*
Y214150D01*
X227191Y214451D01*
X245878D01*
X246245Y214524D01*
X246618Y214561D01*
X246784Y214611D01*
X248000Y214731D01*
X249216Y214611D01*
X249382Y214561D01*
X249755Y214524D01*
X250000Y214475D01*
Y213000D01*
X253065Y211349D01*
X252496Y209975D01*
X252302Y208500D01*
X252496Y207025D01*
X253065Y205651D01*
X253971Y204471D01*
X255151Y203565D01*
X256525Y202996D01*
X258000Y202802D01*
X259475Y202996D01*
X260849Y203565D01*
X261851Y204333D01*
X262351Y204103D01*
Y202850D01*
X273650D01*
Y214150D01*
X274025Y214451D01*
X292711D01*
X293079Y214524D01*
X293451Y214561D01*
X293618Y214611D01*
X294833Y214731D01*
X296049Y214611D01*
X296216Y214561D01*
X296588Y214524D01*
X296833Y214475D01*
Y213802D01*
X299135Y211500D01*
X299420D01*
X299754Y211000D01*
X299329Y209975D01*
X299135Y208500D01*
X299329Y207025D01*
X299899Y205651D01*
X300804Y204471D01*
X301984Y203565D01*
X303359Y202996D01*
X304833Y202802D01*
X306308Y202996D01*
X307683Y203565D01*
X308684Y204333D01*
X309184Y204103D01*
Y202850D01*
X320483D01*
Y214150D01*
X320858Y214451D01*
X339545D01*
X339912Y214524D01*
X340285Y214561D01*
X340451Y214611D01*
X341667Y214731D01*
X342882Y214611D01*
X343049Y214561D01*
X343412Y214525D01*
X343382Y213000D01*
X345382Y211000D01*
X346137D01*
X346415Y210584D01*
X346163Y209975D01*
X345968Y208500D01*
X346163Y207025D01*
X346732Y205651D01*
X347637Y204471D01*
X348817Y203565D01*
X350192Y202996D01*
X351667Y202802D01*
X353142Y202996D01*
X354516Y203565D01*
X355517Y204333D01*
X356017Y204103D01*
Y202850D01*
X367316D01*
Y214150D01*
X367691Y214451D01*
X391738D01*
Y118500D01*
X325500D01*
X314000Y107000D01*
X188888D01*
X165924Y129964D01*
Y166900D01*
X165828Y167631D01*
X165546Y168312D01*
X165097Y168897D01*
X164000Y169994D01*
X164000Y230221D01*
X164640Y230860D01*
X164640Y230860D01*
X165120Y231487D01*
X165423Y232217D01*
X165526Y233000D01*
Y257026D01*
X193578Y285078D01*
X193366Y360696D01*
X193865Y361077D01*
X194500Y360951D01*
X215750D01*
X216725Y361145D01*
X217375Y361579D01*
X218024Y361145D01*
X219000Y360951D01*
X225000D01*
X225975Y361145D01*
X226802Y361698D01*
X227095Y362135D01*
X227594Y361983D01*
Y340205D01*
X244406D01*
Y370795D01*
X228049D01*
X227594Y370795D01*
X227549Y371276D01*
Y372000D01*
X227355Y372975D01*
X226802Y373802D01*
X225975Y374355D01*
X225000Y374549D01*
X219000D01*
X218686Y374486D01*
X218299Y374804D01*
Y377000D01*
X218105Y377976D01*
X217552Y378802D01*
X216725Y379355D01*
X215750Y379549D01*
X194500D01*
X193813Y379412D01*
X193312Y379769D01*
X193280Y391384D01*
X193633Y391738D01*
X253451D01*
Y370795D01*
D02*
G37*
G36*
X99567Y248792D02*
X99511Y248724D01*
X99462Y248654D01*
X99419Y248583D01*
X99383Y248509D01*
X99353Y248433D01*
X99330Y248356D01*
X99313Y248276D01*
X99303Y248195D01*
X99300Y248112D01*
X98700D01*
X98697Y248195D01*
X98687Y248276D01*
X98670Y248356D01*
X98647Y248433D01*
X98618Y248509D01*
X98581Y248583D01*
X98538Y248654D01*
X98489Y248724D01*
X98433Y248792D01*
X98370Y248857D01*
X99630D01*
X99567Y248792D01*
D02*
G37*
G36*
X89067D02*
X89011Y248724D01*
X88962Y248654D01*
X88919Y248583D01*
X88882Y248509D01*
X88853Y248433D01*
X88830Y248356D01*
X88813Y248276D01*
X88803Y248195D01*
X88800Y248112D01*
X88200D01*
X88197Y248195D01*
X88187Y248276D01*
X88170Y248356D01*
X88147Y248433D01*
X88117Y248509D01*
X88081Y248583D01*
X88038Y248654D01*
X87989Y248724D01*
X87933Y248792D01*
X87870Y248857D01*
X89130D01*
X89067Y248792D01*
D02*
G37*
G36*
X380745Y391605D02*
X382738Y391127D01*
X384632Y390342D01*
X386381Y389271D01*
X387940Y387940D01*
X389271Y386381D01*
X390342Y384632D01*
X391127Y382738D01*
X391605Y380745D01*
X391758Y378802D01*
X391738Y378701D01*
Y217000D01*
X343789D01*
X343382Y217123D01*
X341667Y217292D01*
X339951Y217123D01*
X339545Y217000D01*
X296955D01*
X296549Y217123D01*
X294833Y217292D01*
X293118Y217123D01*
X292711Y217000D01*
X250122D01*
X249715Y217123D01*
X248000Y217292D01*
X246285Y217123D01*
X245878Y217000D01*
X200201D01*
X196292Y220909D01*
Y242260D01*
X196766Y242421D01*
X196804Y242371D01*
X197984Y241465D01*
X199358Y240896D01*
X200833Y240702D01*
X202308Y240896D01*
X203683Y241465D01*
X204863Y242371D01*
X205768Y243551D01*
X206338Y244925D01*
X206532Y246400D01*
X206338Y247875D01*
X205768Y249249D01*
X204863Y250429D01*
X204798Y250479D01*
X204959Y250953D01*
X215184D01*
Y240750D01*
X226483D01*
Y250953D01*
X243542D01*
X243702Y250479D01*
X243637Y250429D01*
X242732Y249249D01*
X242162Y247875D01*
X241968Y246400D01*
X242162Y244925D01*
X242732Y243551D01*
X243637Y242371D01*
X244817Y241465D01*
X246192Y240896D01*
X247667Y240702D01*
X249142Y240896D01*
X250516Y241465D01*
X251696Y242371D01*
X252602Y243551D01*
X253171Y244925D01*
X253365Y246400D01*
X253171Y247875D01*
X252602Y249249D01*
X251696Y250429D01*
X251631Y250479D01*
X251792Y250953D01*
X262017D01*
Y240750D01*
X273316D01*
Y250953D01*
X290375D01*
X290535Y250479D01*
X290471Y250429D01*
X289565Y249249D01*
X288996Y247875D01*
X288802Y246400D01*
X288996Y244925D01*
X289565Y243551D01*
X290471Y242371D01*
X291651Y241465D01*
X293025Y240896D01*
X294500Y240702D01*
X295975Y240896D01*
X297349Y241465D01*
X298529Y242371D01*
X299435Y243551D01*
X300004Y244925D01*
X300198Y246400D01*
X300004Y247875D01*
X299435Y249249D01*
X298529Y250429D01*
X298465Y250479D01*
X298625Y250953D01*
X308851D01*
Y240750D01*
X320150D01*
Y250953D01*
X337208D01*
X337369Y250479D01*
X337304Y250429D01*
X336399Y249249D01*
X335829Y247875D01*
X335635Y246400D01*
X335829Y244925D01*
X336399Y243551D01*
X337304Y242371D01*
X338484Y241465D01*
X339859Y240896D01*
X341333Y240702D01*
X342808Y240896D01*
X343109Y241020D01*
X341792Y242337D01*
X342636Y242382D01*
X345274Y242664D01*
X345646Y242740D01*
X346268Y243551D01*
X346838Y244925D01*
X347032Y246400D01*
X346838Y247875D01*
X346268Y249249D01*
X348817Y251798D01*
Y252000D01*
X353000D01*
X353250Y252250D01*
X353750D01*
X355345Y250656D01*
X355684Y250316D01*
X355684D01*
X355684Y250316D01*
Y240750D01*
X366983D01*
Y252050D01*
X356059D01*
X355684Y252050D01*
Y254216D01*
X355522Y254522D01*
X365500Y264500D01*
Y275025D01*
X366013Y275651D01*
X366570Y276693D01*
X366913Y277824D01*
X367029Y279000D01*
Y336067D01*
X367029Y336067D01*
X366913Y337243D01*
X366570Y338374D01*
X366013Y339416D01*
X365500Y340041D01*
X365500Y352500D01*
X357000Y361000D01*
X347809D01*
D01*
X343902Y361000D01*
X331667D01*
X316500Y345833D01*
Y333000D01*
X309000Y325500D01*
X265500Y325500D01*
X256000Y335000D01*
Y340205D01*
X271965D01*
Y370795D01*
X256000D01*
Y391738D01*
X378701D01*
X378802Y391758D01*
X380745Y391605D01*
D02*
G37*
G36*
X127292Y194137D02*
X127356Y194087D01*
X127424Y194042D01*
X127495Y194004D01*
X127570Y193971D01*
X127647Y193945D01*
X127728Y193924D01*
X127813Y193910D01*
X127900Y193902D01*
X127991Y193900D01*
X127100Y193009D01*
X127098Y193100D01*
X127090Y193187D01*
X127076Y193272D01*
X127055Y193352D01*
X127029Y193430D01*
X126996Y193505D01*
X126958Y193576D01*
X126913Y193644D01*
X126863Y193708D01*
X126806Y193770D01*
X127230Y194194D01*
X127292Y194137D01*
D02*
G37*
G36*
X108708Y193567D02*
X108776Y193511D01*
X108846Y193462D01*
X108917Y193419D01*
X108991Y193383D01*
X109066Y193353D01*
X109144Y193330D01*
X109224Y193313D01*
X109305Y193303D01*
X109388Y193300D01*
Y192700D01*
X109305Y192697D01*
X109224Y192687D01*
X109144Y192670D01*
X109066Y192647D01*
X108991Y192617D01*
X108917Y192581D01*
X108846Y192538D01*
X108776Y192489D01*
X108708Y192433D01*
X108643Y192370D01*
Y193630D01*
X108708Y193567D01*
D02*
G37*
G36*
X127292Y191153D02*
X127356Y191102D01*
X127424Y191058D01*
X127495Y191019D01*
X127570Y190987D01*
X127647Y190961D01*
X127728Y190940D01*
X127813Y190926D01*
X127900Y190918D01*
X127991Y190916D01*
X127100Y190025D01*
X127098Y190115D01*
X127090Y190203D01*
X127076Y190287D01*
X127055Y190368D01*
X127029Y190446D01*
X126996Y190520D01*
X126958Y190592D01*
X126913Y190659D01*
X126863Y190724D01*
X126806Y190786D01*
X127230Y191210D01*
X127292Y191153D01*
D02*
G37*
G36*
X108708Y190583D02*
X108776Y190527D01*
X108846Y190477D01*
X108917Y190435D01*
X108991Y190398D01*
X109066Y190369D01*
X109144Y190346D01*
X109224Y190329D01*
X109305Y190319D01*
X109388Y190316D01*
Y189716D01*
X109305Y189712D01*
X109224Y189702D01*
X109144Y189686D01*
X109066Y189663D01*
X108991Y189633D01*
X108917Y189597D01*
X108846Y189554D01*
X108776Y189505D01*
X108708Y189448D01*
X108643Y189386D01*
Y190646D01*
X108708Y190583D01*
D02*
G37*
G36*
X140902Y189900D02*
X140910Y189813D01*
X140925Y189728D01*
X140945Y189647D01*
X140971Y189570D01*
X141004Y189495D01*
X141042Y189424D01*
X141087Y189356D01*
X141137Y189292D01*
X141194Y189230D01*
X140770Y188806D01*
X140708Y188863D01*
X140644Y188913D01*
X140576Y188958D01*
X140505Y188996D01*
X140430Y189029D01*
X140352Y189055D01*
X140271Y189076D01*
X140187Y189090D01*
X140100Y189098D01*
X140009Y189100D01*
X140900Y189991D01*
X140902Y189900D01*
D02*
G37*
G36*
Y186900D02*
X140910Y186813D01*
X140925Y186729D01*
X140945Y186647D01*
X140971Y186570D01*
X141004Y186495D01*
X141042Y186424D01*
X141087Y186356D01*
X141137Y186292D01*
X141194Y186230D01*
X140770Y185806D01*
X140708Y185863D01*
X140644Y185913D01*
X140576Y185958D01*
X140505Y185996D01*
X140430Y186029D01*
X140352Y186055D01*
X140271Y186075D01*
X140187Y186090D01*
X140100Y186098D01*
X140009Y186100D01*
X140900Y186991D01*
X140902Y186900D01*
D02*
G37*
G36*
X260303Y57305D02*
X260313Y57224D01*
X260330Y57144D01*
X260353Y57067D01*
X260383Y56991D01*
X260419Y56917D01*
X260462Y56846D01*
X260511Y56776D01*
X260567Y56708D01*
X260630Y56643D01*
X259370D01*
X259433Y56708D01*
X259489Y56776D01*
X259538Y56846D01*
X259581Y56917D01*
X259617Y56991D01*
X259647Y57067D01*
X259670Y57144D01*
X259687Y57224D01*
X259697Y57305D01*
X259700Y57389D01*
X260300D01*
X260303Y57305D01*
D02*
G37*
G36*
X250303D02*
X250313Y57224D01*
X250330Y57144D01*
X250353Y57067D01*
X250382Y56991D01*
X250419Y56917D01*
X250462Y56846D01*
X250511Y56776D01*
X250567Y56708D01*
X250630Y56643D01*
X249370D01*
X249433Y56708D01*
X249489Y56776D01*
X249538Y56846D01*
X249581Y56917D01*
X249618Y56991D01*
X249647Y57067D01*
X249670Y57144D01*
X249687Y57224D01*
X249697Y57305D01*
X249700Y57389D01*
X250300D01*
X250303Y57305D01*
D02*
G37*
G36*
X192803D02*
X192813Y57224D01*
X192830Y57144D01*
X192853Y57067D01*
X192883Y56991D01*
X192919Y56917D01*
X192962Y56846D01*
X193011Y56776D01*
X193067Y56708D01*
X193130Y56643D01*
X191870D01*
X191933Y56708D01*
X191989Y56776D01*
X192038Y56846D01*
X192081Y56917D01*
X192118Y56991D01*
X192147Y57067D01*
X192170Y57144D01*
X192187Y57224D01*
X192197Y57305D01*
X192200Y57389D01*
X192800D01*
X192803Y57305D01*
D02*
G37*
%LPC*%
G36*
X136500Y379549D02*
X75750D01*
X74774Y379355D01*
X73948Y378802D01*
X73395Y377976D01*
X73201Y377000D01*
Y374150D01*
X72760Y373915D01*
X72475Y374105D01*
X71500Y374299D01*
X65500D01*
X64525Y374105D01*
X63698Y373552D01*
X63145Y372726D01*
X62951Y371750D01*
Y363250D01*
X63145Y362275D01*
X63698Y361448D01*
X64525Y360895D01*
X65500Y360701D01*
X71500D01*
X72475Y360895D01*
X73302Y361448D01*
X73469Y361698D01*
X73948D01*
X74774Y361145D01*
X75750Y360951D01*
X136500D01*
X137476Y361145D01*
X138302Y361698D01*
X138855Y362525D01*
X139049Y363500D01*
Y377000D01*
X138855Y377976D01*
X138302Y378802D01*
X137476Y379355D01*
X136500Y379549D01*
D02*
G37*
G36*
X19685Y383846D02*
X17767Y383658D01*
X15923Y383098D01*
X14223Y382190D01*
X12734Y380967D01*
X11511Y379477D01*
X10603Y377778D01*
X10043Y375934D01*
X9854Y374016D01*
X10043Y372098D01*
X10603Y370254D01*
X11511Y368554D01*
X12734Y367064D01*
X14223Y365842D01*
X15923Y364933D01*
X17767Y364374D01*
X19685Y364185D01*
X21603Y364374D01*
X23447Y364933D01*
X25147Y365842D01*
X26636Y367064D01*
X27859Y368554D01*
X28767Y370254D01*
X29327Y372098D01*
X29516Y374016D01*
X29327Y375934D01*
X28767Y377778D01*
X27859Y379477D01*
X26636Y380967D01*
X25147Y382190D01*
X23447Y383098D01*
X21603Y383658D01*
X19685Y383846D01*
D02*
G37*
G36*
X166000Y379549D02*
X144750D01*
X143774Y379355D01*
X142948Y378802D01*
X142395Y377976D01*
X142201Y377000D01*
Y363500D01*
X142395Y362525D01*
X142948Y361698D01*
X143774Y361145D01*
X144750Y360951D01*
X166000D01*
X166975Y361145D01*
X167802Y361698D01*
X168000Y361993D01*
X168500D01*
X168698Y361698D01*
X169525Y361145D01*
X170500Y360951D01*
X176500D01*
X177476Y361145D01*
X178302Y361698D01*
X178855Y362525D01*
X179049Y363500D01*
Y372000D01*
X178855Y372975D01*
X178302Y373802D01*
X177476Y374355D01*
X176500Y374549D01*
X170500D01*
X169525Y374355D01*
X169049Y374037D01*
X168549Y374304D01*
Y377000D01*
X168355Y377976D01*
X167802Y378802D01*
X166975Y379355D01*
X166000Y379549D01*
D02*
G37*
G36*
X121000Y350500D02*
X119577Y350312D01*
X118250Y349763D01*
X117111Y348889D01*
X116281Y347807D01*
X116000Y347776D01*
X115719Y347807D01*
X114889Y348889D01*
X113750Y349763D01*
X112424Y350312D01*
X111000Y350500D01*
X109576Y350312D01*
X108250Y349763D01*
X107111Y348889D01*
X106281Y347807D01*
X106000Y347776D01*
X105719Y347807D01*
X104889Y348889D01*
X103750Y349763D01*
X102424Y350312D01*
X101000Y350500D01*
X99576Y350312D01*
X98250Y349763D01*
X97111Y348889D01*
X96281Y347807D01*
X96000Y347776D01*
X95719Y347807D01*
X94889Y348889D01*
X93750Y349763D01*
X92423Y350312D01*
X91000Y350500D01*
X89577Y350312D01*
X88250Y349763D01*
X87111Y348889D01*
X86281Y347807D01*
X86000Y347776D01*
X85719Y347807D01*
X84889Y348889D01*
X83750Y349763D01*
X82424Y350312D01*
X81000Y350500D01*
X79576Y350312D01*
X78250Y349763D01*
X77111Y348889D01*
X76237Y347750D01*
X75688Y346424D01*
X75500Y345000D01*
X75688Y343577D01*
X76237Y342250D01*
X77111Y341111D01*
X78250Y340237D01*
X79576Y339688D01*
X81000Y339500D01*
X82424Y339688D01*
X83750Y340237D01*
X84889Y341111D01*
X85719Y342193D01*
X86000Y342224D01*
X86281Y342193D01*
X87111Y341111D01*
X88250Y340237D01*
X89577Y339688D01*
X91000Y339500D01*
X92423Y339688D01*
X93750Y340237D01*
X94889Y341111D01*
X95719Y342193D01*
X96000Y342224D01*
X96281Y342193D01*
X97111Y341111D01*
X98250Y340237D01*
X99576Y339688D01*
X101000Y339500D01*
X102424Y339688D01*
X103750Y340237D01*
X104889Y341111D01*
X105719Y342193D01*
X106000Y342224D01*
X106281Y342193D01*
X107111Y341111D01*
X108250Y340237D01*
X109576Y339688D01*
X111000Y339500D01*
X112424Y339688D01*
X113750Y340237D01*
X114889Y341111D01*
X115719Y342193D01*
X116000Y342224D01*
X116281Y342193D01*
X117111Y341111D01*
X118250Y340237D01*
X119577Y339688D01*
X121000Y339500D01*
X122424Y339688D01*
X123750Y340237D01*
X124889Y341111D01*
X125763Y342250D01*
X126312Y343577D01*
X126500Y345000D01*
X126312Y346424D01*
X125763Y347750D01*
X124889Y348889D01*
X123750Y349763D01*
X122424Y350312D01*
X121000Y350500D01*
D02*
G37*
G36*
X150500D02*
X149076Y350312D01*
X147750Y349763D01*
X146611Y348889D01*
X145737Y347750D01*
X145188Y346424D01*
X145000Y345000D01*
X145188Y343577D01*
X145737Y342250D01*
X146611Y341111D01*
X147750Y340237D01*
X149076Y339688D01*
X150500Y339500D01*
X151924Y339688D01*
X153250Y340237D01*
X154389Y341111D01*
X154574Y341352D01*
X155047Y341191D01*
Y339547D01*
X165953D01*
Y350453D01*
X155047D01*
Y348809D01*
X154574Y348648D01*
X154389Y348889D01*
X153250Y349763D01*
X151924Y350312D01*
X150500Y350500D01*
D02*
G37*
G36*
X164333Y337031D02*
X163072Y336907D01*
X161858Y336538D01*
X160740Y335941D01*
X159760Y335136D01*
X158955Y334156D01*
X158358Y333038D01*
X157990Y331824D01*
X157865Y330563D01*
X157990Y329301D01*
X158358Y328087D01*
X158955Y326969D01*
X159760Y325989D01*
X160740Y325184D01*
X161858Y324587D01*
X163072Y324219D01*
X164333Y324095D01*
X165595Y324219D01*
X166809Y324587D01*
X167927Y325184D01*
X168907Y325989D01*
X169711Y326969D01*
X170309Y328087D01*
X170677Y329301D01*
X170801Y330563D01*
X170677Y331824D01*
X170309Y333038D01*
X169711Y334156D01*
X168907Y335136D01*
X167927Y335941D01*
X166809Y336538D01*
X165595Y336907D01*
X164333Y337031D01*
D02*
G37*
G36*
X146167D02*
X144905Y336907D01*
X143691Y336538D01*
X142573Y335941D01*
X141593Y335136D01*
X140789Y334156D01*
X140191Y333038D01*
X139823Y331824D01*
X139699Y330563D01*
X139823Y329301D01*
X140191Y328087D01*
X140789Y326969D01*
X141593Y325989D01*
X142573Y325184D01*
X143691Y324587D01*
X144905Y324219D01*
X146167Y324095D01*
X147429Y324219D01*
X148642Y324587D01*
X149760Y325184D01*
X150740Y325989D01*
X151545Y326969D01*
X152143Y328087D01*
X152510Y329301D01*
X152635Y330563D01*
X152510Y331824D01*
X152143Y333038D01*
X151545Y334156D01*
X150740Y335136D01*
X149760Y335941D01*
X148642Y336538D01*
X147429Y336907D01*
X146167Y337031D01*
D02*
G37*
G36*
X182500Y294905D02*
X181238Y294781D01*
X180025Y294413D01*
X178907Y293815D01*
X177926Y293011D01*
X177122Y292031D01*
X176524Y290913D01*
X176156Y289699D01*
X176032Y288437D01*
X176156Y287175D01*
X176524Y285962D01*
X177122Y284844D01*
X177926Y283864D01*
X178907Y283059D01*
X180025Y282462D01*
X181238Y282094D01*
X182500Y281969D01*
X183762Y282094D01*
X184975Y282462D01*
X186093Y283059D01*
X187074Y283864D01*
X187878Y284844D01*
X188476Y285962D01*
X188844Y287175D01*
X188968Y288437D01*
X188844Y289699D01*
X188476Y290913D01*
X187878Y292031D01*
X187074Y293011D01*
X186093Y293815D01*
X184975Y294413D01*
X183762Y294781D01*
X182500Y294905D01*
D02*
G37*
G36*
X164333D02*
X163072Y294781D01*
X161858Y294413D01*
X160740Y293815D01*
X159760Y293011D01*
X158955Y292031D01*
X158358Y290913D01*
X157990Y289699D01*
X157865Y288437D01*
X157990Y287175D01*
X158358Y285962D01*
X158955Y284844D01*
X159760Y283864D01*
X160740Y283059D01*
X161858Y282462D01*
X163072Y282094D01*
X164333Y281969D01*
X165595Y282094D01*
X166809Y282462D01*
X167927Y283059D01*
X168907Y283864D01*
X169711Y284844D01*
X170309Y285962D01*
X170677Y287175D01*
X170801Y288437D01*
X170677Y289699D01*
X170309Y290913D01*
X169711Y292031D01*
X168907Y293011D01*
X167927Y293815D01*
X166809Y294413D01*
X165595Y294781D01*
X164333Y294905D01*
D02*
G37*
G36*
X146167D02*
X144905Y294781D01*
X143691Y294413D01*
X142573Y293815D01*
X141593Y293011D01*
X140789Y292031D01*
X140191Y290913D01*
X139823Y289699D01*
X139699Y288437D01*
X139823Y287175D01*
X140191Y285962D01*
X140789Y284844D01*
X141593Y283864D01*
X142573Y283059D01*
X143691Y282462D01*
X144905Y282094D01*
X146167Y281969D01*
X147429Y282094D01*
X148642Y282462D01*
X149760Y283059D01*
X150740Y283864D01*
X151545Y284844D01*
X152143Y285962D01*
X152510Y287175D01*
X152635Y288437D01*
X152510Y289699D01*
X152143Y290913D01*
X151545Y292031D01*
X150740Y293011D01*
X149760Y293815D01*
X148642Y294413D01*
X147429Y294781D01*
X146167Y294905D01*
D02*
G37*
G36*
X128000D02*
X126738Y294781D01*
X125525Y294413D01*
X124407Y293815D01*
X123426Y293011D01*
X122622Y292031D01*
X122024Y290913D01*
X121656Y289699D01*
X121532Y288437D01*
X121656Y287175D01*
X122024Y285962D01*
X122622Y284844D01*
X123426Y283864D01*
X124407Y283059D01*
X125525Y282462D01*
X126738Y282094D01*
X128000Y281969D01*
X129262Y282094D01*
X130475Y282462D01*
X131594Y283059D01*
X132574Y283864D01*
X133378Y284844D01*
X133976Y285962D01*
X134344Y287175D01*
X134468Y288437D01*
X134344Y289699D01*
X133976Y290913D01*
X133378Y292031D01*
X132574Y293011D01*
X131594Y293815D01*
X130475Y294413D01*
X129262Y294781D01*
X128000Y294905D01*
D02*
G37*
G36*
X38500Y299700D02*
X37077Y299512D01*
X35750Y298963D01*
X34611Y298089D01*
X33737Y296950D01*
X33188Y295623D01*
X33000Y294200D01*
X33188Y292776D01*
X33737Y291450D01*
X34611Y290311D01*
X35693Y289481D01*
X35724Y289200D01*
X35693Y288919D01*
X34611Y288089D01*
X33737Y286950D01*
X33188Y285624D01*
X33000Y284200D01*
X33188Y282776D01*
X33737Y281450D01*
X34611Y280311D01*
X35693Y279481D01*
X35724Y279200D01*
X35693Y278919D01*
X34611Y278089D01*
X33737Y276950D01*
X33188Y275623D01*
X33000Y274200D01*
X33188Y272777D01*
X33737Y271450D01*
X34611Y270311D01*
X35750Y269437D01*
X37077Y268888D01*
X38500Y268700D01*
X39924Y268888D01*
X41250Y269437D01*
X42389Y270311D01*
X43263Y271450D01*
X43812Y272777D01*
X44000Y274200D01*
X43812Y275623D01*
X43263Y276950D01*
X42389Y278089D01*
X41307Y278919D01*
X41276Y279200D01*
X41307Y279481D01*
X42389Y280311D01*
X43263Y281450D01*
X43812Y282776D01*
X44000Y284200D01*
X43812Y285624D01*
X43263Y286950D01*
X42389Y288089D01*
X41307Y288919D01*
X41276Y289200D01*
X41307Y289481D01*
X42389Y290311D01*
X43263Y291450D01*
X43812Y292776D01*
X44000Y294200D01*
X43812Y295623D01*
X43263Y296950D01*
X42389Y298089D01*
X41250Y298963D01*
X39924Y299512D01*
X38500Y299700D01*
D02*
G37*
G36*
X24250Y322549D02*
X15750D01*
X14774Y322355D01*
X13948Y321802D01*
X13395Y320975D01*
X13201Y320000D01*
Y314000D01*
X13395Y313024D01*
X13746Y312499D01*
X13479Y311999D01*
X11000D01*
X10025Y311805D01*
X9198Y311252D01*
X8645Y310425D01*
X8451Y309450D01*
Y269950D01*
X8645Y268974D01*
X9198Y268148D01*
X10025Y267595D01*
X11000Y267401D01*
X13412D01*
X13679Y266901D01*
X13395Y266476D01*
X13201Y265500D01*
Y259500D01*
X13395Y258524D01*
X13948Y257698D01*
X14774Y257145D01*
X15750Y256951D01*
X24250D01*
X25225Y257145D01*
X26052Y257698D01*
X26605Y258524D01*
X26799Y259500D01*
Y265500D01*
X26605Y266476D01*
X26052Y267302D01*
X25919Y267391D01*
Y267892D01*
X26302Y268148D01*
X26855Y268974D01*
X27049Y269950D01*
Y309450D01*
X26855Y310425D01*
X26302Y311252D01*
X25920Y311508D01*
Y312109D01*
X26052Y312198D01*
X26605Y313024D01*
X26799Y314000D01*
Y320000D01*
X26605Y320975D01*
X26052Y321802D01*
X25225Y322355D01*
X24250Y322549D01*
D02*
G37*
G36*
X43953Y229053D02*
X33047D01*
Y218147D01*
X43953D01*
Y229053D01*
D02*
G37*
G36*
X38500Y209100D02*
X37077Y208912D01*
X35750Y208363D01*
X34611Y207489D01*
X33737Y206350D01*
X33188Y205024D01*
X33000Y203600D01*
X33188Y202176D01*
X33737Y200850D01*
X34611Y199711D01*
X35693Y198881D01*
X35724Y198600D01*
X35693Y198319D01*
X34611Y197489D01*
X33737Y196350D01*
X33188Y195024D01*
X33000Y193600D01*
X33188Y192176D01*
X33737Y190850D01*
X34611Y189711D01*
X35693Y188881D01*
X35724Y188600D01*
X35693Y188319D01*
X34611Y187489D01*
X33737Y186350D01*
X33188Y185023D01*
X33000Y183600D01*
X33188Y182176D01*
X33737Y180850D01*
X34611Y179711D01*
X35693Y178881D01*
X35724Y178600D01*
X35693Y178319D01*
X34611Y177489D01*
X33737Y176350D01*
X33188Y175023D01*
X33000Y173600D01*
X33188Y172177D01*
X33737Y170850D01*
X34611Y169711D01*
X35750Y168837D01*
X37077Y168288D01*
X38500Y168100D01*
X39924Y168288D01*
X41250Y168837D01*
X42389Y169711D01*
X43263Y170850D01*
X43812Y172177D01*
X44000Y173600D01*
X43812Y175023D01*
X43263Y176350D01*
X42389Y177489D01*
X41307Y178319D01*
X41276Y178600D01*
X41307Y178881D01*
X42389Y179711D01*
X43263Y180850D01*
X43812Y182176D01*
X44000Y183600D01*
X43812Y185023D01*
X43263Y186350D01*
X42389Y187489D01*
X41307Y188319D01*
X41276Y188600D01*
X41307Y188881D01*
X42389Y189711D01*
X43263Y190850D01*
X43812Y192176D01*
X44000Y193600D01*
X43812Y195024D01*
X43263Y196350D01*
X42389Y197489D01*
X41307Y198319D01*
X41276Y198600D01*
X41307Y198881D01*
X42389Y199711D01*
X43263Y200850D01*
X43812Y202176D01*
X44000Y203600D01*
X43812Y205024D01*
X43263Y206350D01*
X42389Y207489D01*
X41250Y208363D01*
X39924Y208912D01*
X38500Y209100D01*
D02*
G37*
G36*
X24500Y241549D02*
X16000D01*
X15024Y241355D01*
X14198Y240802D01*
X13645Y239976D01*
X13451Y239000D01*
Y233000D01*
X13566Y232424D01*
X13157Y231924D01*
X10500D01*
X9525Y231730D01*
X8698Y231177D01*
X8145Y230350D01*
X7951Y229375D01*
Y168625D01*
X8145Y167649D01*
X8698Y166823D01*
X9525Y166270D01*
X10500Y166076D01*
X13516D01*
X13752Y165635D01*
X13645Y165475D01*
X13451Y164500D01*
Y158500D01*
X13645Y157525D01*
X14198Y156698D01*
X15024Y156145D01*
X16000Y155951D01*
X24500D01*
X25475Y156145D01*
X26302Y156698D01*
X26855Y157525D01*
X27049Y158500D01*
Y164500D01*
X26855Y165475D01*
X26302Y166302D01*
X26287Y166313D01*
Y166813D01*
X26302Y166823D01*
X26855Y167649D01*
X27049Y168625D01*
Y229375D01*
X26855Y230350D01*
X26571Y230776D01*
X26309Y231188D01*
X26571Y231599D01*
X26855Y232025D01*
X27049Y233000D01*
Y239000D01*
X26855Y239976D01*
X26302Y240802D01*
X25475Y241355D01*
X24500Y241549D01*
D02*
G37*
G36*
X106193Y154404D02*
X104924Y154237D01*
X103741Y153747D01*
X102725Y152968D01*
X101946Y151952D01*
X101456Y150769D01*
X101289Y149500D01*
X101456Y148231D01*
X101946Y147048D01*
X102725Y146032D01*
X103741Y145253D01*
X104924Y144763D01*
X106193Y144596D01*
X107462Y144763D01*
X108645Y145253D01*
X109661Y146032D01*
X110440Y147048D01*
X110930Y148231D01*
X111097Y149500D01*
X110930Y150769D01*
X110440Y151952D01*
X109661Y152968D01*
X108645Y153747D01*
X107462Y154237D01*
X106193Y154404D01*
D02*
G37*
G36*
X86900D02*
X85631Y154237D01*
X84448Y153747D01*
X83432Y152968D01*
X82653Y151952D01*
X82163Y150769D01*
X81996Y149500D01*
X82163Y148231D01*
X82653Y147048D01*
X83432Y146032D01*
X84448Y145253D01*
X85631Y144763D01*
X86900Y144596D01*
X88169Y144763D01*
X89352Y145253D01*
X90368Y146032D01*
X91147Y147048D01*
X91637Y148231D01*
X91804Y149500D01*
X91637Y150769D01*
X91147Y151952D01*
X90368Y152968D01*
X89352Y153747D01*
X88169Y154237D01*
X86900Y154404D01*
D02*
G37*
G36*
X92353Y135453D02*
X81447D01*
Y124547D01*
X92353D01*
Y135453D01*
D02*
G37*
G36*
X106100Y135500D02*
X104676Y135312D01*
X103350Y134763D01*
X102211Y133889D01*
X101337Y132750D01*
X100788Y131423D01*
X100600Y130000D01*
X100788Y128577D01*
X101337Y127250D01*
X102211Y126111D01*
X103350Y125237D01*
X104676Y124688D01*
X106100Y124500D01*
X107524Y124688D01*
X108850Y125237D01*
X109989Y126111D01*
X110863Y127250D01*
X111412Y128577D01*
X111600Y130000D01*
X111412Y131423D01*
X110863Y132750D01*
X109989Y133889D01*
X108850Y134763D01*
X107524Y135312D01*
X106100Y135500D01*
D02*
G37*
G36*
X44000Y109500D02*
X42577Y109312D01*
X41250Y108763D01*
X40111Y107889D01*
X39237Y106750D01*
X38688Y105423D01*
X38500Y104000D01*
X38688Y102576D01*
X39237Y101250D01*
X40111Y100111D01*
X41250Y99237D01*
X42577Y98688D01*
X44000Y98500D01*
X45423Y98688D01*
X46750Y99237D01*
X47889Y100111D01*
X48763Y101250D01*
X49312Y102576D01*
X49500Y104000D01*
X49312Y105423D01*
X48763Y106750D01*
X47889Y107889D01*
X46750Y108763D01*
X45423Y109312D01*
X44000Y109500D01*
D02*
G37*
G36*
X25500Y131049D02*
X17000D01*
X16025Y130855D01*
X15198Y130302D01*
X14645Y129475D01*
X14451Y128500D01*
Y122500D01*
X14538Y122061D01*
X14221Y121674D01*
X10500D01*
X9525Y121480D01*
X8698Y120927D01*
X8145Y120100D01*
X7951Y119125D01*
Y97875D01*
X8145Y96899D01*
X8698Y96073D01*
X9525Y95520D01*
X10500Y95326D01*
X14184D01*
X14451Y95000D01*
Y89000D01*
X14645Y88024D01*
X15198Y87198D01*
X16025Y86645D01*
X17000Y86451D01*
X25500D01*
X26476Y86645D01*
X27302Y87198D01*
X27855Y88024D01*
X28049Y89000D01*
Y95000D01*
X27855Y95976D01*
X27546Y96438D01*
X27855Y96899D01*
X28049Y97875D01*
Y112451D01*
Y119125D01*
X27855Y120100D01*
X27379Y120812D01*
X27855Y121525D01*
X28049Y122500D01*
Y128500D01*
X27855Y129475D01*
X27302Y130302D01*
X26476Y130855D01*
X25500Y131049D01*
D02*
G37*
G36*
X300500Y84198D02*
X299025Y84004D01*
X297651Y83435D01*
X296471Y82529D01*
X295565Y81349D01*
X294996Y79975D01*
X294802Y78500D01*
X294996Y77025D01*
X295565Y75651D01*
X296471Y74471D01*
X297651Y73565D01*
X299025Y72996D01*
X300500Y72802D01*
X301975Y72996D01*
X303349Y73565D01*
X304529Y74471D01*
X305435Y75651D01*
X306004Y77025D01*
X306198Y78500D01*
X306004Y79975D01*
X305435Y81349D01*
X304529Y82529D01*
X303349Y83435D01*
X301975Y84004D01*
X300500Y84198D01*
D02*
G37*
G36*
X77500Y64198D02*
X76025Y64004D01*
X74651Y63435D01*
X73471Y62529D01*
X72565Y61349D01*
X71996Y59975D01*
X71802Y58500D01*
X71996Y57025D01*
X72565Y55651D01*
X73471Y54471D01*
X74651Y53565D01*
X76025Y52996D01*
X77500Y52802D01*
X78975Y52996D01*
X78985Y53000D01*
X80349Y53565D01*
X81529Y54471D01*
X82435Y55651D01*
X83004Y57025D01*
X83198Y58500D01*
X83004Y59975D01*
X82435Y61349D01*
X81529Y62529D01*
X80349Y63435D01*
X78975Y64004D01*
X77500Y64198D01*
D02*
G37*
G36*
X55850Y82248D02*
X44550D01*
Y69374D01*
Y57563D01*
Y45752D01*
X55850D01*
Y57563D01*
Y69374D01*
Y82248D01*
D02*
G37*
G36*
X206500Y45650D02*
X205077Y45463D01*
X203750Y44914D01*
X202611Y44040D01*
X201781Y42957D01*
X201500Y42927D01*
X201219Y42957D01*
X200389Y44040D01*
X199250Y44914D01*
X197924Y45463D01*
X196500Y45650D01*
X195077Y45463D01*
X193750Y44914D01*
X192611Y44040D01*
X191781Y42957D01*
X191500Y42927D01*
X191219Y42957D01*
X190389Y44040D01*
X189250Y44914D01*
X187924Y45463D01*
X186500Y45650D01*
X185076Y45463D01*
X183750Y44914D01*
X182611Y44040D01*
X181737Y42900D01*
X181188Y41574D01*
X181000Y40151D01*
X181188Y38727D01*
X181737Y37401D01*
X182611Y36262D01*
X183750Y35388D01*
X185076Y34838D01*
X186500Y34651D01*
X187924Y34838D01*
X189250Y35388D01*
X190389Y36262D01*
X191219Y37344D01*
X191500Y37375D01*
X191781Y37344D01*
X192611Y36262D01*
X193750Y35388D01*
X195077Y34838D01*
X196500Y34651D01*
X197924Y34838D01*
X199250Y35388D01*
X200389Y36262D01*
X201219Y37344D01*
X201500Y37375D01*
X201781Y37344D01*
X202611Y36262D01*
X203750Y35388D01*
X205077Y34838D01*
X206500Y34651D01*
X207924Y34838D01*
X209250Y35388D01*
X210389Y36262D01*
X211263Y37401D01*
X211812Y38727D01*
X212000Y40151D01*
X211812Y41574D01*
X211263Y42900D01*
X210389Y44040D01*
X209250Y44914D01*
X207924Y45463D01*
X206500Y45650D01*
D02*
G37*
G36*
X264000D02*
X262577Y45463D01*
X261250Y44914D01*
X260111Y44040D01*
X259281Y42957D01*
X259000Y42927D01*
X258719Y42957D01*
X257889Y44040D01*
X256750Y44914D01*
X255423Y45463D01*
X254000Y45650D01*
X252576Y45463D01*
X251250Y44914D01*
X250111Y44040D01*
X249281Y42957D01*
X249000Y42927D01*
X248719Y42957D01*
X247889Y44040D01*
X246750Y44914D01*
X245424Y45463D01*
X244000Y45650D01*
X242577Y45463D01*
X241250Y44914D01*
X240111Y44040D01*
X239237Y42900D01*
X238688Y41574D01*
X238500Y40151D01*
X238688Y38727D01*
X239237Y37401D01*
X240111Y36262D01*
X241250Y35388D01*
X242577Y34838D01*
X244000Y34651D01*
X245424Y34838D01*
X246750Y35388D01*
X247889Y36262D01*
X248719Y37344D01*
X249000Y37375D01*
X249281Y37344D01*
X250111Y36262D01*
X251250Y35388D01*
X252576Y34838D01*
X254000Y34651D01*
X255423Y34838D01*
X256750Y35388D01*
X257889Y36262D01*
X258719Y37344D01*
X259000Y37375D01*
X259281Y37344D01*
X260111Y36262D01*
X261250Y35388D01*
X262577Y34838D01*
X264000Y34651D01*
X265423Y34838D01*
X266750Y35388D01*
X267889Y36262D01*
X268763Y37401D01*
X269312Y38727D01*
X269500Y40151D01*
X269312Y41574D01*
X268763Y42900D01*
X267889Y44040D01*
X266750Y44914D01*
X265423Y45463D01*
X264000Y45650D01*
D02*
G37*
G36*
X351500Y49000D02*
X350077Y48812D01*
X348750Y48263D01*
X347611Y47389D01*
X346737Y46250D01*
X346188Y44923D01*
X346000Y43500D01*
X346188Y42077D01*
X346737Y40750D01*
X347611Y39611D01*
X348750Y38737D01*
X350077Y38188D01*
X351500Y38000D01*
X352923Y38188D01*
X354250Y38737D01*
X355389Y39611D01*
X356263Y40750D01*
X356812Y42077D01*
X357000Y43500D01*
X356812Y44923D01*
X356263Y46250D01*
X355389Y47389D01*
X354250Y48263D01*
X352923Y48812D01*
X351500Y49000D01*
D02*
G37*
G36*
X374500Y79049D02*
X366000D01*
X365024Y78855D01*
X364198Y78302D01*
X363645Y77476D01*
X363451Y76500D01*
Y70500D01*
X363645Y69525D01*
X364163Y68750D01*
X363645Y67975D01*
X363451Y67000D01*
Y45750D01*
X363645Y44774D01*
X363987Y44263D01*
X364164Y43875D01*
X363987Y43487D01*
X363645Y42976D01*
X363451Y42000D01*
Y36000D01*
X363645Y35024D01*
X364198Y34198D01*
X365024Y33645D01*
X366000Y33451D01*
X374500D01*
X375476Y33645D01*
X376302Y34198D01*
X376855Y35024D01*
X377049Y36000D01*
Y42000D01*
X376909Y42701D01*
X377260Y43201D01*
X380000D01*
X380976Y43395D01*
X381802Y43948D01*
X382355Y44774D01*
X382549Y45750D01*
Y67000D01*
X382355Y67975D01*
X381802Y68802D01*
X380976Y69355D01*
X380000Y69549D01*
X377254D01*
X376937Y69936D01*
X377049Y70500D01*
Y76500D01*
X376855Y77476D01*
X376302Y78302D01*
X375476Y78855D01*
X374500Y79049D01*
D02*
G37*
G36*
X341206Y48842D02*
X324394D01*
Y24158D01*
X341206D01*
Y48842D01*
D02*
G37*
G36*
X322905D02*
X306095D01*
Y24158D01*
X322905D01*
Y48842D01*
D02*
G37*
G36*
X304706D02*
X287895D01*
Y24158D01*
X304706D01*
Y48842D01*
D02*
G37*
G36*
X278500Y24549D02*
X272500D01*
X271525Y24355D01*
X271013Y24013D01*
X270625Y23836D01*
X270237Y24013D01*
X269725Y24355D01*
X268750Y24549D01*
X229250D01*
X228274Y24355D01*
X227448Y23802D01*
X226895Y22975D01*
X226701Y22000D01*
Y9500D01*
X226895Y8525D01*
X227448Y7698D01*
X228274Y7145D01*
X229250Y6951D01*
X268750D01*
X269725Y7145D01*
X270552Y7698D01*
X271105Y8525D01*
X271299Y9500D01*
Y10740D01*
X271799Y11090D01*
X272500Y10951D01*
X278500D01*
X279475Y11145D01*
X280302Y11698D01*
X280855Y12525D01*
X281049Y13500D01*
Y22000D01*
X280855Y22975D01*
X280302Y23802D01*
X279475Y24355D01*
X278500Y24549D01*
D02*
G37*
G36*
X221250D02*
X181750D01*
X180774Y24355D01*
X179948Y23802D01*
X179802D01*
X178975Y24355D01*
X178000Y24549D01*
X172000D01*
X171025Y24355D01*
X170198Y23802D01*
X169645Y22975D01*
X169451Y22000D01*
Y13500D01*
X169645Y12525D01*
X170198Y11698D01*
X171025Y11145D01*
X172000Y10951D01*
X178000D01*
X178701Y11090D01*
X179201Y10740D01*
Y9500D01*
X179395Y8525D01*
X179948Y7698D01*
X180774Y7145D01*
X181750Y6951D01*
X221250D01*
X222225Y7145D01*
X223052Y7698D01*
X223605Y8525D01*
X223799Y9500D01*
Y22000D01*
X223605Y22975D01*
X223052Y23802D01*
X222225Y24355D01*
X221250Y24549D01*
D02*
G37*
G36*
X374016Y29516D02*
X372098Y29327D01*
X370254Y28767D01*
X368554Y27859D01*
X367064Y26636D01*
X365842Y25147D01*
X364933Y23447D01*
X364374Y21603D01*
X364185Y19685D01*
X364374Y17767D01*
X364933Y15923D01*
X365842Y14223D01*
X367064Y12734D01*
X368554Y11511D01*
X370254Y10603D01*
X372098Y10043D01*
X374016Y9854D01*
X375934Y10043D01*
X377778Y10603D01*
X379478Y11511D01*
X380967Y12734D01*
X382190Y14223D01*
X383098Y15923D01*
X383658Y17767D01*
X383847Y19685D01*
X383658Y21603D01*
X383098Y23447D01*
X382190Y25147D01*
X380967Y26636D01*
X379478Y27859D01*
X377778Y28767D01*
X375934Y29327D01*
X374016Y29516D01*
D02*
G37*
G36*
X19685D02*
X17767Y29327D01*
X15923Y28767D01*
X14223Y27859D01*
X12734Y26636D01*
X11511Y25147D01*
X10603Y23447D01*
X10043Y21603D01*
X9854Y19685D01*
X10043Y17767D01*
X10603Y15923D01*
X11511Y14223D01*
X12734Y12734D01*
X14223Y11511D01*
X15923Y10603D01*
X17767Y10043D01*
X19685Y9854D01*
X21603Y10043D01*
X23447Y10603D01*
X25147Y11511D01*
X26636Y12734D01*
X27859Y14223D01*
X28767Y15923D01*
X29327Y17767D01*
X29516Y19685D01*
X29327Y21603D01*
X28767Y23447D01*
X27859Y25147D01*
X26636Y26636D01*
X25147Y27859D01*
X23447Y28767D01*
X21603Y29327D01*
X19685Y29516D01*
D02*
G37*
G36*
X213000Y350500D02*
X211577Y350312D01*
X210250Y349763D01*
X209111Y348889D01*
X208237Y347750D01*
X207688Y346424D01*
X207500Y345000D01*
X207688Y343577D01*
X207727Y343481D01*
X209250Y345004D01*
X209324Y343876D01*
X209545Y342712D01*
X209913Y341512D01*
X210427Y340277D01*
X210502Y340133D01*
X211577Y339688D01*
X213000Y339500D01*
X214423Y339688D01*
X215750Y340237D01*
X216889Y341111D01*
X217763Y342250D01*
X218312Y343577D01*
X218500Y345000D01*
X218312Y346424D01*
X217763Y347750D01*
X216889Y348889D01*
X215750Y349763D01*
X214423Y350312D01*
X213000Y350500D01*
D02*
G37*
G36*
X354375Y338549D02*
X346375D01*
X345399Y338355D01*
X344573Y337802D01*
X344020Y336976D01*
X343826Y336000D01*
Y333049D01*
X343000D01*
X342024Y332855D01*
X341198Y332302D01*
X340645Y331475D01*
X340451Y330500D01*
X340451Y313750D01*
X340645Y312774D01*
X340661Y312750D01*
X340645Y312725D01*
X340451Y311750D01*
X340451Y296807D01*
X339989Y296616D01*
X337302Y299302D01*
X336475Y299855D01*
X335500Y300049D01*
X225556D01*
X221491Y304114D01*
X221682Y304576D01*
X232000Y304576D01*
X232975Y304770D01*
X233802Y305323D01*
X234355Y306150D01*
X234549Y307125D01*
X234549Y323500D01*
X234355Y324476D01*
X233802Y325302D01*
X232976Y325855D01*
X232000Y326049D01*
X231857D01*
Y325370D01*
X231828Y325395D01*
X231791Y325417D01*
X231746Y325436D01*
X231693Y325453D01*
X231632Y325467D01*
X231564Y325479D01*
X231403Y325495D01*
X231311Y325499D01*
X231212Y325500D01*
Y326049D01*
X217000Y326049D01*
X216025Y325855D01*
X215198Y325302D01*
X214645Y324475D01*
X214451Y323500D01*
X214451Y310462D01*
X214146Y310049D01*
X212500D01*
X211525Y309855D01*
X210698Y309302D01*
X209990Y308595D01*
X209437Y307768D01*
X209243Y306792D01*
Y279208D01*
X209437Y278232D01*
X209990Y277405D01*
X214698Y272698D01*
X215525Y272145D01*
X216500Y271951D01*
X234200D01*
X234459Y271692D01*
X235242Y271091D01*
X236154Y270713D01*
X237133Y270584D01*
X254097D01*
X254188Y270547D01*
X255167Y270418D01*
X344167D01*
X345146Y270547D01*
X346058Y270924D01*
X346841Y271526D01*
X347442Y272309D01*
X347820Y273221D01*
X347949Y274200D01*
X347820Y275179D01*
X347708Y275451D01*
X349380Y277279D01*
X349609Y277657D01*
X349855Y278025D01*
X349866Y278081D01*
X349896Y278130D01*
X349963Y278567D01*
X350049Y279000D01*
Y285500D01*
X349855Y286475D01*
X349698Y286710D01*
X349934Y287151D01*
X354375D01*
X355350Y287345D01*
X356177Y287898D01*
X356730Y288724D01*
X356924Y289700D01*
Y293700D01*
X356745Y294600D01*
X356924Y295500D01*
X356924Y311750D01*
X356730Y312725D01*
X356714Y312750D01*
X356730Y312774D01*
X356924Y313750D01*
X356924Y330500D01*
X356775Y331250D01*
X356924Y332000D01*
Y336000D01*
X356730Y336976D01*
X356177Y337802D01*
X355350Y338355D01*
X354375Y338549D01*
D02*
G37*
G36*
X305500Y268700D02*
X304077Y268512D01*
X302750Y267963D01*
X301611Y267089D01*
X300737Y265950D01*
X300188Y264623D01*
X300000Y263200D01*
X300188Y261776D01*
X300737Y260450D01*
X301611Y259311D01*
X302750Y258437D01*
X304077Y257888D01*
X305500Y257700D01*
X306924Y257888D01*
X308250Y258437D01*
X309389Y259311D01*
X309574Y259552D01*
X310047Y259391D01*
Y257747D01*
X320953D01*
Y268653D01*
X310047D01*
Y267009D01*
X309574Y266848D01*
X309389Y267089D01*
X308250Y267963D01*
X306924Y268512D01*
X305500Y268700D01*
D02*
G37*
G36*
X218500D02*
X217077Y268512D01*
X215750Y267963D01*
X214611Y267089D01*
X213737Y265950D01*
X213188Y264623D01*
X213000Y263200D01*
X213188Y261776D01*
X213737Y260450D01*
X214611Y259311D01*
X215750Y258437D01*
X217077Y257888D01*
X218500Y257700D01*
X219923Y257888D01*
X221250Y258437D01*
X222389Y259311D01*
X222574Y259552D01*
X223047Y259391D01*
Y257747D01*
X233953D01*
Y268653D01*
X223047D01*
Y267009D01*
X222574Y266848D01*
X222389Y267089D01*
X221250Y267963D01*
X219923Y268512D01*
X218500Y268700D01*
D02*
G37*
G36*
X205662Y207032D02*
X205662Y207025D01*
X206232Y205651D01*
X206236Y205645D01*
X205662Y207032D01*
D02*
G37*
G36*
X335500Y184535D02*
X334456Y184397D01*
X333483Y183994D01*
X332647Y183353D01*
X332006Y182517D01*
X331603Y181544D01*
X331466Y180500D01*
X331603Y179456D01*
X331939Y178645D01*
X331955Y178348D01*
X331970Y178288D01*
Y176662D01*
X327838Y172530D01*
X324285D01*
X324192Y172549D01*
X324050Y172549D01*
X323211Y172897D01*
X322167Y173035D01*
X321122Y172897D01*
X320149Y172494D01*
X319314Y171853D01*
X318673Y171017D01*
X318270Y170044D01*
X318132Y169000D01*
X318270Y167956D01*
X318673Y166983D01*
X319314Y166147D01*
X320149Y165506D01*
X321122Y165103D01*
X322167Y164965D01*
X323211Y165103D01*
X324022Y165439D01*
X324319Y165455D01*
X324379Y165470D01*
X329300D01*
X330214Y165590D01*
X331065Y165943D01*
X331796Y166504D01*
X337996Y172704D01*
X338557Y173435D01*
X338910Y174286D01*
X339030Y175200D01*
Y178382D01*
X339049Y178474D01*
X339049Y178616D01*
X339397Y179456D01*
X339534Y180500D01*
X339397Y181544D01*
X338994Y182517D01*
X338353Y183353D01*
X337517Y183994D01*
X336544Y184397D01*
X335500Y184535D01*
D02*
G37*
G36*
X303000D02*
X301956Y184397D01*
X300983Y183994D01*
X300147Y183353D01*
X299506Y182517D01*
X299103Y181544D01*
X298966Y180500D01*
X299103Y179456D01*
X299439Y178645D01*
X299455Y178348D01*
X299470Y178288D01*
Y176462D01*
X295371Y172363D01*
X291452D01*
X291359Y172382D01*
X291217Y172383D01*
X290377Y172730D01*
X289333Y172868D01*
X288289Y172730D01*
X287316Y172327D01*
X286480Y171686D01*
X285839Y170851D01*
X285436Y169878D01*
X285299Y168833D01*
X285436Y167789D01*
X285839Y166816D01*
X286480Y165981D01*
X287316Y165339D01*
X288289Y164936D01*
X289333Y164799D01*
X290377Y164936D01*
X291189Y165272D01*
X291486Y165288D01*
X291546Y165303D01*
X296833D01*
X297747Y165423D01*
X298598Y165776D01*
X299330Y166337D01*
X305496Y172504D01*
X306057Y173235D01*
X306410Y174086D01*
X306530Y175000D01*
Y178382D01*
X306549Y178474D01*
X306549Y178616D01*
X306897Y179456D01*
X307034Y180500D01*
X306897Y181544D01*
X306494Y182517D01*
X305853Y183353D01*
X305017Y183994D01*
X304044Y184397D01*
X303000Y184535D01*
D02*
G37*
G36*
X269500D02*
X268456Y184397D01*
X267483Y183994D01*
X266647Y183353D01*
X266006Y182517D01*
X265603Y181544D01*
X265465Y180500D01*
X265603Y179456D01*
X265939Y178645D01*
X265955Y178348D01*
X265970Y178288D01*
Y176462D01*
X261871Y172363D01*
X258618D01*
X258525Y172382D01*
X258384Y172383D01*
X257544Y172730D01*
X256500Y172868D01*
X255456Y172730D01*
X254483Y172327D01*
X253647Y171686D01*
X253006Y170851D01*
X252603Y169878D01*
X252466Y168833D01*
X252603Y167789D01*
X253006Y166816D01*
X253647Y165981D01*
X254483Y165339D01*
X255456Y164936D01*
X256500Y164799D01*
X257544Y164936D01*
X258355Y165272D01*
X258652Y165288D01*
X258712Y165303D01*
X263333D01*
X264247Y165423D01*
X265098Y165776D01*
X265830Y166337D01*
X271996Y172504D01*
X272557Y173235D01*
X272910Y174086D01*
X273030Y175000D01*
Y178382D01*
X273049Y178474D01*
X273049Y178616D01*
X273397Y179456D01*
X273534Y180500D01*
X273397Y181544D01*
X272994Y182517D01*
X272353Y183353D01*
X271517Y183994D01*
X270544Y184397D01*
X269500Y184535D01*
D02*
G37*
G36*
X369000Y197035D02*
X367956Y196897D01*
X366983Y196494D01*
X366147Y195853D01*
X365506Y195017D01*
X365170Y194206D01*
X364971Y193985D01*
X364939Y193932D01*
X352504Y181496D01*
X351943Y180765D01*
X351590Y179914D01*
X351470Y179000D01*
Y171118D01*
X351451Y171026D01*
X351451Y170884D01*
X351103Y170044D01*
X350965Y169000D01*
X351103Y167956D01*
X351506Y166983D01*
X352147Y166147D01*
X352983Y165506D01*
X353956Y165103D01*
X355000Y164965D01*
X356044Y165103D01*
X357017Y165506D01*
X357853Y166147D01*
X358494Y166983D01*
X358897Y167956D01*
X359034Y169000D01*
X358897Y170044D01*
X358561Y170855D01*
X358545Y171152D01*
X358530Y171212D01*
Y177538D01*
X369998Y189006D01*
X370077Y189058D01*
X370178Y189158D01*
X371017Y189506D01*
X371853Y190147D01*
X372494Y190983D01*
X372897Y191956D01*
X373035Y193000D01*
X372897Y194044D01*
X372494Y195017D01*
X371853Y195853D01*
X371017Y196494D01*
X370044Y196897D01*
X369000Y197035D01*
D02*
G37*
%LPD*%
G36*
X214451Y307125D02*
X214645Y306150D01*
X215198Y305323D01*
X216024Y304770D01*
X217000Y304576D01*
X217424D01*
X224500Y297500D01*
X335500D01*
X340500Y292500D01*
X343957Y289043D01*
X344020Y288724D01*
X344573Y287898D01*
X345399Y287345D01*
X345718Y287282D01*
X347500Y285500D01*
Y279000D01*
X343382Y274500D01*
X216500D01*
X211792Y279208D01*
Y306792D01*
X212500Y307500D01*
X214146D01*
X214451Y307125D01*
D02*
G37*
%LPC*%
G36*
X233833Y293413D02*
X232872Y293286D01*
X231977Y292915D01*
X231208Y292325D01*
X230618Y291556D01*
X230247Y290661D01*
X230120Y289700D01*
X230247Y288739D01*
X230574Y287950D01*
X230247Y287161D01*
X230120Y286200D01*
X230247Y285239D01*
X230618Y284344D01*
X231208Y283575D01*
X231977Y282985D01*
X232872Y282614D01*
X233833Y282487D01*
X234794Y282614D01*
X235690Y282985D01*
X235937Y283174D01*
X260333D01*
X261117Y283277D01*
X261846Y283579D01*
X262473Y284060D01*
X263587Y285174D01*
X332063D01*
X332310Y284985D01*
X333206Y284614D01*
X334167Y284487D01*
X335128Y284614D01*
X336023Y284985D01*
X336792Y285575D01*
X337382Y286344D01*
X337753Y287239D01*
X337880Y288200D01*
X337753Y289161D01*
X337382Y290056D01*
X336792Y290825D01*
X336023Y291415D01*
X335128Y291786D01*
X334167Y291913D01*
X333206Y291786D01*
X332310Y291415D01*
X332063Y291226D01*
X262333D01*
X262333Y291226D01*
X261550Y291123D01*
X260820Y290821D01*
X260194Y290340D01*
X259080Y289226D01*
X248683D01*
X248586Y289961D01*
X248215Y290856D01*
X247625Y291625D01*
X246856Y292215D01*
X245961Y292586D01*
X245000Y292713D01*
X244700Y292673D01*
X244300Y292726D01*
X235937D01*
X235690Y292915D01*
X234794Y293286D01*
X233833Y293413D01*
D02*
G37*
%LPD*%
G36*
X333524Y287570D02*
X333495Y287595D01*
X333457Y287617D01*
X333412Y287636D01*
X333360Y287653D01*
X333299Y287667D01*
X333230Y287679D01*
X333070Y287695D01*
X332978Y287699D01*
X332878Y287700D01*
Y288700D01*
X332978Y288701D01*
X333230Y288721D01*
X333299Y288733D01*
X333360Y288747D01*
X333412Y288764D01*
X333457Y288783D01*
X333495Y288805D01*
X333524Y288830D01*
Y287570D01*
D02*
G37*
G36*
X234506Y286805D02*
X234543Y286783D01*
X234588Y286764D01*
X234641Y286747D01*
X234701Y286733D01*
X234770Y286721D01*
X234930Y286705D01*
X235022Y286701D01*
X235122Y286700D01*
Y285700D01*
X235022Y285699D01*
X234770Y285679D01*
X234701Y285667D01*
X234641Y285653D01*
X234588Y285636D01*
X234543Y285617D01*
X234506Y285595D01*
X234476Y285570D01*
Y286830D01*
X234506Y286805D01*
D02*
G37*
G36*
X336541Y179411D02*
X336532Y179375D01*
X336525Y179323D01*
X336512Y179168D01*
X336501Y178653D01*
X336500Y178482D01*
X334500D01*
X334450Y179429D01*
X336550D01*
X336541Y179411D01*
D02*
G37*
G36*
X323256Y170041D02*
X323291Y170032D01*
X323344Y170025D01*
X323499Y170012D01*
X324014Y170001D01*
X324185Y170000D01*
Y168000D01*
X323238Y167950D01*
Y170050D01*
X323256Y170041D01*
D02*
G37*
G36*
X304041Y179411D02*
X304032Y179375D01*
X304025Y179323D01*
X304012Y179168D01*
X304000Y178653D01*
X304000Y178482D01*
X302000D01*
X301950Y179429D01*
X304050D01*
X304041Y179411D01*
D02*
G37*
G36*
X290423Y169874D02*
X290458Y169865D01*
X290510Y169858D01*
X290666Y169846D01*
X291180Y169834D01*
X291351Y169833D01*
Y167833D01*
X290405Y167783D01*
Y169883D01*
X290423Y169874D01*
D02*
G37*
G36*
X270540Y179411D02*
X270532Y179375D01*
X270525Y179323D01*
X270513Y179168D01*
X270500Y178653D01*
X270500Y178482D01*
X268500D01*
X268450Y179429D01*
X270550D01*
X270540Y179411D01*
D02*
G37*
G36*
X257590Y169874D02*
X257625Y169865D01*
X257677Y169858D01*
X257832Y169846D01*
X258347Y169834D01*
X258518Y169833D01*
Y167833D01*
X257571Y167783D01*
Y169883D01*
X257590Y169874D01*
D02*
G37*
G36*
X368985Y191500D02*
X368965Y191494D01*
X368934Y191475D01*
X368892Y191443D01*
X368774Y191342D01*
X368402Y190987D01*
X368280Y190866D01*
X366866Y192280D01*
X367500Y192985D01*
X368985Y191500D01*
D02*
G37*
G36*
X356050Y170071D02*
X353950D01*
X353959Y170089D01*
X353968Y170125D01*
X353976Y170177D01*
X353988Y170332D01*
X353999Y170847D01*
X354000Y171018D01*
X356000D01*
X356050Y170071D01*
D02*
G37*
%LPC*%
G36*
X374016Y383847D02*
X372098Y383658D01*
X370254Y383098D01*
X368554Y382190D01*
X367064Y380967D01*
X365842Y379478D01*
X364933Y377778D01*
X364374Y375934D01*
X364185Y374016D01*
X364374Y372098D01*
X364933Y370254D01*
X365842Y368554D01*
X367064Y367064D01*
X368554Y365842D01*
X370254Y364933D01*
X372098Y364374D01*
X374016Y364185D01*
X375934Y364374D01*
X377778Y364933D01*
X379478Y365842D01*
X380967Y367064D01*
X382190Y368554D01*
X383098Y370254D01*
X383658Y372098D01*
X383847Y374016D01*
X383658Y375934D01*
X383098Y377778D01*
X382190Y379478D01*
X380967Y380967D01*
X379478Y382190D01*
X377778Y383098D01*
X375934Y383658D01*
X374016Y383847D01*
D02*
G37*
%LPD*%
D10*
X109203Y200268D02*
Y203852D01*
X108981Y204075D02*
X109203Y203852D01*
X108981Y204075D02*
X109203Y204297D01*
X97000Y216500D02*
X109203Y204297D01*
X150400Y220900D02*
X162500Y233000D01*
X150400Y206000D02*
Y220900D01*
X144194Y199794D02*
X150400Y206000D01*
X127487Y199794D02*
X144194D01*
X233833Y289700D02*
X244300D01*
X245000Y289000D01*
X88500Y286500D02*
Y292000D01*
X76300Y304200D02*
X88500Y292000D01*
X38500Y304200D02*
X76300D01*
X203000Y345000D02*
X222000Y326000D01*
X232500D01*
X353000Y271000D02*
X353267Y270733D01*
X162500Y233000D02*
Y272000D01*
X150400Y206000D02*
X154500D01*
X158300Y202200D01*
Y192500D02*
Y202200D01*
X182500Y330563D02*
X189500Y323563D01*
Y303500D02*
Y323563D01*
X180500Y303500D02*
X189500D01*
X172500Y295500D02*
X180500Y303500D01*
X172500Y278000D02*
Y295500D01*
X166500Y272000D02*
X172500Y278000D01*
X162500Y272000D02*
X166500D01*
X151000D02*
X162500D01*
X147000Y276000D02*
X151000Y272000D01*
X140500Y276000D02*
X147000D01*
X119000D02*
X140500D01*
X108500Y286500D02*
X119000Y276000D01*
X99000Y286500D02*
X108500D01*
X131000Y333563D02*
Y345000D01*
X128000Y330563D02*
X131000Y333563D01*
X99000Y301563D02*
X128000Y330563D01*
X99000Y286500D02*
Y301563D01*
X88500Y286500D02*
X99000D01*
X81500Y279500D02*
X88500Y286500D01*
X81500Y243000D02*
Y279500D01*
Y243000D02*
X97000Y227500D01*
Y216500D02*
Y227500D01*
X38500Y213600D02*
X62900D01*
X68500Y208000D01*
X77000Y216500D01*
X97000D01*
X68500Y187000D02*
Y208000D01*
Y187000D02*
X75000Y180500D01*
X77000D01*
Y186000D01*
X81600Y190600D01*
X86600D01*
Y187973D02*
Y190600D01*
Y187973D02*
X88000Y186573D01*
X77000Y180500D02*
X92000Y165500D01*
X96500D01*
X97000Y166000D01*
X120000D01*
X126193Y159807D01*
Y149500D02*
Y159807D01*
X353267Y264233D02*
Y270733D01*
X365000Y138500D02*
X372667D01*
X375000Y136167D01*
Y134000D02*
Y136167D01*
X342167Y138000D02*
Y138333D01*
Y134000D02*
Y138000D01*
X342000Y138500D02*
X342167Y138333D01*
X309167Y138000D02*
X309333Y137833D01*
Y134000D02*
Y137833D01*
X276333Y138000D02*
X276500Y137833D01*
Y134000D02*
Y137833D01*
X217000Y163000D02*
X218400Y161600D01*
X223500D01*
X233833Y286200D02*
X260333D01*
X262333Y288200D01*
X334167D01*
D17*
X134500Y220000D02*
X152500Y238000D01*
X120782Y220000D02*
X134500D01*
X113000Y205016D02*
Y227500D01*
X159500Y127303D02*
X182581Y104222D01*
Y56081D02*
Y104222D01*
X182500Y56000D02*
X182581Y56081D01*
X192697Y97500D02*
X244000D01*
X161900Y128297D02*
X192697Y97500D01*
X193194Y98700D02*
X244497D01*
X163100Y128794D02*
X193194Y98700D01*
X244000Y97500D02*
X250000Y91500D01*
X244497Y98700D02*
X260000Y83197D01*
Y56000D02*
Y83197D01*
X163100Y128794D02*
Y166900D01*
X161900Y128297D02*
Y165100D01*
X159500Y127303D02*
Y164106D01*
X140000Y187000D02*
X161900Y165100D01*
X150803Y174500D02*
X160700Y164603D01*
Y127800D02*
Y164603D01*
Y127800D02*
X192500Y96000D01*
X150306Y173300D02*
X159500Y164106D01*
X140000Y190000D02*
X163100Y166900D01*
X134500Y174500D02*
X150803D01*
X132653Y173300D02*
X150306D01*
X115937Y190016D02*
X132653Y173300D01*
X108000Y190016D02*
X115937D01*
X192500Y56000D02*
Y96000D01*
X116000Y193000D02*
X134500Y174500D01*
X108000Y193000D02*
X116000D01*
X250000Y56000D02*
Y91500D01*
X97303Y243197D02*
X113000Y227500D01*
X92303Y243197D02*
X97303D01*
X88500Y247000D02*
X92303Y243197D01*
X88500Y247000D02*
Y249500D01*
X114200Y206800D02*
Y227997D01*
X99000Y243197D02*
X114200Y227997D01*
X99000Y243197D02*
Y249500D01*
X114200Y206800D02*
X128000Y193000D01*
X113000Y205016D02*
X128000Y190016D01*
D50*
X149900Y29500D02*
X205849D01*
X143500Y23100D02*
X149900Y29500D01*
X109600Y23100D02*
X143500D01*
X164250Y56250D02*
X180500Y72500D01*
X320500Y78500D02*
X328733Y86733D01*
X320500Y66000D02*
Y78500D01*
X328733Y86733D02*
Y111267D01*
X213000Y114500D02*
X217000Y118500D01*
Y123000D01*
X205849Y29500D02*
X216500Y40151D01*
X213000Y43651D02*
Y95000D01*
Y43651D02*
X216500Y40151D01*
X224349Y48000D01*
X241849D01*
X333000Y53500D02*
X351500D01*
X274750D02*
X333000D01*
X234000Y40151D02*
X241849Y48000D01*
X269250D01*
X274750Y53500D01*
X320500Y66000D02*
X333000Y53500D01*
X269500Y175000D02*
Y180500D01*
X263333Y168833D02*
X269500Y175000D01*
X256500Y168833D02*
X263333D01*
X335500Y175200D02*
Y180500D01*
X329300Y169000D02*
X335500Y175200D01*
X322167Y169000D02*
X329300D01*
X303000Y175000D02*
Y180500D01*
X296833Y168833D02*
X303000Y175000D01*
X289333Y168833D02*
X296833D01*
X355000Y179000D02*
X369000Y193000D01*
X355000Y169000D02*
Y179000D01*
D51*
X270000Y326000D02*
X275500D01*
X291118Y341618D01*
Y355500D01*
D52*
X255167Y274200D02*
X344167D01*
X213500Y298000D02*
X237133Y274367D01*
X213500Y298000D02*
Y304000D01*
X237133Y274367D02*
X255000D01*
X255167Y274200D01*
D53*
X243500Y138000D02*
X276333D01*
X309167D01*
X342167D01*
X364500D01*
X365000Y138500D01*
X238500Y133000D02*
X243500Y138000D01*
X217000Y133000D02*
X238500D01*
X177000Y158000D02*
Y168000D01*
Y148000D02*
Y158000D01*
Y138000D02*
Y148000D01*
Y128000D02*
Y138000D01*
Y123000D02*
Y128000D01*
X210533Y168000D02*
X211267Y168733D01*
X177000Y168000D02*
X210533D01*
X217000Y153000D02*
Y163000D01*
Y143000D02*
Y153000D01*
Y133000D02*
Y143000D01*
Y123000D02*
Y133000D01*
X211267Y168733D02*
X217000Y163000D01*
X211267Y168733D02*
Y193500D01*
D54*
X210833Y237167D02*
X218150Y229850D01*
X252183D02*
X257667Y235333D01*
X187500Y217267D02*
X211267Y193500D01*
X187500Y217267D02*
Y245500D01*
X203000Y268000D02*
Y345000D01*
X304500Y237500D02*
X312150Y229850D01*
X342350D02*
X351333Y238833D01*
X187500Y252500D02*
X203000Y268000D01*
X187500Y247500D02*
Y252500D01*
X238500Y193500D02*
X302667D01*
X333000D02*
X341667Y202167D01*
X302667Y193500D02*
X333000D01*
X294833Y201333D02*
X302667Y193500D01*
X238500D02*
X248000Y203000D01*
X211267Y193500D02*
X238500D01*
X248000Y203000D02*
Y208500D01*
X294833Y201333D02*
Y208500D01*
X341667Y202167D02*
Y208500D01*
X351333Y238833D02*
Y246400D01*
X304500Y237500D02*
Y246400D01*
X257667Y235333D02*
Y246400D01*
X210833Y237167D02*
Y246400D01*
D55*
X374016Y374016D02*
D03*
X19685Y374016D02*
D03*
X374016Y19685D02*
D03*
X19685D02*
D03*
D56*
X236000Y355500D02*
D03*
X263559D02*
D03*
X291118D02*
D03*
D57*
X213000Y345000D02*
D03*
X150500D02*
D03*
X81000D02*
D03*
X91000D02*
D03*
X101000D02*
D03*
X111000D02*
D03*
X121000D02*
D03*
X38500Y294200D02*
D03*
Y284200D02*
D03*
Y274200D02*
D03*
X305500Y263200D02*
D03*
X218500D02*
D03*
X206500Y40151D02*
D03*
X196500D02*
D03*
X186500D02*
D03*
X44000Y104000D02*
D03*
X351500Y43500D02*
D03*
X38500Y213600D02*
D03*
Y203600D02*
D03*
Y193600D02*
D03*
Y183600D02*
D03*
Y173600D02*
D03*
X264000Y40151D02*
D03*
X254000D02*
D03*
X244000D02*
D03*
D58*
X203000Y345000D02*
D03*
X160500D02*
D03*
X131000D02*
D03*
X315500Y263200D02*
D03*
X228500D02*
D03*
X216500Y40151D02*
D03*
X234000D02*
D03*
D59*
X38500Y304200D02*
D03*
X44000Y114000D02*
D03*
X351500Y53500D02*
D03*
X38500Y223600D02*
D03*
D60*
X361333Y246400D02*
D03*
X267667D02*
D03*
X361667Y208500D02*
D03*
X220833Y246400D02*
D03*
X314500D02*
D03*
X221167Y208500D02*
D03*
X268000D02*
D03*
X314833D02*
D03*
D61*
X351333Y246400D02*
D03*
X341333D02*
D03*
X257667D02*
D03*
X247667D02*
D03*
X351667Y208500D02*
D03*
X341667D02*
D03*
X77500Y58500D02*
D03*
Y48500D02*
D03*
X320500Y78500D02*
D03*
X300500D02*
D03*
X325500Y343000D02*
D03*
Y363000D02*
D03*
X200833Y246400D02*
D03*
X210833D02*
D03*
X294500D02*
D03*
X304500D02*
D03*
X201167Y208500D02*
D03*
X211167D02*
D03*
X248000D02*
D03*
X258000D02*
D03*
X294833D02*
D03*
X304833D02*
D03*
D62*
X164333Y330563D02*
D03*
Y288437D02*
D03*
X182500Y330563D02*
D03*
Y288437D02*
D03*
X146167Y330563D02*
D03*
Y288437D02*
D03*
X128000Y330563D02*
D03*
Y288437D02*
D03*
D63*
X86900Y149500D02*
D03*
X66900D02*
D03*
X106193D02*
D03*
X126193D02*
D03*
D64*
X86900Y130000D02*
D03*
D65*
X106100Y130000D02*
D03*
D66*
X50200Y52189D02*
D03*
Y64000D02*
D03*
Y75811D02*
D03*
D67*
X296300Y36500D02*
D03*
X314500D02*
D03*
X332800D02*
D03*
D68*
X120782Y220000D02*
D03*
X109203Y200268D02*
D03*
X127487Y199794D02*
D03*
X180500Y72500D02*
D03*
X245000Y289000D02*
D03*
X46056Y369000D02*
D03*
X49800D02*
D03*
X53544D02*
D03*
X46056Y372500D02*
D03*
X49800D02*
D03*
X53544D02*
D03*
Y376000D02*
D03*
X49800D02*
D03*
X46056D02*
D03*
X376756Y246500D02*
D03*
X380500D02*
D03*
X384244D02*
D03*
Y243000D02*
D03*
X380500D02*
D03*
X376756D02*
D03*
X384244Y239500D02*
D03*
X380500D02*
D03*
X376756D02*
D03*
X376500Y308500D02*
D03*
X380244D02*
D03*
X383988D02*
D03*
Y305000D02*
D03*
X380244D02*
D03*
X376500D02*
D03*
X383988Y301500D02*
D03*
X380244D02*
D03*
X376500D02*
D03*
X376256Y278500D02*
D03*
X380000D02*
D03*
X383744D02*
D03*
Y275000D02*
D03*
X380000D02*
D03*
X376256D02*
D03*
X383744Y271500D02*
D03*
X380000D02*
D03*
X376256D02*
D03*
X198256Y322000D02*
D03*
X202000D02*
D03*
X205744D02*
D03*
Y318500D02*
D03*
X202000D02*
D03*
X198256D02*
D03*
X205744Y315000D02*
D03*
X202000D02*
D03*
X198256D02*
D03*
X347256Y353500D02*
D03*
X351000D02*
D03*
X354744D02*
D03*
Y350000D02*
D03*
X351000D02*
D03*
X347256D02*
D03*
X354744Y346500D02*
D03*
X351000D02*
D03*
X347256D02*
D03*
X302756Y315500D02*
D03*
X306500D02*
D03*
X310244D02*
D03*
Y312000D02*
D03*
X306500D02*
D03*
X302756D02*
D03*
X310244Y308500D02*
D03*
X306500D02*
D03*
X302756D02*
D03*
X252756Y314500D02*
D03*
X256500D02*
D03*
X260244D02*
D03*
Y311000D02*
D03*
X256500D02*
D03*
X252756D02*
D03*
X260244Y307500D02*
D03*
X256500D02*
D03*
X252756D02*
D03*
X168756Y228500D02*
D03*
X172500D02*
D03*
X176244D02*
D03*
Y225000D02*
D03*
X172500D02*
D03*
X168756D02*
D03*
X176244Y221500D02*
D03*
X172500D02*
D03*
X168756D02*
D03*
X235756Y120000D02*
D03*
X239500D02*
D03*
X243244D02*
D03*
Y116500D02*
D03*
X239500D02*
D03*
X235756D02*
D03*
X243244Y113000D02*
D03*
X239500D02*
D03*
X235756D02*
D03*
X185512Y118000D02*
D03*
X189256D02*
D03*
X193000D02*
D03*
Y114500D02*
D03*
X189256D02*
D03*
X185512D02*
D03*
X193000Y111000D02*
D03*
X189256D02*
D03*
X185512D02*
D03*
X182756Y183500D02*
D03*
X186500D02*
D03*
X190244D02*
D03*
Y180000D02*
D03*
X186500D02*
D03*
X182756D02*
D03*
X190244Y176500D02*
D03*
X186500D02*
D03*
X182756D02*
D03*
X376756Y186500D02*
D03*
X380500D02*
D03*
X384244D02*
D03*
Y183000D02*
D03*
X380500D02*
D03*
X376756D02*
D03*
X384244Y179500D02*
D03*
X380500D02*
D03*
X376756D02*
D03*
Y168500D02*
D03*
X380500D02*
D03*
X384244D02*
D03*
Y165000D02*
D03*
X380500D02*
D03*
X376756D02*
D03*
X384244Y161500D02*
D03*
X380500D02*
D03*
X376756D02*
D03*
X150756Y118500D02*
D03*
X154500D02*
D03*
X158244D02*
D03*
Y115000D02*
D03*
X154500D02*
D03*
X150756D02*
D03*
X158244Y111500D02*
D03*
X154500D02*
D03*
X150756D02*
D03*
X127632Y136250D02*
D03*
X131376D02*
D03*
X135120D02*
D03*
Y132750D02*
D03*
X131376D02*
D03*
X127632D02*
D03*
X135120Y129250D02*
D03*
X131376D02*
D03*
X127632D02*
D03*
X145226Y221000D02*
D03*
X148970D02*
D03*
X152714D02*
D03*
Y217500D02*
D03*
X148970D02*
D03*
X145226D02*
D03*
X152714Y214000D02*
D03*
X148970D02*
D03*
X145226D02*
D03*
X76197Y91000D02*
D03*
X79940D02*
D03*
X83684D02*
D03*
Y87500D02*
D03*
X79940D02*
D03*
X76197D02*
D03*
X83684Y84000D02*
D03*
X79940D02*
D03*
X76197D02*
D03*
X33756Y137000D02*
D03*
X37500D02*
D03*
X41244D02*
D03*
Y133500D02*
D03*
X37500D02*
D03*
X33756D02*
D03*
X41244Y130000D02*
D03*
X37500D02*
D03*
X33756D02*
D03*
X227256Y84000D02*
D03*
X231000D02*
D03*
X234744D02*
D03*
Y80500D02*
D03*
X231000D02*
D03*
X227256D02*
D03*
X234744Y77000D02*
D03*
X231000D02*
D03*
X227256D02*
D03*
X55256Y26000D02*
D03*
X59000D02*
D03*
X62744D02*
D03*
Y22500D02*
D03*
X59000D02*
D03*
X55256D02*
D03*
X62744Y19000D02*
D03*
X59000D02*
D03*
X55256D02*
D03*
X372756Y97500D02*
D03*
X376500D02*
D03*
X380244D02*
D03*
Y94000D02*
D03*
X376500D02*
D03*
X372756D02*
D03*
X380244Y90500D02*
D03*
X376500D02*
D03*
X372756D02*
D03*
X342756Y87000D02*
D03*
X346500D02*
D03*
X350244D02*
D03*
Y83500D02*
D03*
X346500D02*
D03*
X342756D02*
D03*
X350244Y80000D02*
D03*
X346500D02*
D03*
X342756D02*
D03*
X160506Y87000D02*
D03*
X164250D02*
D03*
X167994D02*
D03*
Y83500D02*
D03*
X164250D02*
D03*
X160506D02*
D03*
X167994Y80000D02*
D03*
X164250D02*
D03*
X160506D02*
D03*
X142423Y32267D02*
D03*
X146167D02*
D03*
X149911D02*
D03*
Y28767D02*
D03*
X146167D02*
D03*
X142423D02*
D03*
X149911Y25267D02*
D03*
X146167D02*
D03*
X142423D02*
D03*
X86756Y32267D02*
D03*
X90500D02*
D03*
X94244D02*
D03*
Y28767D02*
D03*
X90500D02*
D03*
X86756D02*
D03*
X94244Y25267D02*
D03*
X90500D02*
D03*
X86756D02*
D03*
X171256Y352500D02*
D03*
X175000D02*
D03*
X178744D02*
D03*
Y349000D02*
D03*
X175000D02*
D03*
X171256D02*
D03*
X178744Y345500D02*
D03*
X175000D02*
D03*
X171256D02*
D03*
Y313500D02*
D03*
X175000D02*
D03*
X178744D02*
D03*
Y310000D02*
D03*
X175000D02*
D03*
X171256D02*
D03*
X178744Y306500D02*
D03*
X175000D02*
D03*
X171256D02*
D03*
X133256Y313500D02*
D03*
X137000D02*
D03*
X140744D02*
D03*
Y310000D02*
D03*
X137000D02*
D03*
X133256D02*
D03*
X140744Y306500D02*
D03*
X137000D02*
D03*
X133256D02*
D03*
X118756Y252000D02*
D03*
X122500D02*
D03*
X126244D02*
D03*
Y248500D02*
D03*
X122500D02*
D03*
X118756D02*
D03*
X126244Y245000D02*
D03*
X122500D02*
D03*
X118756D02*
D03*
X78756Y214119D02*
D03*
X82500D02*
D03*
X86244D02*
D03*
Y210619D02*
D03*
X82500D02*
D03*
X78756D02*
D03*
X86244Y207119D02*
D03*
X82500D02*
D03*
X78756D02*
D03*
X51256Y249500D02*
D03*
X55000D02*
D03*
X58744D02*
D03*
Y246000D02*
D03*
X55000D02*
D03*
X51256D02*
D03*
X58744Y242500D02*
D03*
X55000D02*
D03*
X51256D02*
D03*
X86471Y320000D02*
D03*
X90215D02*
D03*
X93959D02*
D03*
Y316500D02*
D03*
X90215D02*
D03*
X86471D02*
D03*
X93959Y313000D02*
D03*
X90215D02*
D03*
X86471D02*
D03*
X46056Y336500D02*
D03*
X49800D02*
D03*
X53544D02*
D03*
Y333000D02*
D03*
X49800D02*
D03*
X46056D02*
D03*
X53544Y329500D02*
D03*
X49800D02*
D03*
X46056D02*
D03*
X60756Y302000D02*
D03*
X64500D02*
D03*
X68244D02*
D03*
Y298500D02*
D03*
X64500D02*
D03*
X60756D02*
D03*
X68244Y295000D02*
D03*
X64500D02*
D03*
X60756D02*
D03*
X60500Y313000D02*
D03*
X64244D02*
D03*
X67988D02*
D03*
X60500Y316500D02*
D03*
X64244D02*
D03*
X67988D02*
D03*
Y320000D02*
D03*
X64244D02*
D03*
X60500D02*
D03*
X213000Y114500D02*
D03*
X120000Y166000D02*
D03*
X162500Y272000D02*
D03*
X150400Y206000D02*
D03*
X158300Y192500D02*
D03*
X189500Y303500D02*
D03*
X140500Y276000D02*
D03*
X88500Y286500D02*
D03*
X99000D02*
D03*
X97000Y216500D02*
D03*
X96500Y165500D02*
D03*
X77000Y180500D02*
D03*
X68500Y208000D02*
D03*
X88000Y186573D02*
D03*
X86600Y190600D02*
D03*
X353267Y264233D02*
D03*
X277667Y256167D02*
D03*
X328733Y111267D02*
D03*
X213000Y95000D02*
D03*
X155000Y94500D02*
D03*
X146055Y145555D02*
D03*
X139555Y145610D02*
D03*
X109600Y23100D02*
D03*
X110390Y76110D02*
D03*
X105500Y47500D02*
D03*
X97000D02*
D03*
Y78000D02*
D03*
X105500D02*
D03*
X232500Y326000D02*
D03*
X365000Y138500D02*
D03*
X332167Y138667D02*
D03*
X299333Y138500D02*
D03*
X266500D02*
D03*
X243500Y138000D02*
D03*
X375000Y134000D02*
D03*
X342000Y138500D02*
D03*
X342167Y134000D02*
D03*
X309167Y138000D02*
D03*
X309333Y134000D02*
D03*
X276500D02*
D03*
X276333Y138000D02*
D03*
X177000Y123000D02*
D03*
Y128000D02*
D03*
Y138000D02*
D03*
Y148000D02*
D03*
Y158000D02*
D03*
Y168000D02*
D03*
X223500Y161600D02*
D03*
X217000Y123000D02*
D03*
Y133000D02*
D03*
Y143000D02*
D03*
Y153000D02*
D03*
Y163000D02*
D03*
X233833Y286200D02*
D03*
X334167Y288200D02*
D03*
X166500Y58500D02*
D03*
X178500Y70500D02*
D03*
X233833Y289700D02*
D03*
X164250Y56250D02*
D03*
X192500Y56000D02*
D03*
X182500D02*
D03*
X260000D02*
D03*
X250000D02*
D03*
X140000Y190000D02*
D03*
Y187000D02*
D03*
X108000Y190016D02*
D03*
Y193000D02*
D03*
X88500Y249500D02*
D03*
X99000D02*
D03*
X128000Y190016D02*
D03*
Y193000D02*
D03*
X152500Y238000D02*
D03*
D69*
X270000Y326000D02*
D03*
D70*
X344167Y274200D02*
D03*
X213500Y304000D02*
D03*
X255000Y274367D02*
D03*
D71*
X269500Y180500D02*
D03*
X335500D02*
D03*
X369000Y193000D02*
D03*
X303000Y180500D02*
D03*
X355000Y169000D02*
D03*
X322167D02*
D03*
X289333Y168833D02*
D03*
X256500D02*
D03*
D72*
X218150Y229850D02*
X252183D01*
X312150D02*
X342350D01*
X378000Y238241D02*
Y343500D01*
X369608Y229850D02*
X378000Y238241D01*
X252183Y229850D02*
X312150D01*
X342350D02*
X369608D01*
X208000D02*
X218150D01*
D73*
X196500Y256500D02*
X338500D01*
X353000Y271000D01*
X361000Y279000D01*
X187500Y247500D02*
X196500Y256500D01*
D74*
X325500Y343000D02*
X354067D01*
X361000Y279000D02*
Y336067D01*
X354067Y343000D02*
X361000Y336067D01*
M02*
