G04*
G04 #@! TF.GenerationSoftware,Altium Limited,Altium Designer,18.1.9 (240)*
G04*
G04 Layer_Color=16711935*
%FSLAX25Y25*%
%MOIN*%
G70*
G01*
G75*
%ADD35R,0.04500X0.04000*%
%ADD49R,0.10642X0.10642*%
%ADD50C,0.10642*%
%ADD51R,0.06706X0.06706*%
%ADD52C,0.06706*%
%ADD53R,0.07099X0.08674*%
%ADD54R,0.08674X0.06800*%
%ADD55R,0.06706X0.06706*%
%ADD56C,0.07099*%
%ADD57R,0.06706X0.06706*%
%ADD58C,0.06706*%
%ADD59R,0.34265X0.12611*%
%ADD60R,0.34265X0.12611*%
%ADD61R,0.10642X0.10642*%
%ADD62C,0.18517*%
%ADD63R,0.20485X0.12611*%
D35*
X121000Y93500D02*
D03*
X114600D02*
D03*
X172850Y370500D02*
D03*
X166450D02*
D03*
D49*
X236000Y333500D02*
D03*
X291000Y47500D02*
D03*
D50*
X256000Y333500D02*
D03*
X271000Y47500D02*
D03*
X367000Y299500D02*
D03*
D51*
X130500Y360500D02*
D03*
X161000Y26500D02*
D03*
X52000Y25000D02*
D03*
D52*
X140500Y360500D02*
D03*
X150500D02*
D03*
X160500D02*
D03*
X22000Y295000D02*
D03*
X151000Y26500D02*
D03*
X141000D02*
D03*
X131000D02*
D03*
X42000Y25000D02*
D03*
X22000Y334000D02*
D03*
Y139500D02*
D03*
Y129500D02*
D03*
Y119500D02*
D03*
Y165000D02*
D03*
Y175000D02*
D03*
Y185000D02*
D03*
Y260000D02*
D03*
Y250000D02*
D03*
Y240000D02*
D03*
Y230000D02*
D03*
Y220000D02*
D03*
D53*
Y73622D02*
D03*
Y61811D02*
D03*
Y50000D02*
D03*
D54*
Y38189D02*
D03*
Y85433D02*
D03*
D55*
Y305000D02*
D03*
Y344000D02*
D03*
Y109500D02*
D03*
Y195000D02*
D03*
Y270000D02*
D03*
D56*
X367000Y148000D02*
D03*
Y168000D02*
D03*
X50500Y59000D02*
D03*
Y49000D02*
D03*
X86600Y350000D02*
D03*
X106600D02*
D03*
D57*
X77400Y98500D02*
D03*
D58*
X96600Y98500D02*
D03*
D59*
X367000Y196630D02*
D03*
D60*
Y236000D02*
D03*
Y275370D02*
D03*
D61*
X367000Y319500D02*
D03*
D62*
X19685Y374016D02*
D03*
X374016D02*
D03*
Y19685D02*
D03*
X19685Y19685D02*
D03*
D63*
X57000Y323500D02*
D03*
Y341700D02*
D03*
Y360000D02*
D03*
M02*
