G04*
G04 #@! TF.GenerationSoftware,Altium Limited,Altium Designer,18.1.9 (240)*
G04*
G04 Layer_Color=32896*
%FSLAX25Y25*%
%MOIN*%
G70*
G01*
G75*
%ADD10C,0.00700*%
%ADD18C,0.00800*%
%ADD64C,0.02000*%
D10*
X111800Y91000D02*
X115750D01*
X119850D02*
X123800D01*
X111800Y96000D02*
X115700D01*
X119900D02*
X123800D01*
Y91000D02*
Y96000D01*
X111800Y91000D02*
Y95900D01*
X163650Y368000D02*
X167600D01*
X171700D02*
X175650D01*
X163650Y373000D02*
X167550D01*
X171750D02*
X175650D01*
Y368000D02*
Y373000D01*
X163650Y368000D02*
Y372900D01*
D18*
X226000Y316039D02*
X265900D01*
X226000D02*
Y345939D01*
X265900D01*
Y316039D02*
Y345939D01*
X261100Y64961D02*
X301000D01*
Y35061D02*
Y64961D01*
X261100Y35061D02*
X301000D01*
X261100D02*
Y64961D01*
X349539Y289600D02*
X379439D01*
Y329500D01*
X349539D02*
X379439D01*
X349539Y289600D02*
Y329500D01*
X381500Y319499D02*
X384166D01*
X381500Y298999D02*
X384166D01*
X382833Y300332D02*
Y297666D01*
X243000Y349500D02*
Y353499D01*
X241667Y352166D01*
X240334Y353499D01*
Y349500D01*
X237002Y353499D02*
X238335D01*
X239001Y352832D01*
Y350166D01*
X238335Y349500D01*
X237002D01*
X236335Y350166D01*
Y352832D01*
X237002Y353499D01*
X235003D02*
X232337D01*
X233670D01*
Y349500D01*
X229005Y353499D02*
X230337D01*
X231004Y352832D01*
Y350166D01*
X230337Y349500D01*
X229005D01*
X228338Y350166D01*
Y352832D01*
X229005Y353499D01*
X227005Y349500D02*
Y353499D01*
X225006D01*
X224339Y352832D01*
Y351499D01*
X225006Y350833D01*
X227005D01*
X225672D02*
X224339Y349500D01*
X221007D02*
Y353499D01*
X223006Y351499D01*
X220341D01*
X271500Y349500D02*
Y353499D01*
X270167Y352166D01*
X268834Y353499D01*
Y349500D01*
X265502Y353499D02*
X266835D01*
X267501Y352832D01*
Y350166D01*
X266835Y349500D01*
X265502D01*
X264836Y350166D01*
Y352832D01*
X265502Y353499D01*
X263503D02*
X260837D01*
X262170D01*
Y349500D01*
X257505Y353499D02*
X258837D01*
X259504Y352832D01*
Y350166D01*
X258837Y349500D01*
X257505D01*
X256838Y350166D01*
Y352832D01*
X257505Y353499D01*
X255505Y349500D02*
Y353499D01*
X253506D01*
X252839Y352832D01*
Y351499D01*
X253506Y350833D01*
X255505D01*
X254172D02*
X252839Y349500D01*
X251506Y352832D02*
X250840Y353499D01*
X249507D01*
X248841Y352832D01*
Y352166D01*
X249507Y351499D01*
X250173D01*
X249507D01*
X248841Y350833D01*
Y350166D01*
X249507Y349500D01*
X250840D01*
X251506Y350166D01*
X278000Y28500D02*
Y32499D01*
X276667Y31166D01*
X275334Y32499D01*
Y28500D01*
X272002Y32499D02*
X273335D01*
X274001Y31832D01*
Y29166D01*
X273335Y28500D01*
X272002D01*
X271336Y29166D01*
Y31832D01*
X272002Y32499D01*
X270003D02*
X267337D01*
X268670D01*
Y28500D01*
X264004Y32499D02*
X265337D01*
X266004Y31832D01*
Y29166D01*
X265337Y28500D01*
X264004D01*
X263338Y29166D01*
Y31832D01*
X264004Y32499D01*
X262005Y28500D02*
Y32499D01*
X260006D01*
X259339Y31832D01*
Y30499D01*
X260006Y29833D01*
X262005D01*
X260672D02*
X259339Y28500D01*
X258006D02*
X256674D01*
X257340D01*
Y32499D01*
X258006Y31832D01*
X306500Y28500D02*
Y32499D01*
X305167Y31166D01*
X303834Y32499D01*
Y28500D01*
X300502Y32499D02*
X301835D01*
X302501Y31832D01*
Y29166D01*
X301835Y28500D01*
X300502D01*
X299835Y29166D01*
Y31832D01*
X300502Y32499D01*
X298503D02*
X295837D01*
X297170D01*
Y28500D01*
X292505Y32499D02*
X293837D01*
X294504Y31832D01*
Y29166D01*
X293837Y28500D01*
X292505D01*
X291838Y29166D01*
Y31832D01*
X292505Y32499D01*
X290505Y28500D02*
Y32499D01*
X288506D01*
X287839Y31832D01*
Y30499D01*
X288506Y29833D01*
X290505D01*
X289172D02*
X287839Y28500D01*
X283841D02*
X286506D01*
X283841Y31166D01*
Y31832D01*
X284507Y32499D01*
X285840D01*
X286506Y31832D01*
X175200Y376200D02*
Y380199D01*
X173201D01*
X172534Y379532D01*
Y378199D01*
X173201Y377533D01*
X175200D01*
X173867D02*
X172534Y376200D01*
X169202D02*
Y380199D01*
X171201Y378199D01*
X168535D01*
X123500Y99000D02*
Y102999D01*
X121501D01*
X120834Y102332D01*
Y100999D01*
X121501Y100333D01*
X123500D01*
X122167D02*
X120834Y99000D01*
X119501Y102332D02*
X118835Y102999D01*
X117502D01*
X116835Y102332D01*
Y101666D01*
X117502Y100999D01*
X118168D01*
X117502D01*
X116835Y100333D01*
Y99666D01*
X117502Y99000D01*
X118835D01*
X119501Y99666D01*
X277000Y331000D02*
Y334999D01*
X275001D01*
X274334Y334332D01*
Y332999D01*
X275001Y332333D01*
X277000D01*
X273001Y334332D02*
X272335Y334999D01*
X271002D01*
X270336Y334332D01*
Y333666D01*
X271002Y332999D01*
X270336Y332333D01*
Y331666D01*
X271002Y331000D01*
X272335D01*
X273001Y331666D01*
Y332333D01*
X272335Y332999D01*
X273001Y333666D01*
Y334332D01*
X272335Y332999D02*
X271002D01*
X268200Y68200D02*
Y72199D01*
X266201D01*
X265534Y71532D01*
Y70199D01*
X266201Y69533D01*
X268200D01*
X264201Y72199D02*
X261536D01*
Y71532D01*
X264201Y68866D01*
Y68200D01*
X379000Y332700D02*
Y336699D01*
X377001D01*
X376334Y336032D01*
Y334699D01*
X377001Y334033D01*
X379000D01*
X373002Y332700D02*
Y336699D01*
X375001Y334699D01*
X372336D01*
D64*
X246100Y342200D02*
X248200Y340100D01*
X244000D02*
X246100Y342200D01*
Y333500D02*
Y342200D01*
X278800Y40900D02*
X280900Y38800D01*
X283000Y40900D01*
X280900Y38800D02*
Y47500D01*
X367000Y309400D02*
X375700D01*
X373600Y311500D02*
X375700Y309400D01*
X373600Y307300D02*
X375700Y309400D01*
M02*
