G04*
G04 #@! TF.GenerationSoftware,Altium Limited,Altium Designer,18.1.9 (240)*
G04*
G04 Layer_Color=8421504*
%FSLAX25Y25*%
%MOIN*%
G70*
G01*
G75*
%ADD19R,0.03200X0.03700*%
%ADD20R,0.03700X0.03200*%
%ADD21R,0.07874X0.07087*%
%ADD22O,0.08661X0.02362*%
%ADD23O,0.02362X0.08661*%
%ADD24R,0.15000X0.08200*%
%ADD25R,0.35000X0.45000*%
%ADD26R,0.07087X0.07874*%
%ADD27R,0.09449X0.12992*%
%ADD28R,0.09449X0.03937*%
%ADD29R,0.04331X0.06693*%
%ADD30R,0.09055X0.09055*%
%ADD31O,0.08653X0.02362*%
%ADD32O,0.07087X0.01181*%
%ADD33O,0.01181X0.07087*%
D19*
X131000Y43000D02*
D03*
Y49400D02*
D03*
X160500Y346000D02*
D03*
Y339600D02*
D03*
X150500Y346000D02*
D03*
Y339600D02*
D03*
X375500Y119300D02*
D03*
Y125700D02*
D03*
X367500Y119300D02*
D03*
Y125700D02*
D03*
X225000Y36200D02*
D03*
Y29800D02*
D03*
X70500Y29494D02*
D03*
Y35894D02*
D03*
X79500Y29494D02*
D03*
Y35894D02*
D03*
X61836Y140087D02*
D03*
Y133687D02*
D03*
X55000Y132187D02*
D03*
Y125787D02*
D03*
X48000Y132187D02*
D03*
Y125787D02*
D03*
X121400Y120400D02*
D03*
Y114000D02*
D03*
X115000Y120400D02*
D03*
Y114000D02*
D03*
X110392Y75900D02*
D03*
Y69500D02*
D03*
X100392Y75900D02*
D03*
Y69500D02*
D03*
X91000Y13600D02*
D03*
Y20000D02*
D03*
X101000Y13600D02*
D03*
Y20000D02*
D03*
X175500Y125700D02*
D03*
Y119300D02*
D03*
X134000Y142429D02*
D03*
Y136029D02*
D03*
Y149929D02*
D03*
Y156329D02*
D03*
X74000Y226449D02*
D03*
Y220049D02*
D03*
X79500Y49000D02*
D03*
Y55400D02*
D03*
X70500Y49000D02*
D03*
Y55400D02*
D03*
X141000Y49400D02*
D03*
Y43000D02*
D03*
D20*
X71600Y122000D02*
D03*
X78000D02*
D03*
X97000Y318000D02*
D03*
X103400D02*
D03*
X117000Y149929D02*
D03*
X123400D02*
D03*
X117000Y157803D02*
D03*
X123400D02*
D03*
X135500Y240000D02*
D03*
X141900D02*
D03*
X156351Y235000D02*
D03*
X162751D02*
D03*
X156351Y227500D02*
D03*
X162751D02*
D03*
X156351Y242500D02*
D03*
X162751D02*
D03*
X175249Y233500D02*
D03*
X181649D02*
D03*
X141800Y311500D02*
D03*
X148200D02*
D03*
X138300Y301000D02*
D03*
X144700D02*
D03*
X138300Y293500D02*
D03*
X144700D02*
D03*
X172049Y315500D02*
D03*
X178449D02*
D03*
X287800Y65000D02*
D03*
X294200D02*
D03*
X274200D02*
D03*
X267800D02*
D03*
X246100Y21500D02*
D03*
X252500D02*
D03*
X175600Y21000D02*
D03*
X182000D02*
D03*
X55436Y166500D02*
D03*
X61836D02*
D03*
X38400Y129500D02*
D03*
X32000D02*
D03*
X38400Y119500D02*
D03*
X32000D02*
D03*
X115000Y105000D02*
D03*
X121400D02*
D03*
X92000Y113000D02*
D03*
X98400D02*
D03*
X82000D02*
D03*
X75600D02*
D03*
X90200Y84500D02*
D03*
X83800D02*
D03*
X153851Y117000D02*
D03*
X160251D02*
D03*
X153851Y124000D02*
D03*
X160251D02*
D03*
X153851Y130500D02*
D03*
X160251D02*
D03*
X117000Y142429D02*
D03*
X123400D02*
D03*
X259200Y317000D02*
D03*
X252800D02*
D03*
X193051Y44500D02*
D03*
X186651D02*
D03*
X182000Y29000D02*
D03*
X175600D02*
D03*
X82000Y318000D02*
D03*
X88400D02*
D03*
X70800Y242000D02*
D03*
X77200D02*
D03*
X232800Y317000D02*
D03*
X239200D02*
D03*
X56700Y147000D02*
D03*
X50300D02*
D03*
X278000Y359500D02*
D03*
X284400D02*
D03*
X117000Y167500D02*
D03*
X123400D02*
D03*
D21*
X161126Y253000D02*
D03*
X176874D02*
D03*
X163126Y327500D02*
D03*
X178874D02*
D03*
X222748Y53000D02*
D03*
X207000D02*
D03*
X174374Y141555D02*
D03*
X158626D02*
D03*
D22*
X174949Y291000D02*
D03*
Y296000D02*
D03*
Y301000D02*
D03*
Y306000D02*
D03*
X156051Y291000D02*
D03*
Y296000D02*
D03*
Y301000D02*
D03*
Y306000D02*
D03*
X211949Y19000D02*
D03*
Y24000D02*
D03*
Y29000D02*
D03*
Y34000D02*
D03*
X193051Y19000D02*
D03*
Y24000D02*
D03*
Y29000D02*
D03*
Y34000D02*
D03*
X175949Y93000D02*
D03*
Y98000D02*
D03*
Y103000D02*
D03*
Y108000D02*
D03*
X157051Y93000D02*
D03*
Y98000D02*
D03*
Y103000D02*
D03*
Y108000D02*
D03*
X175949Y204000D02*
D03*
Y209000D02*
D03*
Y214000D02*
D03*
Y219000D02*
D03*
X157051Y204000D02*
D03*
Y209000D02*
D03*
Y214000D02*
D03*
Y219000D02*
D03*
D23*
X293000Y346398D02*
D03*
X288000D02*
D03*
X283000D02*
D03*
X278000D02*
D03*
X293000Y327500D02*
D03*
X288000D02*
D03*
X283000D02*
D03*
X278000D02*
D03*
X99405Y226449D02*
D03*
X94406D02*
D03*
X89406D02*
D03*
X84405D02*
D03*
X99405Y207551D02*
D03*
X94406D02*
D03*
X89406D02*
D03*
X84405D02*
D03*
X237500Y36102D02*
D03*
X242500D02*
D03*
X247500D02*
D03*
X252500D02*
D03*
X237500Y55000D02*
D03*
X242500D02*
D03*
X247500D02*
D03*
X252500D02*
D03*
D24*
X196000Y274500D02*
D03*
Y294500D02*
D03*
X331000D02*
D03*
Y274500D02*
D03*
X196000Y219500D02*
D03*
Y239500D02*
D03*
X331000D02*
D03*
Y219500D02*
D03*
X196000Y84500D02*
D03*
Y104500D02*
D03*
X331000D02*
D03*
Y84500D02*
D03*
X196000Y139500D02*
D03*
Y159500D02*
D03*
X331000Y139500D02*
D03*
Y159500D02*
D03*
D25*
X241000Y284500D02*
D03*
X286000D02*
D03*
X241000Y229500D02*
D03*
X286000D02*
D03*
X241000Y94500D02*
D03*
X286000D02*
D03*
X241000Y149500D02*
D03*
X286000D02*
D03*
D26*
X55000Y116500D02*
D03*
Y88941D02*
D03*
D27*
X113917Y44949D02*
D03*
D28*
X91083Y35894D02*
D03*
Y44949D02*
D03*
Y54004D02*
D03*
D29*
X215370Y182500D02*
D03*
X226000D02*
D03*
X215370Y196500D02*
D03*
X226000D02*
D03*
D30*
X46500Y263592D02*
D03*
Y281309D02*
D03*
X101500Y263592D02*
D03*
Y281309D02*
D03*
X64833Y263592D02*
D03*
Y281309D02*
D03*
X83167Y263592D02*
D03*
Y281309D02*
D03*
D31*
X142173Y232500D02*
D03*
Y227500D02*
D03*
Y222500D02*
D03*
Y217500D02*
D03*
Y212500D02*
D03*
Y207500D02*
D03*
Y202500D02*
D03*
Y197500D02*
D03*
X113827D02*
D03*
Y202500D02*
D03*
Y207500D02*
D03*
Y212500D02*
D03*
Y217500D02*
D03*
Y222500D02*
D03*
Y227500D02*
D03*
Y232500D02*
D03*
Y192500D02*
D03*
Y187500D02*
D03*
X142173D02*
D03*
Y192500D02*
D03*
D32*
X73008Y138118D02*
D03*
Y140087D02*
D03*
Y142055D02*
D03*
Y144024D02*
D03*
Y145992D02*
D03*
Y147961D02*
D03*
Y149929D02*
D03*
Y151898D02*
D03*
Y153866D02*
D03*
Y155835D02*
D03*
Y157803D02*
D03*
Y159772D02*
D03*
X104898D02*
D03*
Y157803D02*
D03*
Y155835D02*
D03*
Y153866D02*
D03*
Y151898D02*
D03*
Y149929D02*
D03*
Y147961D02*
D03*
Y145992D02*
D03*
Y144024D02*
D03*
Y142055D02*
D03*
Y140087D02*
D03*
Y138118D02*
D03*
D33*
X78126Y164890D02*
D03*
X80094D02*
D03*
X82063D02*
D03*
X84031D02*
D03*
X86000D02*
D03*
X87968D02*
D03*
X89937D02*
D03*
X91905D02*
D03*
X93874D02*
D03*
X95842D02*
D03*
X97811D02*
D03*
X99779D02*
D03*
Y133000D02*
D03*
X97811D02*
D03*
X95842D02*
D03*
X93874D02*
D03*
X91905D02*
D03*
X89937D02*
D03*
X87968D02*
D03*
X86000D02*
D03*
X84031D02*
D03*
X82063D02*
D03*
X80094D02*
D03*
X78126D02*
D03*
M02*
